<svg width="382" height="381" viewBox="0 0 382 381" fill="none" xmlns="http://www.w3.org/2000/svg">
<g clip-path="url(#clip0)">
<path d="M378.341 340.94C373.613 350.758 364.901 358.061 355.768 363.999C345.786 370.482 335.031 375.689 323.755 379.499C322.209 380.032 320.648 380.527 319.08 381H255.662C255.219 380.52 254.799 380.017 254.401 379.499C250.154 374.057 247.857 367.084 248.69 360.253C249.763 351.478 256.427 343.417 265.057 341.555C273.694 339.686 283.54 344.843 286.166 353.287C287.607 337.014 289.273 320.065 297.918 306.209C305.752 293.666 319.313 284.688 334.006 283.082C342.648 282.182 351.367 283.779 359.13 287.683C359.843 288.044 360.548 288.419 361.239 288.809C365.897 291.451 370.008 294.96 373.351 299.145C382.513 310.75 384.757 327.616 378.341 340.94Z" fill="#F2F2F2"/>
<path d="M360.774 289.838C331.282 313.862 307.978 344.608 292.815 379.499C292.598 379.994 292.38 380.497 292.17 381H289.183C289.393 380.497 289.603 379.994 289.821 379.499C292.71 372.743 295.9 366.108 299.404 359.645C306.861 345.902 315.635 332.915 325.601 320.868C335.561 308.806 346.686 297.756 358.815 287.879C358.911 287.8 359.017 287.735 359.13 287.683C359.341 287.592 359.57 287.549 359.799 287.558C360.029 287.567 360.254 287.628 360.456 287.737C360.659 287.845 360.835 287.998 360.97 288.183C361.106 288.369 361.198 288.583 361.239 288.809C361.26 289.007 361.229 289.206 361.147 289.387C361.065 289.568 360.936 289.724 360.774 289.838V289.838Z" fill="white"/>
<path d="M125.481 220.371C126.222 219.638 126.793 218.752 127.155 217.774C127.516 216.797 127.658 215.752 127.572 214.713C127.486 213.675 127.174 212.668 126.656 211.763C126.139 210.858 125.43 210.078 124.578 209.477L120.979 185.743L106.195 190.398L114.294 211.572C113.38 213.07 113.047 214.851 113.357 216.577C113.668 218.304 114.602 219.857 115.98 220.942C117.359 222.026 119.088 222.567 120.839 222.462C122.59 222.357 124.242 221.613 125.481 220.371H125.481Z" fill="#FFB8B8"/>
<path d="M110.251 209.205L101.131 166.603C100.243 162.522 100.417 158.281 101.636 154.287C102.856 150.292 105.08 146.678 108.096 143.79C119.77 132.537 134.773 118.355 139.955 114.686C144.82 111.218 150.705 109.481 156.672 109.751L156.797 109.764L164.642 117.18L147.553 145.32L121.61 161.579L124.497 203.335L110.251 209.205Z" fill="#4D4DFF"/>
<path d="M142.19 151.311H103.919C102.261 151.311 100.917 152.656 100.917 154.314C100.917 155.972 102.261 157.316 103.919 157.316H142.19C143.848 157.316 145.192 155.972 145.192 154.314C145.192 152.656 143.848 151.311 142.19 151.311Z" fill="#CCCCCC"/>
<path d="M142.19 216.615H103.919C102.261 216.615 100.917 217.959 100.917 219.618C100.917 221.276 102.261 222.62 103.919 222.62H142.19C143.848 222.62 145.192 221.276 145.192 219.618C145.192 217.959 143.848 216.615 142.19 216.615Z" fill="#CCCCCC"/>
<path d="M123.43 380.249C123.055 380.249 122.693 380.109 122.416 379.856C122.14 379.602 121.968 379.255 121.935 378.881L102.802 154.447C102.767 154.05 102.89 153.656 103.146 153.35C103.401 153.045 103.768 152.854 104.164 152.819C104.561 152.783 104.955 152.907 105.26 153.163C105.565 153.418 105.757 153.785 105.792 154.181L123.408 361.54L140.524 154.185C140.541 153.988 140.596 153.797 140.687 153.622C140.778 153.447 140.902 153.292 141.053 153.165C141.204 153.038 141.378 152.942 141.566 152.883C141.754 152.823 141.952 152.801 142.148 152.818C142.344 152.835 142.535 152.891 142.71 152.981C142.885 153.072 143.041 153.197 143.167 153.348C143.294 153.498 143.39 153.673 143.45 153.861C143.509 154.049 143.531 154.247 143.514 154.443L124.925 378.877C124.893 379.251 124.721 379.6 124.445 379.854C124.168 380.108 123.807 380.249 123.431 380.249H123.43Z" fill="#CCCCCC"/>
<path d="M166.38 100.767C177.254 100.767 186.07 91.9491 186.07 81.0717C186.07 70.1943 177.254 61.3764 166.38 61.3764C155.505 61.3764 146.689 70.1943 146.689 81.0717C146.689 91.9491 155.505 100.767 166.38 100.767Z" fill="#FFB8B8"/>
<path d="M107.698 371.248L98.334 368.263L105.389 330.713L119.211 335.119L107.698 371.248Z" fill="#FFB8B8"/>
<path d="M107.177 379.556L77.0312 369.945L77.2802 369.162C78.2391 366.166 80.3469 363.672 83.1413 362.228C85.9357 360.784 89.1885 360.508 92.1864 361.459L111.029 367.467L107.177 379.556Z" fill="#2F2E41"/>
<path d="M175.828 371.054H166L161.322 333.134H175.828V371.054Z" fill="#FFB8B8"/>
<path d="M147.42 379.807H177.559V368.62H158.533C155.587 368.624 152.762 369.796 150.679 371.88C148.595 373.964 147.423 376.789 147.42 379.736V379.807Z" fill="#2F2E41"/>
<path d="M175.54 358.748L172.223 358.253C162.162 356.754 161.56 356.664 159.963 355.962C159.147 355.604 159.09 350.188 159.579 319.741C159.939 297.392 160.386 269.577 159.518 254.645C159.482 254.056 159.249 253.496 158.856 253.056C158.463 252.615 157.933 252.32 157.352 252.218C156.771 252.115 156.172 252.212 155.652 252.491C155.133 252.771 154.722 253.218 154.487 253.759C147.001 271.051 134.442 309.748 126.131 335.354C123.24 344.261 120.957 351.297 119.512 355.514C119.233 356.311 118.667 356.976 117.924 357.378C117.181 357.781 116.315 357.891 115.495 357.689C108.656 355.979 109.113 355.252 99.3716 352.732C98.5288 352.517 97.8018 351.984 97.3428 351.245C96.8838 350.506 96.7283 349.618 96.9089 348.767C98.6708 340.456 130.914 205.7 133.382 192.89C133.465 192.451 133.635 192.034 133.881 191.661C134.126 191.289 134.444 190.969 134.814 190.719C135.184 190.47 135.6 190.297 136.037 190.209C136.475 190.121 136.925 190.121 137.363 190.209C144.622 191.672 149.039 193.224 156.213 194.725C163.954 196.345 171.958 198.02 179.766 199.583C180.543 199.739 181.24 200.166 181.731 200.788C183.663 203.228 186.528 204.599 189.561 206.049C191.606 207.027 186.972 206.939 188.753 208.349C195.965 214.059 185.594 330.014 179.328 356.203C179.127 357.023 178.627 357.738 177.927 358.209C177.226 358.68 176.375 358.872 175.54 358.748V358.748Z" fill="#2F2E41"/>
<path d="M174.772 98.3057C173.623 93.4266 179.434 82.9281 178.285 78.0491C177.506 74.7448 169.738 76.991 167.926 74.1211C166.113 71.2512 163.076 68.9261 159.683 68.888C155.782 68.8442 151.944 71.7385 148.249 70.4876C144.513 69.2228 143.318 64.1052 144.97 60.5225C146.622 56.9398 150.18 54.6568 153.696 52.8679C159.682 49.8215 166.653 47.5969 173.06 49.6125C176.933 50.8308 180.172 53.4708 183.306 56.0529C186.163 58.4066 189.068 60.8137 191.065 63.9307C194.977 70.0368 194.741 78.2641 191.397 84.6995C188.054 91.135 181.962 95.8575 175.249 98.5989" fill="#2F2E41"/>
<path d="M126.424 211.849C128.549 208.298 131.775 191.659 135.754 163.732C138.463 144.667 140.824 125.296 141.995 115.4C142.086 114.6 142.378 113.835 142.846 113.178C143.313 112.522 143.939 111.995 144.666 111.646C145.426 111.279 146.181 110.932 146.932 110.605C156.63 106.385 166.458 104.988 176.142 106.449C185.811 107.935 194.88 112.068 202.346 118.392L202.434 118.476L202.456 118.594C202.499 118.814 206.566 140.736 198.235 155.547C190.019 170.16 189.924 208.86 189.924 209.249V209.747L189.445 209.611C176.664 205.957 127.292 212.348 126.794 212.414L126.025 212.514L126.424 211.849Z" fill="#4D4DFF"/>
<path d="M200.723 161.069H162.451C160.794 161.069 159.45 162.414 159.45 164.072C159.45 165.73 160.794 167.074 162.451 167.074H200.723C202.381 167.074 203.725 165.73 203.725 164.072C203.725 162.414 202.381 161.069 200.723 161.069Z" fill="#CCCCCC"/>
<path d="M200.723 226.373H162.451C160.794 226.373 159.45 227.717 159.45 229.376C159.45 231.034 160.794 232.378 162.451 232.378H200.723C202.381 232.378 203.725 231.034 203.725 229.376C203.725 227.717 202.381 226.373 200.723 226.373Z" fill="#CCCCCC"/>
<path d="M181.963 381C181.588 381 181.226 380.859 180.95 380.606C180.673 380.353 180.501 380.005 180.468 379.631L161.335 164.205C161.318 164.008 161.339 163.81 161.398 163.622C161.457 163.434 161.553 163.26 161.679 163.108C161.806 162.957 161.961 162.832 162.135 162.741C162.31 162.65 162.501 162.594 162.697 162.577C162.894 162.559 163.091 162.581 163.28 162.64C163.468 162.699 163.642 162.794 163.793 162.921C163.944 163.047 164.069 163.202 164.16 163.377C164.252 163.552 164.308 163.743 164.325 163.939L181.941 362.291L199.057 163.943C199.091 163.546 199.281 163.179 199.586 162.923C199.891 162.667 200.285 162.542 200.681 162.576C201.078 162.61 201.444 162.801 201.701 163.105C201.957 163.41 202.082 163.804 202.047 164.201L183.458 379.628C183.426 380.002 183.255 380.35 182.978 380.604C182.702 380.858 182.34 381 181.965 381H181.963Z" fill="#CCCCCC"/>
<path d="M169.605 227.324C169.382 226.306 169.384 225.252 169.611 224.235C169.839 223.218 170.287 222.263 170.923 221.438C171.56 220.613 172.369 219.937 173.295 219.459C174.221 218.981 175.24 218.711 176.281 218.67L192.196 200.701L202.079 212.644L183.777 226.018C183.731 227.772 183.043 229.448 181.844 230.729C180.645 232.01 179.018 232.806 177.271 232.967C175.524 233.128 173.779 232.643 172.366 231.603C170.953 230.562 169.971 229.04 169.605 227.324V227.324Z" fill="#FFB8B8"/>
<path d="M178.871 214.818L203.978 181.333L191.031 153.583L191.971 120.672L202.586 118.71L202.698 118.767C207.854 121.783 211.851 126.441 214.05 131.996C216.408 137.893 221.299 157.953 224.986 173.744C225.949 177.808 225.853 182.051 224.707 186.067C223.561 190.084 221.403 193.738 218.44 196.681L187.641 227.489L178.871 214.818Z" fill="#4D4DFF"/>
<path d="M73.6242 371.689L107.973 379.961C108.64 380.137 109.347 380.074 109.971 379.783C110.596 379.491 111.098 378.989 111.391 378.365L140.898 299.894C141.028 299.593 141.095 299.268 141.096 298.939C141.096 298.61 141.03 298.285 140.9 297.983C140.752 297.644 140.535 297.339 140.265 297.086C139.995 296.833 139.676 296.637 139.328 296.511L113.503 286.646C113.095 286.49 112.658 286.422 112.222 286.446C111.785 286.47 111.359 286.586 110.971 286.786C110.633 286.953 110.335 287.19 110.097 287.482C109.859 287.773 109.686 288.113 109.59 288.477L109.589 288.48L91.361 357.641L91.0903 357.658C90.9855 357.665 80.536 358.376 75.837 364.018C74.96 365.075 74.3108 366.302 73.93 367.622C73.5492 368.942 73.4451 370.327 73.6242 371.689V371.689Z" fill="#CCCCCC"/>
<path d="M372.21 380.249C372.21 380.348 372.191 380.446 372.153 380.537C372.116 380.628 372.061 380.711 371.991 380.781C371.921 380.851 371.838 380.906 371.747 380.944C371.656 380.981 371.558 381 371.459 381H0.750423C0.551398 381 0.360536 380.921 0.219805 380.78C0.0790731 380.639 0 380.448 0 380.249C0 380.05 0.0790731 379.859 0.219805 379.719C0.360536 379.578 0.551398 379.499 0.750423 379.499H371.459C371.558 379.498 371.656 379.518 371.747 379.555C371.838 379.593 371.921 379.648 371.991 379.718C372.061 379.788 372.116 379.871 372.153 379.962C372.191 380.053 372.21 380.151 372.21 380.249V380.249Z" fill="#3F3D56"/>
<path d="M98.5009 327.7L98.3428 329.193L129.659 332.51L129.817 331.017L98.5009 327.7Z" fill="#B3B3B3"/>
<path d="M95.7707 340.068L95.1548 341.437L120.356 352.779L120.972 351.409L95.7707 340.068Z" fill="#B3B3B3"/>
<path d="M133.113 320.502L103.409 310.661L104.025 309.292L133.729 319.133L133.113 320.502Z" fill="#B3B3B3"/>
<path d="M136.115 313.746L106.411 299.402L107.027 298.033L136.731 312.377L136.115 313.746Z" fill="#B3B3B3"/>
<path d="M93.151 351.822L92.1763 352.963L113.593 371.263L114.568 370.122L93.151 351.822Z" fill="#B3B3B3"/>
<path d="M87.0704 357.889L85.7036 358.509L94.3029 377.476L95.6697 376.856L87.0704 357.889Z" fill="#B3B3B3"/>
<path d="M288.418 358.785V16.651C288.418 12.031 288.505 7.40109 288.418 2.78161C288.414 2.57964 288.418 2.37726 288.418 2.17524C288.418 -0.722681 283.915 -0.727477 283.915 2.17524V344.309C283.915 348.929 283.827 353.559 283.915 358.179C283.919 358.381 283.915 358.583 283.915 358.785C283.915 361.683 288.418 361.688 288.418 358.785V358.785Z" fill="#F2F2F2"/>
<path d="M313.319 97.7989H259.288C257.995 97.7974 256.755 97.2829 255.841 96.3682C254.927 95.4535 254.412 94.2134 254.411 92.9199V27.241C254.412 25.9474 254.927 24.7073 255.841 23.7926C256.755 22.878 257.995 22.3635 259.288 22.362H313.319C314.612 22.3635 315.852 22.878 316.766 23.7926C317.681 24.7073 318.195 25.9474 318.197 27.241V92.9199C318.195 94.2134 317.681 95.4535 316.766 96.3682C315.852 97.2829 314.612 97.7974 313.319 97.7989V97.7989Z" fill="#F2F2F2"/>
</g>
<defs>
<clipPath id="clip0">
<rect width="382" height="381" fill="white"/>
</clipPath>
</defs>
</svg>
