<svg width="521" height="268" viewBox="0 0 521 268" fill="none" xmlns="http://www.w3.org/2000/svg">
<g clip-path="url(#clip0)">
<path d="M26.1559 250.396L48.5429 214.906L26.1456 254.263L26.1336 258.307C24.5364 258.288 22.9554 258.227 21.3905 258.123L23.2165 206.175L23.1925 205.773L23.2337 205.696L23.4075 200.788L0 161.891L23.4317 197.112L23.5018 198.151L24.8811 158.902L4.75813 118.658L25.0384 152.006L25.9818 70.6531L25.9861 70.3824L25.9893 70.6488L26.4486 134.79L45.6773 109.126L26.4316 140.314L26.3424 175.445L44.1838 141.515L26.3326 180.609L26.2832 200.144L52.1994 152.902L26.2628 206.958L26.1559 250.396Z" fill="#D0CDE1"/>
<path d="M340.384 100.596H334.09V145.235H340.384V100.596Z" fill="#3F3D56"/>
<path d="M107.493 5.59639L105.126 11.4221L338.03 105.855L340.397 100.03L107.493 5.59639Z" fill="#3F3D56"/>
<path d="M520.999 256.305C511.251 272.574 -0.514331 271.208 0.261134 256.304C10.0092 240.036 521.774 241.402 520.999 256.305Z" fill="#D0CDE1"/>
<path d="M456.819 190.504H402.063V211.88H456.819V190.504Z" fill="#3F3D56"/>
<path d="M451.784 209.365H181.78V233.257H451.784V209.365Z" fill="#3F3D56"/>
<path d="M407.413 221.311H342.586V139.891H391.049L407.413 180.955V221.311Z" fill="#D0CDE1"/>
<path d="M380.35 144.921H352.657V172.585H380.35V144.921Z" fill="white"/>
<path d="M401.119 172.899H383.496V145.236H391.049L401.119 172.899Z" fill="white"/>
<path d="M360.209 188.303H353.915V200.249H360.209V188.303Z" fill="#3F3D56"/>
<path d="M388.846 162.84H389.161C390.747 162.84 392.267 163.469 393.389 164.589C394.51 165.709 395.14 167.228 395.14 168.813V168.813C395.14 170.397 394.51 171.916 393.389 173.036C392.267 174.156 390.747 174.785 389.161 174.785H388.846V162.84Z" fill="#3F3D56"/>
<path d="M154.716 209.365H155.031C156.617 209.365 158.138 209.995 159.259 211.115C160.38 212.235 161.01 213.754 161.01 215.338V215.338C161.01 216.922 160.38 218.442 159.259 219.562C158.138 220.682 156.617 221.311 155.031 221.311H154.716V209.365Z" fill="#3F3D56"/>
<path d="M432.588 209.275C442.179 209.275 450.806 213.917 456.792 221.311H469.092L457.134 188.035L401.434 177.061L403.007 221.311H408.384C414.37 213.917 422.997 209.275 432.588 209.275Z" fill="#D0CDE1"/>
<path d="M433.217 256.52C448.338 256.52 460.596 244.275 460.596 229.17C460.596 214.065 448.338 201.821 433.217 201.821C418.097 201.821 405.839 214.065 405.839 229.17C405.839 244.275 418.097 256.52 433.217 256.52Z" fill="#3F3D56"/>
<path d="M433.217 243.565C441.175 243.565 447.627 237.12 447.627 229.17C447.627 221.22 441.175 214.776 433.217 214.776C425.259 214.776 418.808 221.22 418.808 229.17C418.808 237.12 425.259 243.565 433.217 243.565Z" fill="#D0CDE1"/>
<path d="M185.871 256.205C199.079 256.205 209.787 245.509 209.787 232.314C209.787 219.119 199.079 208.422 185.871 208.422C172.662 208.422 161.954 219.119 161.954 232.314C161.954 245.509 172.662 256.205 185.871 256.205Z" fill="#3F3D56"/>
<path d="M185.87 244.888C192.822 244.888 198.458 239.258 198.458 232.314C198.458 225.369 192.822 219.739 185.87 219.739C178.918 219.739 173.283 225.369 173.283 232.314C173.283 239.258 178.918 244.888 185.87 244.888Z" fill="#D0CDE1"/>
<path d="M344.474 128.574H331.257V223.826H344.474V128.574Z" fill="#3F3D56"/>
<path d="M344.474 206.536H154.401V212.195H344.474V206.536Z" fill="#3F3D56"/>
<path d="M259.971 170.967L52.6831 227.303L54.1701 232.763L261.458 176.427L259.971 170.967Z" fill="#3F3D56"/>
<path d="M245.822 177.831L242.271 180.437L264.078 210.079L267.628 207.473L245.822 177.831Z" fill="#3F3D56"/>
<path d="M392.622 174.157H386.329V176.672H392.622V174.157Z" fill="#3F3D56"/>
<path d="M337.237 193.018H254.788C254.637 193.018 254.49 192.964 254.376 192.865C254.262 192.766 254.187 192.63 254.165 192.48C254.143 192.331 254.176 192.178 254.258 192.051C254.339 191.924 254.464 191.83 254.609 191.787L335.17 167.896C335.26 167.869 335.354 167.863 335.447 167.877C335.54 167.892 335.628 167.927 335.705 167.98C335.782 168.033 335.847 168.103 335.894 168.184C335.941 168.265 335.969 168.355 335.976 168.449L337.864 192.34C337.871 192.427 337.86 192.514 337.832 192.596C337.803 192.678 337.758 192.753 337.699 192.816C337.64 192.88 337.569 192.931 337.489 192.966C337.41 193.001 337.324 193.018 337.237 193.018V193.018ZM259.119 191.761H336.556L334.783 169.322L259.119 191.761Z" fill="#3F3D56"/>
<path d="M113.97 165.355H113.964L95.8961 165.184C95.8079 165.184 95.7208 165.164 95.6406 165.128C95.5603 165.091 95.4887 165.038 95.4303 164.972C95.3719 164.906 95.328 164.829 95.3015 164.744C95.275 164.66 95.2665 164.572 95.2765 164.484L104.664 82.657C104.682 82.5036 104.756 82.3621 104.871 82.2594C104.986 82.1566 105.135 82.0998 105.29 82.0998H105.293C105.448 82.1005 105.597 82.1583 105.712 82.2622C105.827 82.366 105.899 82.5086 105.916 82.6625L114.596 164.66C114.605 164.747 114.596 164.836 114.569 164.92C114.541 165.004 114.497 165.081 114.438 165.146C114.379 165.212 114.307 165.264 114.226 165.3C114.145 165.336 114.058 165.355 113.97 165.355V165.355ZM96.6069 163.934L113.27 164.09L105.265 88.4697L96.6069 163.934Z" fill="#3F3D56"/>
<path d="M461.249 199.694L460.954 199.805C459.471 200.365 457.826 200.314 456.38 199.663C454.935 199.011 453.808 197.813 453.247 196.331V196.331C452.686 194.849 452.737 193.206 453.389 191.762C454.041 190.318 455.241 189.192 456.724 188.632L457.018 188.52L461.249 199.694Z" fill="#3F3D56"/>
<path d="M78.4119 203.36L60.8555 208.269L61.6355 211.053L79.1919 206.144L78.4119 203.36Z" fill="#3F3D56"/>
<path d="M205.543 168.563L202.154 170.411L64.4893 208.904L62.4455 206.368C58.904 202.028 56.6402 196.789 55.9071 191.238C55.3872 187.092 55.7675 182.723 58.6622 180.064L53.4048 137.706L129.541 116.314L165.652 131.836C165.652 131.836 179.485 127.708 189.664 134.993C192.886 137.301 195.743 140.753 197.675 145.847L199.34 150.65L205.543 168.563Z" fill="#4D4DFF"/>
<path d="M175.112 193.956C184.861 193.956 192.764 186.061 192.764 176.322C192.764 166.583 184.861 158.688 175.112 158.688C165.363 158.688 157.459 166.583 157.459 176.322C157.459 186.061 165.363 193.956 175.112 193.956Z" fill="#3F3D56"/>
<path d="M175.112 185.603C180.243 185.603 184.403 181.448 184.403 176.322C184.403 171.196 180.243 167.041 175.112 167.041C169.981 167.041 165.821 171.196 165.821 176.322C165.821 181.448 169.981 185.603 175.112 185.603Z" fill="#D0CDE1"/>
<path d="M91.2311 217.41C100.98 217.41 108.884 209.515 108.884 199.776C108.884 190.037 100.98 182.142 91.2311 182.142C81.4819 182.142 73.5786 190.037 73.5786 199.776C73.5786 209.515 81.4819 217.41 91.2311 217.41Z" fill="#3F3D56"/>
<path d="M91.2312 209.057C96.3623 209.057 100.522 204.902 100.522 199.776C100.522 194.65 96.3623 190.495 91.2312 190.495C86.1 190.495 81.9404 194.65 81.9404 199.776C81.9404 204.902 86.1 209.057 91.2312 209.057Z" fill="#D0CDE1"/>
<path d="M153.168 132.325L98.5477 147.598L93.9458 131.173L128.78 121.433L153.168 132.325Z" fill="white"/>
<path d="M87.2576 133.043L65.521 139.121L70.1231 155.545L91.8597 149.468L87.2576 133.043Z" fill="white"/>
<path d="M104.767 159.067L101.98 159.846L103.462 165.136L106.249 164.357L104.767 159.067Z" fill="#3F3D56"/>
<path d="M149.422 141.478L148.642 138.694L143.347 140.174L144.127 142.958L149.422 141.478Z" fill="#3F3D56"/>
<path d="M142.38 129.218L142.687 129.132C144.232 128.7 145.885 128.899 147.283 129.684C148.681 130.47 149.709 131.778 150.141 133.321C150.574 134.865 150.375 136.516 149.588 137.913C148.802 139.309 147.492 140.336 145.947 140.768L145.641 140.854L142.38 129.218Z" fill="#3F3D56"/>
<path d="M199.34 150.65C197.296 151.467 195.029 151.538 192.939 150.849C190.848 150.16 189.068 148.757 187.911 146.886C186.755 145.015 186.297 142.796 186.617 140.62C186.938 138.445 188.017 136.452 189.664 134.993C192.886 137.301 195.743 140.753 197.675 145.847L199.34 150.65Z" fill="#3F3D56"/>
<path d="M108.142 5.65852H101.848V97.4523H108.142V5.65852Z" fill="#3F3D56"/>
<path d="M104.995 17.6043C109.861 17.6043 113.806 13.6634 113.806 8.80215C113.806 3.94086 109.861 0 104.995 0C100.129 0 96.1836 3.94086 96.1836 8.80215C96.1836 13.6634 100.129 17.6043 104.995 17.6043Z" fill="#3F3D56"/>
<path d="M337.237 110.656C342.103 110.656 346.048 106.715 346.048 101.853C346.048 96.9921 342.103 93.0512 337.237 93.0512C332.37 93.0512 328.425 96.9921 328.425 101.853C328.425 106.715 332.37 110.656 337.237 110.656Z" fill="#3F3D56"/>
</g>
<defs>
<clipPath id="clip0">
<rect width="521" height="268" fill="white"/>
</clipPath>
</defs>
</svg>
