<svg width="386" height="282" viewBox="0 0 386 282" fill="none" xmlns="http://www.w3.org/2000/svg">
<g clip-path="url(#clip0)">
<path d="M215.454 277.535C292.163 277.535 354.348 215.407 354.348 138.768C354.348 62.1284 292.163 0 215.454 0C138.746 0 76.561 62.1284 76.561 138.768C76.561 215.407 138.746 277.535 215.454 277.535Z" fill="#F2F2F2"/>
<path d="M257.905 86.6837C277.853 86.6837 294.025 70.527 294.025 50.5967C294.025 30.6664 277.853 14.5097 257.905 14.5097C237.957 14.5097 221.785 30.6664 221.785 50.5967C221.785 70.527 237.957 86.6837 257.905 86.6837Z" fill="#FF6584"/>
<path d="M106.483 26.9661L107.471 47.5307C111.563 52.9843 115.979 59.2251 120.336 66.0267L120.958 34.6533L121.302 34.8725C116.261 31.2751 111.137 28.5227 106.14 26.7755L106.483 26.9661Z" fill="#4D4DFF"/>
<path d="M106.752 46.5753L105.796 26.655C100.183 24.7427 94.7381 24.1084 89.7607 24.9952C89.5017 25.0414 89.2472 25.0945 88.9932 25.1484C90.2579 26.5039 97.628 34.5098 106.752 46.5753Z" fill="#4D4DFF"/>
<path d="M152.067 71.1096L152.398 71.4254C151.038 68.8695 149.596 66.3846 148.072 63.9706L138.791 100.456L138.634 100.318C139.305 101.919 139.943 103.508 140.549 105.087L152.067 71.1096Z" fill="#4D4DFF"/>
<path d="M137.927 50.3667L138.269 50.6399C133.362 44.8313 127.784 39.6237 121.651 35.126L121.017 67.0972C125.072 73.4907 128.702 79.7882 131.908 85.9897L137.927 50.3667Z" fill="#4D4DFF"/>
<path d="M70.6016 60.3482C71.123 65.737 72.188 71.0593 73.7804 76.2342L129.126 81.9377C126.237 76.6145 123.254 71.6203 120.359 67.0686L70.7423 60.7829L70.6016 60.3482Z" fill="#4D4DFF"/>
<path d="M75.7945 82.2017L75.6454 81.7678L131.66 86.7423C130.984 85.4198 130.3 84.1149 129.608 82.8275L74.0576 77.103L73.9116 76.6684C74.4715 78.4925 75.0991 80.3369 75.7945 82.2017Z" fill="#4D4DFF"/>
<path d="M147.441 63.2098L147.778 63.5064C145.001 59.1426 141.932 54.971 138.593 51.02L132.492 87.1247C134.606 91.2721 136.522 95.3611 138.237 99.3917L147.441 63.2098Z" fill="#4D4DFF"/>
<path d="M146.257 123.521C148.483 133.146 149.327 142.246 148.77 150.722C151.902 144.053 163.815 116.429 159.362 90.6834L146.257 123.521Z" fill="#4D4DFF"/>
<path d="M86.0698 101.66C89.0338 105.649 92.2619 109.435 95.7325 112.992L95.5973 112.51L145.424 122.751C144.128 117.377 142.51 112.085 140.58 106.904L86.0698 101.66Z" fill="#4D4DFF"/>
<path d="M106.321 46.9112C96.4469 33.8598 88.6554 25.6107 88.5433 25.4926L88.6717 25.2176C81.1784 26.9173 75.8876 32.0109 72.9766 39.3836L106.321 46.9112Z" fill="#4D4DFF"/>
<path d="M141.009 106.312C141.193 106.803 141.38 107.295 141.558 107.784C143.269 112.468 144.724 117.241 145.916 122.083L158.896 89.5562L159.213 89.8739C158.392 85.3479 156.999 80.9441 155.069 76.7677C154.304 75.1302 153.502 73.5174 152.665 71.9292L141.009 106.312Z" fill="#4D4DFF"/>
<path d="M119.779 66.1616C115.466 59.4403 111.101 53.2745 107.055 47.8851L72.9454 40.1845L72.8297 39.7544C70.7003 45.357 69.9217 52.2398 70.5667 59.9272L119.779 66.1616Z" fill="#4D4DFF"/>
<path d="M145.626 123.606L96.1641 113.439C116.969 134.777 146.076 151.141 147.934 152.176C148.801 142.775 147.818 133.118 145.626 123.606Z" fill="#4D4DFF"/>
<path d="M140.23 106.028L140.241 105.996C137.862 99.7315 135.148 93.5996 132.11 87.627L75.957 82.6402C76.9104 85.1624 77.9879 87.7117 79.1894 90.288C80.9395 93.9583 83.0211 97.4616 85.4082 100.754L140.23 106.028Z" fill="#4D4DFF"/>
<path d="M211.658 96.2334L199.29 112.701C198.961 119.509 198.377 127.13 197.391 135.145L217.899 111.378L218.023 111.765C216.438 105.783 214.249 100.398 211.515 95.8679L211.658 96.2334Z" fill="#4D4DFF"/>
<path d="M199.346 111.507L211.327 95.555C208.225 90.506 204.436 86.5474 200.036 84.0587C199.808 83.9292 199.578 83.8079 199.348 83.6875C199.456 85.5375 200.022 96.4001 199.346 111.507Z" fill="#4D4DFF"/>
<path d="M218.584 159.279L218.638 159.733C219.222 156.898 219.698 154.065 220.065 151.235L189.625 173.422L189.592 173.216C189.087 174.876 188.564 176.507 188.022 178.109L218.584 159.279Z" fill="#4D4DFF"/>
<path d="M220.937 134.293L221.026 134.722C220.955 127.121 219.983 119.555 218.131 112.183L197.232 136.403C196.273 143.911 195.049 151.075 193.56 157.894L220.937 134.293Z" fill="#4D4DFF"/>
<path d="M162.711 99.0786C159.673 103.561 157.095 108.339 155.018 113.34L194.004 153.001C195.177 147.06 196.068 141.312 196.744 135.962L162.542 99.5031L162.711 99.0786Z" fill="#4D4DFF"/>
<path d="M152.759 119.219L152.921 118.79L192.888 158.316C193.211 156.866 193.517 155.425 193.806 153.992L154.677 114.185L154.842 113.757C154.108 115.519 153.414 117.339 152.759 119.219Z" fill="#4D4DFF"/>
<path d="M220.065 150.248L220.135 150.691C220.782 145.56 221.082 140.392 221.032 135.221L193.285 159.141C192.266 163.682 191.13 168.052 189.878 172.25L220.065 150.248Z" fill="#4D4DFF"/>
<path d="M180.651 195.944C176.221 204.775 171.061 212.322 165.222 218.495C171.891 215.355 198.701 201.67 211.707 179.004L180.651 195.944Z" fill="#4D4DFF"/>
<path d="M148.251 140.753C147.988 145.714 148.057 150.687 148.459 155.639L148.663 155.181L180.501 194.821C182.933 189.855 185.066 184.749 186.886 179.528L148.251 140.753Z" fill="#4D4DFF"/>
<path d="M198.801 111.492C199.527 95.1469 198.793 83.8286 198.782 83.6662L199.056 83.5362C192.2 80.0702 184.873 80.6219 177.924 84.4452L198.801 111.492Z" fill="#4D4DFF"/>
<path d="M187.596 179.346C187.424 179.841 187.254 180.339 187.079 180.829C185.407 185.527 183.48 190.13 181.307 194.619L212.069 177.839L212.11 178.286C214.367 174.276 216.106 169.997 217.285 165.551C217.741 163.801 218.153 162.049 218.522 160.292L187.596 179.346Z" fill="#4D4DFF"/>
<path d="M196.876 134.894C197.845 126.969 198.419 119.438 198.744 112.709L177.389 85.0421L177.574 84.6372C172.358 87.5954 167.364 92.4003 162.953 98.732L196.876 134.894Z" fill="#4D4DFF"/>
<path d="M180.111 195.607L148.506 156.258C150.908 185.95 162.879 217.101 163.649 219.082C170.319 212.394 175.726 204.33 180.111 195.607Z" fill="#4D4DFF"/>
<path d="M187.176 178.63L187.205 178.612C189.372 172.272 191.196 165.82 192.669 159.283L152.604 119.66C151.729 122.21 150.931 124.86 150.212 127.61C149.216 131.552 148.583 135.577 148.32 139.634L187.176 178.63Z" fill="#4D4DFF"/>
<path d="M88.3405 118.22L95.6417 137.472C101.221 141.395 107.351 145.967 113.599 151.089L104.485 121.06L104.879 121.163C98.9724 119.298 93.248 118.263 87.9551 118.144L88.3405 118.22Z" fill="#4D4DFF"/>
<path d="M94.6615 136.786L87.5893 118.136C81.6603 118.051 76.2854 119.129 71.8261 121.51C71.5941 121.633 71.3685 121.763 71.1436 121.892C72.7658 122.791 82.2518 128.129 94.6615 136.786Z" fill="#4D4DFF"/>
<path d="M145.347 146.125L145.76 146.323C143.676 144.312 141.536 142.394 139.34 140.569L141.802 178.134L141.609 178.051C142.743 179.366 143.842 180.681 144.906 181.995L145.347 146.125Z" fill="#4D4DFF"/>
<path d="M125.484 130.764L125.894 130.918C119.43 126.909 112.514 123.679 105.29 121.296L114.577 151.897C120.412 156.726 125.813 161.593 130.781 166.501L125.484 130.764Z" fill="#4D4DFF"/>
<path d="M64.543 161.048C66.706 166.012 69.3655 170.745 72.4809 175.174L126.881 163.507C122.486 159.336 118.105 155.508 113.943 152.073L64.8113 161.418L64.543 161.048Z" fill="#4D4DFF"/>
<path d="M76.2418 180.228L75.9658 179.861L130.777 167.294C129.724 166.245 128.67 165.215 127.613 164.205L73.0126 175.915L72.7393 175.547C73.836 177.109 75.0035 178.669 76.2418 180.228Z" fill="#4D4DFF"/>
<path d="M138.505 140.04L138.917 140.218C134.926 136.926 130.717 133.906 126.318 131.18L131.687 167.4C134.981 170.692 138.067 173.989 140.946 177.292L138.505 140.04Z" fill="#4D4DFF"/>
<path d="M156.038 197.764C161.132 206.23 164.75 214.624 166.843 222.856C167.759 215.547 170.541 185.597 158.341 162.487L156.038 197.764Z" fill="#4D4DFF"/>
<path d="M92.0342 195.56C96.087 198.438 100.328 201.042 104.73 203.353L104.452 202.936L155.007 197.289C152.112 192.578 148.936 188.045 145.497 183.714L92.0342 195.56Z" fill="#4D4DFF"/>
<path d="M94.3563 137.238C80.9275 127.875 70.9655 122.436 70.8223 122.358L70.8594 122.057C64.2588 125.988 60.803 132.466 60.3154 140.377L94.3563 137.238Z" fill="#4D4DFF"/>
<path d="M145.723 183.018C146.05 183.428 146.38 183.838 146.7 184.248C149.776 188.174 152.637 192.264 155.268 196.501L157.55 161.559L157.95 161.763C155.768 157.712 153.081 153.954 149.954 150.578C148.719 149.257 147.458 147.971 146.17 146.719L145.723 183.018Z" fill="#4D4DFF"/>
<path d="M113.111 151.39C106.93 146.33 100.871 141.814 95.3555 137.938L60.5335 141.148L60.2905 140.775C59.9987 146.76 61.3876 153.547 64.3793 160.658L113.111 151.39Z" fill="#4D4DFF"/>
<path d="M155.464 198.039L105.278 203.645C131.666 217.513 164.41 224.087 166.497 224.497C164.413 215.289 160.491 206.409 155.464 198.039Z" fill="#4D4DFF"/>
<path d="M144.893 182.989L144.894 182.955C140.694 177.731 136.215 172.738 131.478 167.996L76.5322 180.595C78.2192 182.699 80.0326 184.791 81.9724 186.87C84.7723 189.82 87.8357 192.509 91.1246 194.903L144.893 182.989Z" fill="#4D4DFF"/>
<path d="M386 235.868C386 252.511 300.309 282 194.603 282C88.8971 282 3.20557 252.511 3.20557 235.868C3.20557 219.225 88.8971 221.731 194.603 221.731C300.309 221.731 386 219.225 386 235.868Z" fill="#3F3D56"/>
<path opacity="0.1" d="M386 235.868C386 252.511 300.309 282 194.603 282C88.8971 282 3.20557 252.511 3.20557 235.868C3.20557 219.225 88.8971 221.731 194.603 221.731C300.309 221.731 386 219.225 386 235.868Z" fill="black"/>
<path d="M194.603 266.003C300.309 266.003 386 252.511 386 235.868C386 219.225 300.309 205.734 194.603 205.734C88.8971 205.734 3.20557 219.225 3.20557 235.868C3.20557 252.511 88.8971 266.003 194.603 266.003Z" fill="#3F3D56"/>
<path opacity="0.1" d="M227.786 204.371C227.786 222.503 202.489 216.895 171.516 216.895C140.543 216.895 115.622 222.503 115.622 204.371C115.622 186.239 140.915 182.296 171.888 182.296C202.861 182.296 227.786 186.239 227.786 204.371Z" fill="black"/>
<path d="M227.786 199.907C227.786 218.039 202.489 212.43 171.516 212.43C140.543 212.43 115.622 218.039 115.622 199.907C115.622 181.775 140.915 177.831 171.888 177.831C202.861 177.831 227.786 181.775 227.786 199.907Z" fill="#3F3D56"/>
<path d="M128.146 150.015C128.828 149.531 129.58 149.154 130.376 148.898C135.423 147.022 140.712 145.872 146.083 145.482C150.753 145.151 155.815 145.544 159.463 148.477C160.031 148.893 160.495 149.433 160.821 150.057C161.279 151.046 161.14 152.196 160.992 153.277C160.959 153.696 160.853 154.106 160.679 154.489C160.188 155.423 158.98 155.75 157.93 155.638C156.88 155.526 155.895 155.082 154.86 154.876C154.219 154.765 153.571 154.699 152.921 154.679L146.427 154.328C142.389 154.109 138.297 153.895 134.336 154.709C133.117 154.928 131.938 155.334 130.843 155.912C129.938 156.419 129.329 157.147 128.489 156.21C127.014 154.563 126.198 151.536 128.146 150.015Z" fill="#2F2E41"/>
<path d="M138.209 152.884C138.209 152.884 146.944 148.972 150.257 153.486C153.57 158 148.45 156.194 148.45 156.194L142.727 158L136.402 156.796L138.209 152.884Z" fill="#F2F2F2"/>
<path d="M138.661 150.026C138.661 150.026 139.866 155.743 138.962 157.248C138.059 158.752 144.083 160.859 144.083 160.859L149.805 158.451C149.805 158.451 148.299 149.123 149.805 147.317L138.661 150.026Z" fill="#FFB9B9"/>
<path opacity="0.1" d="M138.661 150.026C138.661 150.026 139.866 155.743 138.962 157.248C138.059 158.752 144.083 160.859 144.083 160.859L149.805 158.451C149.805 158.451 148.299 149.123 149.805 147.317L138.661 150.026Z" fill="black"/>
<path d="M133.017 218.775C133.827 220.453 134.493 222.196 135.007 223.986C135.016 224.045 135.037 224.102 135.069 224.153C135.1 224.203 135.143 224.246 135.192 224.279C135.242 224.312 135.298 224.335 135.357 224.344C135.416 224.354 135.477 224.352 135.535 224.337L140.892 224.331C141.553 224.33 142.44 224.118 142.433 223.457C142.428 222.993 141.954 222.704 141.6 222.402C140.62 221.566 140.364 220.188 139.958 218.965C139.169 216.61 137.647 214.569 135.615 213.138C135.341 212.923 135.025 212.767 134.687 212.68C134.347 212.63 134.001 212.649 133.669 212.735C132.729 212.924 129.217 213.573 129.88 214.94C130.166 215.528 131.224 216.141 131.668 216.69C132.186 217.339 132.637 218.037 133.017 218.775Z" fill="#575A89"/>
<path d="M151.647 212.567C151.458 212.964 151.248 213.35 151.017 213.724C150.241 215.003 149.325 216.196 148.602 217.505C148.115 218.306 147.814 219.205 147.722 220.137C147.681 220.603 147.752 221.072 147.93 221.505C148.108 221.938 148.388 222.322 148.745 222.624C149.522 223.214 150.589 223.241 151.555 223.104C152.522 222.966 153.483 222.69 154.456 222.763C154.128 220.907 155.695 219.273 156.086 217.43C156.196 216.912 156.213 216.375 156.36 215.867C156.519 215.402 156.722 214.954 156.967 214.527C157.747 213.01 158.298 211.385 158.603 209.706C158.64 209.503 153.84 209.469 153.39 209.567C151.985 209.87 152.191 211.403 151.647 212.567Z" fill="#575A89"/>
<path d="M114.657 183.412C113.287 185.554 113.603 188.393 114.565 190.746C115.527 193.1 117.059 195.18 118.107 197.496C118.775 198.973 119.244 200.539 119.996 201.974C120.928 203.752 122.288 205.319 122.914 207.226C123.312 208.442 123.404 209.774 124.049 210.879C124.44 211.469 124.885 212.022 125.38 212.528C126.77 214.12 127.815 215.983 128.446 218C129.036 216.243 130.803 215.092 132.618 214.712C134.433 214.332 136.313 214.59 138.149 214.849C137.125 213.264 136.091 211.659 135.481 209.873C134.89 208.146 134.716 206.309 134.318 204.528C133.502 200.876 131.76 197.507 130.035 194.185L138.901 193.483C140.348 193.337 141.803 193.283 143.257 193.321C145.546 193.429 147.788 193.989 150.064 194.248C152.34 194.508 154.748 194.44 156.777 193.376C152.898 198.937 150.878 205.58 151.005 212.357C151.872 211.686 152.878 211.217 153.95 210.984C155.022 210.752 156.132 210.762 157.2 211.014C158.267 211.265 159.265 211.752 160.12 212.439C160.974 213.125 161.664 213.994 162.14 214.982C165.614 210.238 165.201 203.634 167.954 198.439C168.521 197.371 169.214 196.376 169.825 195.332C170.98 193.237 171.968 191.055 172.782 188.805C173.552 186.837 174.328 184.647 173.589 182.667C173.282 181.916 172.836 181.23 172.273 180.645C170.684 178.895 168.473 177.601 166.109 177.547C162.48 177.464 159.483 180.152 156.299 181.894C152.499 183.912 148.201 184.803 143.911 184.461C139.539 184.152 135.363 182.722 131.197 181.463C129.113 180.803 126.995 180.257 124.852 179.827C123.065 179.492 121.364 179.863 119.603 180.32C117.687 180.817 115.76 181.688 114.657 183.412Z" fill="#2F2E41"/>
<path d="M152.516 144.308C152.514 146.702 151.561 148.997 149.867 150.689C148.173 152.382 145.876 153.334 143.48 153.336C142.942 153.337 142.404 153.288 141.875 153.191C140.184 152.886 138.615 152.106 137.352 150.941C136.089 149.777 135.185 148.277 134.745 146.617C134.306 144.957 134.349 143.207 134.87 141.571C135.391 139.935 136.368 138.481 137.687 137.38C139.006 136.279 140.611 135.577 142.315 135.356C144.019 135.134 145.751 135.403 147.308 136.13C148.864 136.857 150.181 138.013 151.103 139.462C152.026 140.91 152.516 142.591 152.516 144.308V144.308Z" fill="#FFB9B9"/>
<path d="M138.209 152.884C138.209 152.884 139.866 153.637 140.468 154.239C141.071 154.84 142.878 158.15 145.89 156.044C148.902 153.938 149.203 152.734 150.106 152.734C151.01 152.734 152.215 154.539 152.215 154.539L160.498 179.366C158.265 181.883 155.678 184.063 152.817 185.835C147.998 188.845 142.275 190.349 139.565 189.146C136.854 187.942 131.734 187.039 130.83 184.632C129.926 182.224 128.42 175.002 128.42 175.002L132.637 156.646L138.209 152.884Z" fill="#F2F2F2"/>
<path d="M137.046 177.993C137.703 176.576 137.799 174.972 137.854 173.411C137.943 171.865 137.902 170.315 137.732 168.776C137.465 166.763 136.809 164.824 136.394 162.836C136.031 161.093 135.854 159.315 135.867 157.535C135.874 156.722 135.932 155.867 136.376 155.185C136.685 154.71 137.168 154.342 137.362 153.809C137.74 152.764 136.804 151.669 135.779 151.239C134.529 150.771 133.163 150.716 131.88 151.083C130.607 151.45 129.378 151.952 128.212 152.582C127.331 152.957 126.52 153.48 125.816 154.129C124.881 155.096 124.47 156.442 124.138 157.745C123.872 158.787 123.636 159.874 123.838 160.931C124.166 162.647 125.567 163.938 126.313 165.518C127.18 167.352 127.121 169.49 126.777 171.49C126.432 173.489 125.82 175.444 125.631 177.464C125.443 179.484 125.732 181.655 126.999 183.241C127.515 183.887 128.915 185.418 129.86 185.245C130.603 185.109 131.679 183.476 132.277 182.959C134.005 181.464 136.054 180.134 137.046 177.993Z" fill="#2F2E41"/>
<path d="M152.827 151.903C152.853 153.581 152.113 155.177 151.242 156.612C150.371 158.048 149.348 159.405 148.706 160.956C147.909 162.898 147.746 165.042 148.241 167.082C148.425 167.777 148.647 168.461 148.906 169.132L150.556 173.654C150.778 174.365 151.1 175.041 151.513 175.662C151.886 176.137 152.324 176.558 152.813 176.912C154.067 177.923 155.509 178.675 157.057 179.123C158.615 179.569 160.278 179.474 161.775 178.854C161.934 172.724 162.92 166.642 164.706 160.775C165.036 159.691 165.397 158.551 165.142 157.448C164.857 156.212 163.864 155.284 162.919 154.437C160.031 151.845 156.854 149.123 152.988 148.774C150.751 148.572 152.808 150.69 152.827 151.903Z" fill="#2F2E41"/>
<path d="M133.061 186.89C133.29 187.338 133.433 187.825 133.659 188.275C133.993 188.877 134.407 189.433 134.888 189.926C136.902 192.157 139.364 194.379 142.368 194.514C142.666 194.542 142.967 194.504 143.249 194.403C143.503 194.273 143.722 194.083 143.885 193.85C144.049 193.616 144.152 193.346 144.187 193.063C144.4 191.898 143.886 190.735 143.37 189.668C142.253 187.356 140.995 184.985 138.903 183.494C137.859 182.779 136.666 182.309 135.413 182.121C134.161 181.933 132.882 182.031 131.673 182.407C130.583 182.742 128.777 183.328 130.219 184.321C131.314 185.075 132.426 185.649 133.061 186.89Z" fill="#FFB9B9"/>
<path d="M146.047 157.453C145.733 156.607 145.253 155.832 144.633 155.176C144.009 154.648 143.269 154.274 142.474 154.083C141.444 153.789 140.378 153.636 139.307 153.629C138.031 153.621 136.552 153.963 136.01 155.117C135.58 156.033 135.914 157.118 136.347 158.033C136.532 158.507 136.84 158.923 137.24 159.238C137.79 159.61 138.501 159.598 139.153 159.722C140.164 159.979 141.122 160.412 141.982 161.003L144.216 162.352L148.053 164.67C147.952 164.609 147.988 161.979 147.87 161.548C147.491 160.16 146.636 158.767 146.047 157.453Z" fill="#FFB9B9"/>
<path d="M134.868 223.305C133.97 224.524 134.15 226.267 133.354 227.555C132.665 228.672 131.366 229.257 130.503 230.247C130.228 230.575 129.983 230.928 129.77 231.3C128.97 232.639 128.32 234.355 129.108 235.701C129.742 236.784 131.074 237.207 132.296 237.495C133.84 237.86 135.445 238.152 137.007 237.873C138.569 237.594 140.095 236.639 140.652 235.154C140.762 234.781 140.892 234.414 141.042 234.055C141.889 232.39 144.545 232.372 145.411 230.717C146.018 229.558 145.46 228.158 144.903 226.975L143.201 223.363C142.636 222.164 140.347 222.854 139.153 222.567C137.597 222.192 135.988 221.779 134.868 223.305Z" fill="#2F2E41"/>
<path d="M148.031 220.202C147.334 220.75 146.802 221.479 146.491 222.309C145.649 224.251 145.36 226.379 145.079 228.476C144.919 229.31 144.902 230.166 145.03 231.005C145.393 232.718 146.947 233.979 148.619 234.503C150.291 235.027 152.084 234.946 153.834 234.86C154.399 234.875 154.96 234.761 155.474 234.528C156.354 234.043 156.697 232.904 156.546 231.912C156.396 230.92 155.853 230.037 155.322 229.185C154.791 228.334 154.248 227.451 154.096 226.459C153.84 224.791 154.562 222.341 153.536 220.832C152.508 219.319 149.403 219.241 148.031 220.202Z" fill="#2F2E41"/>
<path d="M152.289 139.603C152.128 139.063 151.774 138.602 151.294 138.306C151.319 137.728 151.248 137.149 151.084 136.594C150.537 134.978 149.24 135.07 148.017 134.356C147.487 134.046 147.519 133.772 147.243 133.263C146.881 132.595 146.339 132.042 145.678 131.667C144.894 131.168 144.065 130.653 143.137 130.59C141.186 130.457 139.69 132.291 137.826 132.879C137.004 133.138 136.121 133.149 135.295 133.394C134.468 133.639 133.644 134.225 133.521 135.077C133.464 135.47 133.565 135.874 133.507 136.267C133.392 137.049 132.706 137.597 132.246 138.24C131.23 139.662 131.346 141.67 132.159 143.218C132.33 143.538 132.526 143.844 132.745 144.134C132.813 144.865 133.023 145.576 133.364 146.227C134.176 147.774 135.575 148.93 137.036 149.891C136.916 149.378 136.844 148.855 136.819 148.328C136.798 148.153 136.821 147.975 136.886 147.811C137.048 147.471 137.478 147.381 137.806 147.194C138.485 146.809 138.751 145.956 138.771 145.176C138.79 144.396 138.625 143.615 138.707 142.839C138.71 142.661 138.75 142.485 138.826 142.323C138.901 142.161 139.01 142.017 139.144 141.9C139.395 141.757 139.681 141.689 139.969 141.703C141.36 141.647 142.813 141.621 144.04 140.964C144.436 140.701 144.861 140.486 145.308 140.323C146.35 140.052 147.416 140.782 148.017 141.676C148.618 142.569 148.918 143.633 149.472 144.556C150.026 145.479 150.984 146.302 152.056 146.193C152.117 146.193 152.176 146.18 152.232 146.156C152.287 146.131 152.336 146.096 152.376 146.051C152.423 145.968 152.443 145.873 152.435 145.778L152.495 141.684C152.545 140.984 152.475 140.28 152.289 139.603Z" fill="#2F2E41"/>
<path d="M123.693 161.019C122.831 162.289 121.837 163.511 121.363 164.971C121.084 165.83 120.998 166.737 120.796 167.617C120.124 170.546 118.184 173.148 117.989 176.147C117.921 176.813 118.019 177.486 118.274 178.106C118.831 179.315 120.163 179.953 121.434 180.354C122.704 180.755 124.069 181.044 125.083 181.908C125.594 182.397 126.057 182.933 126.466 183.509C128.121 185.566 130.347 187.087 132.865 187.883C132.666 186.514 132.573 184.864 133.668 184.017C134.261 183.559 135.054 183.478 135.801 183.413L139.33 183.109C136.976 180.828 134.382 178.809 131.594 177.087C130.618 176.485 129.556 175.85 129.11 174.794C128.88 174.113 128.784 173.395 128.829 172.678C128.804 170.056 128.582 167.439 128.164 164.85C127.873 163.053 127.489 161.271 127.049 159.504C126.925 159.008 126.195 156.783 125.297 157.304C125.085 157.426 124.887 158.838 124.763 159.131C124.469 159.793 124.111 160.426 123.693 161.019V161.019Z" fill="#2F2E41"/>
<path d="M164.339 156.216L165.78 159.211C166.475 160.442 166.791 161.851 166.689 163.26L166.775 172.243C166.841 173.443 166.741 174.647 166.479 175.82C166.389 176.206 166.22 176.57 165.982 176.888C165.737 177.162 165.449 177.393 165.13 177.574C162.402 179.276 158.865 180.244 155.983 178.817C155.323 178.466 154.696 178.057 154.108 177.594C152.96 176.745 151.794 175.878 150.935 174.737C150.036 173.543 149.521 172.114 148.916 170.747C147.83 168.295 146.427 165.996 144.743 163.909C144.464 163.633 144.283 163.274 144.226 162.886C144.208 162.099 145.143 161.711 145.872 161.411C147.118 160.9 148.292 159.912 148.501 158.583C151.149 162.053 154.072 165.719 158.251 166.987C158.317 167.029 158.392 167.052 158.47 167.055C158.548 167.057 158.625 167.038 158.693 167.001C158.761 166.963 158.817 166.907 158.856 166.84C158.895 166.773 158.916 166.697 158.915 166.619C159.152 165.627 159.236 164.606 159.409 163.601C159.728 161.771 160.34 160.005 161.224 158.372C161.719 157.456 163.322 154.103 164.339 156.216Z" fill="#2F2E41"/>
<path opacity="0.1" d="M128.577 164.876C128.616 167.002 128.164 169.108 127.256 171.031C127.02 171.456 126.845 171.912 126.739 172.386C126.581 173.398 127.157 174.377 127.816 175.162C129.115 176.705 130.8 177.876 132.7 178.557" fill="black"/>
<path opacity="0.1" d="M159.872 163.085C159.659 163.655 159.852 164.286 160.016 164.872C160.49 166.573 160.711 168.334 160.673 170.099C160.68 170.13 160.679 170.162 160.67 170.192C160.661 170.223 160.645 170.251 160.623 170.273C160.601 170.296 160.574 170.313 160.544 170.322C160.513 170.331 160.481 170.333 160.45 170.327C159.755 170.37 158.959 170.374 158.487 169.862" fill="black"/>
<path opacity="0.1" d="M278.013 248.145C303.925 248.145 324.932 243.648 324.932 238.1C324.932 232.553 303.925 228.056 278.013 228.056C252.101 228.056 231.095 232.553 231.095 238.1C231.095 243.648 252.101 248.145 278.013 248.145Z" fill="black"/>
<path d="M301.472 148.441L298.121 151.789L301.472 155.137L304.824 148.441H301.472Z" fill="#A0616A"/>
<path d="M302.227 119.407C303.168 119.792 303.615 120.843 303.969 121.795L308.317 133.466L309.163 135.738C309.578 136.852 309.993 137.966 310.344 139.102C310.566 139.821 310.762 140.547 310.932 141.28C311.108 141.907 311.176 142.56 311.132 143.21C311.015 143.926 310.753 144.61 310.364 145.221C308.851 147.853 306.697 150.06 304.102 151.638C303.953 150.673 303.563 149.761 302.97 148.985C302.376 148.209 301.597 147.594 300.704 147.197L302.952 145.962C303.428 145.739 303.855 145.426 304.212 145.04C304.429 144.739 304.584 144.398 304.667 144.036C304.75 143.674 304.758 143.299 304.693 142.933C304.558 142.204 304.334 141.494 304.025 140.82C303.271 138.939 302.617 137.02 302.065 135.07C301.738 133.917 301.438 132.732 300.791 131.723C300.204 130.807 299.354 130.075 298.821 129.128C298.008 127.683 298.029 125.905 298.388 124.288C298.691 122.922 299.199 121.607 299.626 120.278C299.962 119.233 301.22 118.996 302.227 119.407Z" fill="#D0CDE1"/>
<path d="M281.5 88.225C279.771 88.8083 278.205 90.1725 277.851 91.9607C277.687 92.7897 277.788 93.6514 277.65 94.485C277.33 96.4185 275.81 97.895 274.409 99.2666C273.008 100.638 271.561 102.232 271.459 104.189C271.347 106.332 272.903 108.339 272.634 110.469C272.321 112.942 269.706 114.545 269.06 116.953C268.628 118.561 269.157 120.293 270.027 121.713C271.685 124.418 274.52 126.255 277.538 127.239C280.557 128.224 283.772 128.431 286.947 128.464C290.813 128.505 295.01 128.173 297.915 125.624C299.574 124.155 300.616 122.113 300.832 119.909C301.108 116.956 299.875 113.905 300.725 111.063C301.261 109.275 302.604 107.642 302.403 105.786C302.208 103.972 300.621 102.686 299.533 101.22C298.517 99.8513 297.901 98.2351 297.297 96.6417L295.229 91.1897C294.823 90.118 294.377 88.9908 293.471 88.2873C291.775 86.9705 289.049 87.2292 287.066 87.5008C285.227 87.7528 283.269 87.6282 281.5 88.225Z" fill="#2F2E41"/>
<path d="M283.099 106.192C283.099 106.192 283.302 112.257 282.695 112.864C282.087 113.47 285.123 117.514 285.123 117.514L290.586 117.312L293.419 115.088L290.991 111.853C290.991 111.853 289.979 106.597 290.789 105.384C291.598 104.171 283.099 106.192 283.099 106.192Z" fill="#A0616A"/>
<path opacity="0.1" d="M283.099 106.192C283.099 106.192 283.302 112.257 282.695 112.864C282.087 113.47 285.123 117.514 285.123 117.514L290.586 117.312L293.419 115.088L290.991 111.853C290.991 111.853 289.979 106.597 290.789 105.384C291.598 104.171 283.099 106.192 283.099 106.192Z" fill="black"/>
<path d="M270.452 152.994L273.892 160.676L276.523 157.442L271.262 150.568L270.452 152.994Z" fill="#A0616A"/>
<path d="M261.246 229.919L259.829 237.803L257.401 241.24L258.817 242.049L261.246 241.644L264.079 240.633L265.292 235.984L267.518 229.919H261.246Z" fill="#A0616A"/>
<path d="M287.146 225.066L286.337 236.388L288.36 238.005L291.598 235.175V226.886L287.146 225.066Z" fill="#A0616A"/>
<path d="M286.438 108.517C290.461 108.517 293.723 105.259 293.723 101.239C293.723 97.2198 290.461 93.9613 286.438 93.9613C282.415 93.9613 279.153 97.2198 279.153 101.239C279.153 105.259 282.415 108.517 286.438 108.517Z" fill="#A0616A"/>
<path d="M292.059 111.028C291.841 110.923 291.603 110.867 291.361 110.862C291.118 110.857 290.878 110.905 290.656 111.001C290.214 111.197 289.785 111.42 289.371 111.67C288.308 112.223 287.103 112.442 285.913 112.299C285.773 112.288 285.636 112.253 285.509 112.195C285.374 112.111 285.249 112.01 285.138 111.896C284.707 111.546 284.156 111.377 283.603 111.424C283.049 111.472 282.535 111.733 282.17 112.152C281.956 112.418 281.81 112.736 281.576 112.985C280.972 113.631 279.974 113.658 279.088 113.656C277.253 113.605 275.418 113.773 273.622 114.157C271.819 114.545 270.157 115.425 268.822 116.698C268.458 117.04 268.168 117.453 267.97 117.912C267.726 118.541 267.758 119.248 267.538 119.886C267.294 120.596 266.753 121.18 266.533 121.898C266.368 122.44 266.391 123.042 266.115 123.536C267.298 124.559 268.3 125.923 269.482 126.945C270.265 127.622 271.085 128.355 271.379 129.347C271.511 129.958 271.57 130.584 271.554 131.209C271.701 134.199 273.324 136.912 275.139 139.294C275.637 140.001 276.233 140.633 276.908 141.172C277.826 141.796 278.868 142.214 279.962 142.397C282.03 142.82 284.157 142.818 286.267 142.797C288.448 142.775 290.667 142.729 292.74 142.052C293.795 141.758 294.744 141.169 295.475 140.355C296.328 139.309 296.66 137.795 297.824 137.11C298.105 136.981 298.372 136.822 298.619 136.635C298.856 136.378 299.024 136.066 299.106 135.726C299.513 134.457 299.738 133.136 299.772 131.803C299.742 131.003 299.797 130.202 299.934 129.414C300.136 128.719 300.429 128.054 300.806 127.437L303.216 123.069C303.412 122.714 303.361 122.192 303.379 121.787C303.361 121.203 303.182 120.636 302.861 120.147C301.297 117.387 298.841 115.239 295.896 114.056C295.663 113.977 295.442 113.869 295.238 113.734C294.997 113.531 294.793 113.289 294.635 113.016C293.996 112.053 293.215 110.968 292.059 111.028Z" fill="#D0CDE1"/>
<path d="M262.018 134.815C261.543 135.969 261.194 137.172 260.977 138.401C260.744 140.1 261.019 141.83 261.765 143.373C263.064 146.045 265.621 147.856 267.426 150.216C269.103 152.409 270.102 155.037 271.554 157.384C271.301 156.787 271.609 156.095 272.023 155.595C272.438 155.096 272.967 154.681 273.271 154.108C273.478 153.664 273.608 153.188 273.656 152.7C273.872 151.245 273.99 149.663 273.247 148.393C272.688 147.436 271.722 146.801 270.957 145.999C270.193 145.183 269.631 144.199 269.317 143.126C269.003 142.053 268.945 140.921 269.149 139.822C269.296 139.065 269.567 138.339 269.77 137.595C270.021 136.596 270.211 135.582 270.339 134.559L271.25 128.306C271.492 126.643 271.697 124.803 270.754 123.411C270.571 123.119 270.316 122.879 270.015 122.712C269.765 122.598 269.5 122.523 269.228 122.49C268.236 122.328 266.893 121.894 266.409 122.956C265.824 124.237 265.417 125.634 264.928 126.955L262.018 134.815Z" fill="#D0CDE1"/>
<path d="M296.747 138.236C296.747 138.236 284.718 140.561 281.885 140.561H276.826C276.826 140.561 275.005 143.796 275.005 147.03C275.005 150.265 263.067 195.55 263.067 195.55C263.067 195.55 251.735 232.749 264.281 232.951C276.826 233.153 284.718 233.76 284.92 229.514C285.123 225.269 286.337 170.482 286.337 170.482L288.226 198.653C288.733 205.627 288.191 212.638 286.617 219.452C285.711 223.271 285.852 227.459 290.384 228.301C299.085 229.919 310.012 228.504 310.012 225.471C310.012 222.439 304.346 155.117 304.346 155.117C304.346 155.117 301.513 145.211 299.894 144.402C298.275 143.593 296.747 138.236 296.747 138.236Z" fill="#2F2E41"/>
<path d="M259.019 240.836L263.471 239.218L266.506 231.536L269.744 231.132C269.744 231.132 267.923 234.973 266.911 235.579C265.899 236.186 264.28 241.24 264.28 241.24C264.28 241.24 265.09 243.262 261.245 244.07C257.401 244.879 254.568 245.486 254.568 245.486C254.568 245.486 254.163 244.677 255.984 242.655C257.805 240.634 259.932 237.23 259.932 237.23L259.019 240.836Z" fill="#2F2E41"/>
<path d="M286.337 231.536L285.527 237.601C285.527 237.601 287.753 240.836 288.36 240.836C288.967 240.836 292.205 238.005 292.205 238.005C292.205 238.005 292.003 234.973 292.205 234.164C292.407 233.355 292.812 229.514 292.205 229.312C291.598 229.11 291.598 233.818 291.598 233.818L288.967 236.59L286.431 235.071L286.337 231.536Z" fill="#2F2E41"/>
<path d="M287.045 101.239C291.403 101.239 294.937 99.3385 294.937 96.9938C294.937 94.6491 291.403 92.7483 287.045 92.7483C282.687 92.7483 279.153 94.6491 279.153 96.9938C279.153 99.3385 282.687 101.239 287.045 101.239Z" fill="#2F2E41"/>
<path d="M0 180.309C0 204.125 14.9544 223.396 33.4353 223.396Z" fill="#3F3D56"/>
<path d="M33.4351 223.396C33.4351 199.313 50.1233 179.824 70.7469 179.824Z" fill="#4D4DFF"/>
<path d="M12.1143 182.468C12.1143 205.09 21.6504 223.396 33.4353 223.396Z" fill="#4D4DFF"/>
<path d="M33.4351 223.396C33.4351 192.623 52.7241 167.721 76.5617 167.721Z" fill="#3F3D56"/>
<path d="M26.4014 223.7C26.4014 223.7 31.143 223.554 32.5721 222.537C34.0011 221.521 39.8659 220.307 40.2205 221.937C40.575 223.568 47.3463 230.047 41.993 230.09C36.6397 230.133 29.5542 229.257 28.128 228.389C26.7017 227.521 26.4014 223.7 26.4014 223.7Z" fill="#A8A8A8"/>
<path opacity="0.2" d="M42.0885 229.522C36.7352 229.565 29.6498 228.689 28.2235 227.821C27.1373 227.16 26.7045 224.788 26.5597 223.694C26.4594 223.698 26.4014 223.7 26.4014 223.7C26.4014 223.7 26.7017 227.521 28.128 228.389C29.5542 229.257 36.6397 230.133 41.993 230.09C43.5383 230.077 44.072 229.528 44.0427 228.714C43.8281 229.206 43.2387 229.513 42.0885 229.522Z" fill="black"/>
</g>
<defs>
<clipPath id="clip0">
<rect width="386" height="282" fill="white"/>
</clipPath>
</defs>
</svg>
