<svg width="482" height="365" viewBox="0 0 482 365" fill="none" xmlns="http://www.w3.org/2000/svg">
<g clip-path="url(#clip0)">
<path d="M482 291.186L328.968 351.751L295.486 365L223.062 339.692L161.254 318.095L156.12 316.302L148.597 297.197L118.683 221.247L103.668 183.118L99.1522 171.657L95.8867 163.362L88.6083 144.882L76.8232 114.962L102.564 104.777L127.149 95.0462L144.82 88.0536L367.313 0L482 291.186Z" fill="#F2F2F2"/>
<path d="M11.0954 194.55C12.9537 194.147 14.8957 194.5 16.4943 195.532C18.0928 196.564 19.2168 198.191 19.6192 200.053C20.0215 201.916 19.6691 203.863 18.6395 205.465C17.61 207.068 15.9876 208.194 14.1293 208.598C10.2595 209.437 0 204.311 0 204.311C0 204.311 7.22559 195.39 11.0954 194.55Z" fill="#4D4DFF"/>
<path d="M12.8081 342.094C14.0247 340.629 15.772 339.709 17.6655 339.535C19.559 339.362 21.4436 339.95 22.9048 341.169C24.366 342.389 25.2841 344.14 25.457 346.038C25.63 347.936 25.0436 349.826 23.827 351.29C21.2936 354.34 10.0605 356.633 10.0605 356.633C10.0605 356.633 10.2746 345.144 12.8081 342.094Z" fill="#4D4DFF"/>
<path d="M323.729 108.119C312.18 88.5574 289.331 87.6458 289.331 87.6458C289.331 87.6458 267.066 84.7917 252.783 114.584C239.47 142.353 221.096 169.164 249.825 175.664L255.014 159.475L258.228 176.87C262.318 177.165 266.421 177.235 270.52 177.08C301.285 176.085 330.585 177.372 329.642 166.305C328.388 151.594 334.842 126.941 323.729 108.119Z" fill="#2F2E41"/>
<path d="M276.325 149.059C280.304 157.883 282.814 168.401 284.312 180.085L316.262 178.083C308.917 167.649 306.478 155.674 309.273 142.053L276.325 149.059Z" fill="#FFB8B8"/>
<path opacity="0.2" d="M276.325 149.059C280.304 157.883 282.814 168.401 284.312 180.085L316.262 178.083C308.917 167.649 306.478 155.674 309.273 142.053L276.325 149.059Z" fill="black"/>
<path d="M128.087 317.066C128.087 317.066 111.551 325.944 119.942 333.525C128.333 341.105 139.417 323.491 139.417 323.491L128.087 317.066Z" fill="#FFB8B8"/>
<path d="M330.24 291.177L329.982 303.307L329.43 329.515L328.968 351.751L295.485 365L223.062 339.692L227.827 313.171L231.675 291.757L233.392 282.169L320.257 270.159L330.24 291.177Z" fill="#2F2E41"/>
<path d="M330.24 291.176L329.981 303.306C299.249 302.516 251.613 295.08 231.675 291.757L233.392 282.169L320.256 270.159L330.24 291.176Z" fill="#3F3D56"/>
<path d="M291.801 157.566C305.586 157.566 316.762 146.364 316.762 132.545C316.762 118.727 305.586 107.525 291.801 107.525C278.015 107.525 266.84 118.727 266.84 132.545C266.84 146.364 278.015 157.566 291.801 157.566Z" fill="#FFB8B8"/>
<path d="M339.725 304.688C339.725 304.688 342.721 331.71 324.749 329.708L321.754 302.686L305.779 286.673L260.849 285.672L227.901 316.698C227.901 316.698 226.902 284.671 230.896 281.669C234.89 278.666 243.876 271.66 243.876 271.66V266.656L216.918 211.611C216.918 211.611 232.893 178.583 245.873 177.583L262.846 176.582C262.846 176.582 268.837 173.579 268.837 172.578C268.837 171.578 267.838 163.571 272.83 165.573C272.83 165.573 273.279 155.304 278.541 158.437C278.541 158.437 295.105 171.447 311.919 159.007C311.919 159.007 319.757 157.566 318.758 161.569C317.76 165.573 318.758 168.575 320.755 168.575C322.752 168.575 331.738 171.578 331.738 173.579C331.738 174.01 332.387 178.153 333.405 184.388V184.398C337.109 207.127 345.716 257.649 345.716 257.649C345.716 257.649 354.702 270.659 339.725 304.688Z" fill="#4D4DFF"/>
<path d="M223.907 206.607L216.918 211.611L153.019 293.678L119.072 320.701C119.072 320.701 138.042 317.698 134.048 333.712L250.865 266.656L223.907 206.607Z" fill="#4D4DFF"/>
<path d="M333.405 184.388V184.398C332.077 192.225 288.805 190.593 282.815 190.593C276.824 190.593 271.832 189.592 265.841 185.589C259.851 181.586 262.846 176.582 262.846 176.582C262.846 176.582 267.947 172.687 267.947 171.687C267.947 170.686 266.948 162.679 271.941 164.681C271.941 164.681 272.39 154.412 277.652 157.545C277.652 157.545 295.105 171.448 311.919 159.007C311.919 159.007 319.757 157.566 318.758 161.569C317.76 165.573 318.758 168.575 320.755 168.575C322.752 168.575 331.738 171.578 331.738 173.579C331.738 174.01 332.387 178.153 333.405 184.388Z" fill="#3F3D56"/>
<path d="M328.243 147.057C328.243 147.057 320.256 130.043 312.269 138.05C304.281 146.057 321.254 158.066 321.254 158.066L328.243 147.057Z" fill="#FFB8B8"/>
<path d="M328.244 143.054C328.244 143.054 315.91 158.679 312.092 159.874C312.092 159.874 323.251 204.104 337.23 216.114L345.217 257.148C345.217 257.148 379.164 243.137 371.176 220.118C371.096 219.888 371.017 219.659 370.938 219.431C364.269 200.261 355.064 182.075 343.571 165.357L328.244 143.054Z" fill="#4D4DFF"/>
<path opacity="0.2" d="M321.652 189.395L346.215 257.148L337.229 216.114L321.652 189.395Z" fill="black"/>
<path d="M318.623 106.233L296.049 94.3804L264.876 99.2292L258.426 127.784L274.481 127.165L278.967 116.674V126.992L286.375 126.706L290.674 110.004L293.362 127.784L319.698 127.245L318.623 106.233Z" fill="#2F2E41"/>
<path d="M124.967 329.317C109.449 320.646 99.7892 308.807 96.2544 294.131C93.6298 283.233 94.3841 270.971 98.4958 257.684C101.544 247.887 106.114 238.634 112.038 230.265C143.464 185.675 146.3 156.621 143.146 140.099C139.687 121.983 128.451 114.459 128.337 114.385L128.822 113.637C128.938 113.713 140.471 121.412 144.013 139.895C146.055 150.551 145.094 162.702 141.158 176.009C136.259 192.571 126.706 210.998 112.765 230.779C106.895 239.072 102.366 248.241 99.3456 257.948C92.6019 279.74 91.6478 309.677 125.4 328.539L124.967 329.317Z" fill="#2F2E41"/>
<path d="M96.6256 246.753C84.3921 239.917 84.7327 229.084 87.1726 221.199C88.2544 217.722 89.8766 214.437 91.9793 211.466C102.989 195.845 103.984 185.698 102.88 179.935C101.681 173.678 97.8341 171.11 97.7954 171.084L98.2803 170.337C98.4512 170.448 102.484 173.141 103.753 179.767C105.407 188.396 101.69 199.234 92.7061 211.981C90.6572 214.875 89.0766 218.075 88.0224 221.463C85.68 229.033 85.3464 239.429 97.0588 245.974L96.6256 246.753Z" fill="#2F2E41"/>
<path d="M151.666 147.751L151.233 146.972C162.945 140.427 162.611 130.031 160.269 122.462C159.215 119.074 157.634 115.873 155.585 112.979C146.601 100.232 142.885 89.3939 144.538 80.7655C145.808 74.1392 149.84 71.446 150.011 71.3347L150.497 72.0821C150.458 72.1078 146.592 74.7103 145.405 80.9689C144.313 86.7278 145.319 96.8667 156.312 112.464C158.415 115.435 160.037 118.72 161.119 122.197C163.559 130.082 163.899 140.915 151.666 147.751Z" fill="#2F2E41"/>
<path d="M177.785 103.378C176.828 104.85 175.591 106.118 174.144 107.111C172.697 108.104 171.07 108.801 169.354 109.163C167.639 109.525 165.869 109.545 164.146 109.221C162.423 108.898 160.78 108.237 159.312 107.277C157.844 106.316 156.578 105.076 155.589 103.625C154.599 102.175 153.904 100.543 153.543 98.8233C153.183 97.1035 153.164 95.3294 153.487 93.6023C153.811 91.8751 154.471 90.2288 155.429 88.7574C159.457 82.5691 179.734 75.8988 179.734 75.8988C179.734 75.8988 181.813 97.1894 177.785 103.378Z" fill="#4D4DFF"/>
<path d="M172.891 61.9039C171.934 63.3761 170.697 64.6448 169.25 65.6375C167.803 66.6302 166.176 67.3275 164.46 67.6896C162.745 68.0516 160.975 68.0714 159.252 67.7476C157.529 67.4239 155.886 66.7631 154.418 65.8029C152.949 64.8427 151.684 63.6019 150.694 62.1514C149.705 60.701 149.01 59.0693 148.649 57.3495C148.289 55.6298 148.27 53.8557 148.593 52.1285C148.917 50.4014 149.577 48.7551 150.535 47.2837C154.563 41.0954 174.84 34.425 174.84 34.425C174.84 34.425 176.919 55.7157 172.891 61.9039Z" fill="#4D4DFF"/>
<path d="M151.38 213.848C148.249 213.853 145.209 212.79 142.76 210.833C140.312 208.877 138.601 206.143 137.908 203.082C137.215 200.021 137.582 196.815 138.949 193.991C140.315 191.167 142.6 188.893 145.427 187.543C152.145 184.334 172.294 189.032 173.149 189.233L173.689 189.361L173.447 189.862C173.065 190.654 164.008 209.297 157.289 212.505C155.444 213.389 153.425 213.848 151.38 213.848V213.848ZM152.502 187.318C149.769 187.318 147.374 187.601 145.81 188.348C142.72 189.824 140.342 192.468 139.198 195.701C138.054 198.934 138.239 202.489 139.71 205.586C141.182 208.683 143.82 211.067 147.045 212.213C150.27 213.36 153.817 213.175 156.907 211.7C162.751 208.909 170.88 193.025 172.398 189.977C169.969 189.437 159.974 187.318 152.502 187.318V187.318Z" fill="#2F2E41"/>
<path d="M124.181 91.1027C125.476 92.2865 126.526 93.7143 127.271 95.3048C128.016 96.8953 128.44 98.6172 128.521 100.372C128.602 102.127 128.337 103.881 127.742 105.533C127.146 107.186 126.232 108.705 125.051 110.003C123.87 111.301 122.446 112.353 120.859 113.1C119.272 113.846 117.554 114.272 115.804 114.353C114.053 114.434 112.303 114.169 110.655 113.572C109.006 112.975 107.491 112.058 106.196 110.875C100.749 105.896 97.4365 84.7631 97.4365 84.7631C97.4365 84.7631 118.734 86.1243 124.181 91.1027Z" fill="#4D4DFF"/>
<path d="M93.0392 147.293C95.6549 149.684 97.216 153.018 97.3791 156.562C97.5422 160.107 96.2939 163.571 93.9089 166.193C91.5239 168.815 88.1976 170.38 84.6616 170.543C81.1256 170.707 77.6696 169.456 75.054 167.065C69.6072 162.086 66.2944 140.953 66.2944 140.953C66.2944 140.953 87.5924 142.315 93.0392 147.293Z" fill="#4D4DFF"/>
<path d="M127.946 155.173C123.491 155.173 114.973 150.945 114.582 150.75L114.085 150.501L114.435 150.069C114.735 149.7 121.805 141.017 125.782 140.154C127.756 139.726 129.818 140.101 131.516 141.197C133.214 142.293 134.408 144.02 134.835 145.999C135.262 147.977 134.888 150.045 133.794 151.746C132.701 153.448 130.978 154.645 129.004 155.073C128.656 155.144 128.301 155.177 127.946 155.173V155.173ZM115.486 150.197C117.584 151.201 125.619 154.896 128.816 154.201C130.558 153.822 132.078 152.765 133.043 151.262C134.008 149.76 134.338 147.935 133.961 146.188C133.583 144.442 132.53 142.917 131.032 141.949C129.533 140.981 127.713 140.649 125.97 141.026C122.772 141.72 116.982 148.414 115.486 150.197Z" fill="#2F2E41"/>
<path d="M80.1688 336.617C81.106 334.959 82.6613 333.743 84.4929 333.235C86.3245 332.727 88.2824 332.968 89.9364 333.906C91.5903 334.845 92.805 336.403 93.3134 338.238C93.8218 340.074 93.5824 342.037 92.6477 343.695C90.6976 347.149 80.0528 351.414 80.0528 351.414C80.0528 351.414 78.2188 340.071 80.1688 336.617Z" fill="#4D4DFF"/>
<path d="M56.8826 260.097C53.8119 260.048 50.7484 259.783 47.7146 259.305L47.1665 259.216L47.3729 258.699C47.549 258.257 51.7297 247.862 55.2718 245.854C56.1422 245.361 57.101 245.044 58.0935 244.923C59.0859 244.801 60.0926 244.876 61.056 245.144C62.0195 245.412 62.9208 245.868 63.7085 246.485C64.4962 247.103 65.155 247.869 65.6471 248.742C66.1392 249.614 66.455 250.575 66.5766 251.57C66.6982 252.565 66.6231 253.574 66.3556 254.54C66.0881 255.506 65.6334 256.409 65.0176 257.199C64.4018 257.988 63.6369 258.649 62.7665 259.142C61.4939 259.863 59.253 260.097 56.8826 260.097ZM48.4141 258.508C50.7145 258.842 59.4809 259.979 62.3285 258.366C63.881 257.486 65.0213 256.024 65.4984 254.302C65.9756 252.579 65.7506 250.737 64.8728 249.181C63.9951 247.625 62.5367 246.482 60.8182 246.003C59.0998 245.525 57.2622 245.751 55.7097 246.63V246.63C52.8625 248.244 49.3145 256.36 48.4141 258.508Z" fill="#2F2E41"/>
</g>
<defs>
<clipPath id="clip0">
<rect width="482" height="365" fill="white"/>
</clipPath>
</defs>
</svg>
