<svg width="390" height="330" viewBox="0 0 390 330" fill="none" xmlns="http://www.w3.org/2000/svg">
<g clip-path="url(#clip0)">
<path d="M299.494 306.137H122.889C121.794 306.136 120.744 305.7 119.97 304.925C119.196 304.15 118.761 303.099 118.759 302.003V181.267C118.761 180.171 119.196 179.12 119.97 178.345C120.744 177.57 121.794 177.134 122.889 177.133H299.494C300.589 177.134 301.638 177.57 302.413 178.345C303.187 179.12 303.622 180.171 303.624 181.267V302.003C303.622 303.099 303.187 304.15 302.413 304.925C301.638 305.7 300.589 306.136 299.494 306.137Z" fill="white"/>
<path d="M299.494 306.137H122.889C121.794 306.136 120.744 305.7 119.97 304.925C119.196 304.15 118.761 303.099 118.759 302.003V181.267C118.761 180.171 119.196 179.12 119.97 178.345C120.744 177.57 121.794 177.134 122.889 177.133H299.494C300.589 177.134 301.638 177.57 302.413 178.345C303.187 179.12 303.622 180.171 303.624 181.267V302.003C303.622 303.099 303.187 304.15 302.413 304.925C301.638 305.7 300.589 306.136 299.494 306.137ZM122.889 178.052C122.037 178.053 121.221 178.392 120.619 178.995C120.017 179.597 119.678 180.415 119.677 181.267V302.003C119.678 302.855 120.017 303.673 120.619 304.276C121.221 304.878 122.037 305.217 122.889 305.218H299.494C300.345 305.217 301.162 304.878 301.764 304.276C302.366 303.673 302.705 302.855 302.706 302.003V181.267C302.705 180.415 302.366 179.597 301.764 178.995C301.162 178.392 300.345 178.053 299.494 178.052H122.889Z" fill="#3F3D56"/>
<path d="M231.635 305.411H190.748V237.643C190.75 236.036 191.388 234.495 192.524 233.358C193.659 232.222 195.198 231.582 196.803 231.581H225.579C227.185 231.582 228.724 232.222 229.859 233.358C230.994 234.495 231.633 236.036 231.635 237.643V305.411Z" fill="#E6E6E6"/>
<path d="M289.862 151.397H266.513V112.329C266.514 111.233 266.949 110.182 267.724 109.407C268.498 108.632 269.547 108.196 270.642 108.195H285.733C286.827 108.196 287.877 108.632 288.651 109.407C289.425 110.182 289.861 111.233 289.862 112.329V151.397Z" fill="white"/>
<path d="M289.862 151.397H266.513V112.329C266.514 111.233 266.949 110.182 267.724 109.407C268.498 108.632 269.547 108.196 270.642 108.195H285.733C286.827 108.196 287.877 108.632 288.651 109.407C289.425 110.182 289.861 111.233 289.862 112.329V151.397ZM267.43 150.478H288.945V112.329C288.944 111.477 288.605 110.659 288.003 110.057C287.401 109.454 286.584 109.115 285.733 109.114H270.642C269.791 109.115 268.974 109.454 268.372 110.057C267.77 110.659 267.431 111.477 267.43 112.329V150.478Z" fill="#3F3D56"/>
<path d="M158.218 167.848C183.05 167.848 203.181 147.694 203.181 122.832C203.181 97.9711 183.05 77.8169 158.218 77.8169C133.386 77.8169 113.255 97.9711 113.255 122.832C113.255 147.694 133.386 167.848 158.218 167.848Z" fill="#F2F2F2"/>
<path d="M278.888 101.346C274.838 101.218 271.234 97.5209 271.205 93.4649C271.176 89.4088 274.727 85.6601 278.775 85.4748C287.786 85.0621 295.164 75.3801 293.181 66.5695C291.198 57.759 280.385 52.1809 272.068 55.6777C265.688 58.3601 259.24 49.9083 260.858 43.172C262.475 36.4357 268.594 31.9122 274.256 27.9289C279.918 23.9455 285.974 19.2686 287.341 12.477C288.707 5.68528 281.712 -2.45039 275.547 0.697836" fill="#E6E6E6"/>
<path d="M173.479 251.266H138.942C137.564 251.264 136.243 250.716 135.269 249.74C134.295 248.765 133.747 247.443 133.746 246.063V217.557C133.747 216.178 134.295 214.855 135.269 213.88C136.243 212.905 137.564 212.356 138.942 212.355H173.479C174.857 212.356 176.177 212.905 177.151 213.88C178.125 214.855 178.673 216.178 178.675 217.557V246.063C178.673 247.443 178.126 248.765 177.151 249.74C176.177 250.715 174.857 251.264 173.479 251.266V251.266Z" fill="#E6E6E6"/>
<path d="M284.24 251.266H249.703C248.325 251.264 247.005 250.716 246.03 249.74C245.056 248.765 244.508 247.443 244.507 246.063V217.557C244.508 216.178 245.056 214.855 246.031 213.88C247.005 212.905 248.325 212.356 249.703 212.355H284.24C285.618 212.356 286.939 212.905 287.913 213.88C288.887 214.855 289.435 216.178 289.436 217.557V246.063C289.435 247.443 288.887 248.765 287.913 249.74C286.939 250.716 285.618 251.264 284.24 251.266V251.266Z" fill="#E6E6E6"/>
<path d="M105.574 179.616V161.04C105.574 159.613 105.95 158.211 106.666 156.977C107.381 155.743 108.41 154.72 109.647 154.012L212.738 95.021C214.017 94.2888 215.472 93.9207 216.946 93.9565C218.419 93.9923 219.855 94.4306 221.098 95.2242L313.071 153.956C314.217 154.688 315.16 155.696 315.813 156.889C316.467 158.082 316.809 159.421 316.809 160.781V179.616C316.809 181.763 315.957 183.822 314.441 185.34C312.924 186.858 310.868 187.711 308.723 187.711H113.659C111.515 187.711 109.458 186.858 107.942 185.34C106.426 183.822 105.574 181.763 105.574 179.616V179.616Z" fill="#4D4DFF"/>
<path opacity="0.2" d="M308.724 179.441H113.659C111.515 179.441 109.458 178.588 107.942 177.07C106.426 175.552 105.574 173.493 105.574 171.346V178.696C105.574 180.843 106.426 182.902 107.942 184.42C109.458 185.938 111.515 186.791 113.659 186.791H308.724C310.868 186.791 312.925 185.938 314.441 184.42C315.957 182.902 316.809 180.843 316.809 178.696V171.346C316.809 173.493 315.957 175.552 314.441 177.07C312.925 178.588 310.868 179.441 308.724 179.441V179.441Z" fill="black"/>
<path d="M324.562 243.008C324.562 228.763 336.096 194.96 350.324 194.96C364.553 194.96 376.087 228.763 376.087 243.008C376.087 249.849 373.373 256.409 368.541 261.246C363.71 266.084 357.157 268.801 350.324 268.801C343.492 268.801 336.939 266.084 332.107 261.246C327.276 256.409 324.562 249.849 324.562 243.008V243.008Z" fill="#F2F2F2"/>
<path d="M350.324 305.589C350.202 305.589 350.086 305.541 350 305.454C349.914 305.368 349.865 305.251 349.865 305.13V212.513C349.865 212.391 349.914 212.275 350 212.188C350.086 212.102 350.202 212.054 350.324 212.054C350.446 212.054 350.562 212.102 350.649 212.188C350.735 212.275 350.783 212.391 350.783 212.513V305.13C350.783 305.251 350.735 305.368 350.649 305.454C350.562 305.541 350.446 305.589 350.324 305.589V305.589Z" fill="#3F3D56"/>
<path d="M350.324 253.585C350.234 253.585 350.146 253.558 350.071 253.509C349.996 253.459 349.938 253.389 349.902 253.306C349.867 253.223 349.857 253.132 349.873 253.044C349.888 252.955 349.93 252.873 349.992 252.808L363.088 239.049C363.13 239.005 363.18 238.97 363.235 238.946C363.29 238.922 363.349 238.908 363.409 238.907C363.47 238.905 363.53 238.916 363.586 238.937C363.642 238.959 363.693 238.992 363.737 239.033C363.781 239.075 363.816 239.125 363.84 239.18C363.864 239.235 363.878 239.295 363.879 239.355C363.881 239.415 363.87 239.475 363.848 239.532C363.827 239.588 363.794 239.639 363.753 239.683L350.656 253.442C350.613 253.487 350.562 253.523 350.505 253.548C350.448 253.572 350.386 253.585 350.324 253.585V253.585Z" fill="#3F3D56"/>
<path d="M350.324 230.387C350.21 230.387 350.099 230.344 350.015 230.266L338.697 219.906C338.652 219.866 338.616 219.817 338.59 219.762C338.565 219.707 338.55 219.648 338.547 219.588C338.545 219.527 338.554 219.467 338.574 219.41C338.595 219.353 338.626 219.301 338.667 219.257C338.708 219.212 338.757 219.176 338.812 219.15C338.866 219.125 338.926 219.11 338.986 219.108C339.046 219.105 339.106 219.114 339.163 219.135C339.22 219.156 339.272 219.188 339.316 219.229L350.634 229.588C350.702 229.651 350.75 229.733 350.771 229.823C350.792 229.913 350.786 230.007 350.752 230.094C350.719 230.18 350.66 230.254 350.583 230.307C350.507 230.359 350.417 230.387 350.324 230.387V230.387Z" fill="#3F3D56"/>
<path d="M10.1074 214.665C10.1074 193.71 27.075 143.984 48.0056 143.984C68.9362 143.984 85.9038 193.71 85.9038 214.665C85.9038 224.728 81.9109 234.379 74.8037 241.495C67.6964 248.61 58.0568 252.608 48.0056 252.608C37.9544 252.608 28.3148 248.61 21.2075 241.495C14.1003 234.379 10.1074 224.728 10.1074 214.665V214.665Z" fill="#4D4DFF"/>
<path d="M48.0057 306.508C47.884 306.508 47.7673 306.459 47.6813 306.373C47.5952 306.287 47.5469 306.17 47.5469 306.048V169.806C47.5469 169.684 47.5952 169.567 47.6813 169.481C47.7673 169.395 47.884 169.346 48.0057 169.346C48.1274 169.346 48.2441 169.395 48.3302 169.481C48.4162 169.567 48.4646 169.684 48.4646 169.806V306.048C48.4645 306.17 48.4162 306.287 48.3302 306.373C48.2441 306.459 48.1274 306.508 48.0057 306.508V306.508Z" fill="#3F3D56"/>
<path d="M48.0052 230.007C47.9154 230.007 47.8276 229.981 47.7526 229.931C47.6776 229.882 47.6188 229.811 47.5834 229.728C47.5481 229.646 47.5377 229.555 47.5537 229.466C47.5696 229.378 47.6112 229.296 47.6731 229.231L66.9383 208.99C67.0223 208.902 67.1378 208.851 67.2595 208.848C67.3811 208.845 67.499 208.891 67.5871 208.975C67.6752 209.059 67.7263 209.174 67.7293 209.296C67.7322 209.418 67.6867 209.536 67.6027 209.624L48.3374 229.865C48.2946 229.91 48.2431 229.945 48.186 229.97C48.1288 229.994 48.0674 230.007 48.0052 230.007V230.007Z" fill="#3F3D56"/>
<path d="M48.0057 195.882C47.8911 195.882 47.7807 195.84 47.6962 195.762L31.0472 180.522C30.9574 180.44 30.9038 180.325 30.8984 180.203C30.893 180.082 30.936 179.963 31.0182 179.873C31.1003 179.783 31.2147 179.729 31.3363 179.724C31.4579 179.718 31.5766 179.762 31.6664 179.844L48.3155 195.084C48.3837 195.146 48.4315 195.228 48.4526 195.318C48.4737 195.408 48.467 195.503 48.4335 195.589C48.4 195.676 48.3413 195.75 48.2649 195.802C48.1886 195.854 48.0982 195.882 48.0057 195.882H48.0057Z" fill="#3F3D56"/>
<path d="M332.328 305.544C332.371 305.577 332.417 305.607 332.461 305.64H369.77C370.501 302.675 370.759 299.706 369.667 297.128C368.111 293.455 363.506 291.162 359.846 292.739C358.978 293.123 358.223 293.722 357.65 294.478C356.22 291.915 353.654 289.982 350.692 289.984C346.981 289.986 343.895 293.025 342.888 296.534C341.267 293.794 338.064 291.879 334.934 292.703C329.698 294.081 328.045 302.229 332.328 305.544Z" fill="#E6E6E6"/>
<path d="M11.8109 306.364C11.8985 306.432 11.9911 306.493 12.0798 306.559H87.3952C88.871 300.573 89.3921 294.58 87.1877 289.376C84.0469 281.96 74.7517 277.331 67.3619 280.516C65.611 281.29 64.0858 282.499 62.9298 284.026C60.0419 278.851 54.8616 274.949 48.8821 274.953C41.3907 274.958 35.1621 281.092 33.1294 288.177C29.8563 282.645 23.3911 278.78 17.0717 280.442C6.50244 283.224 3.16396 299.673 11.8109 306.364Z" fill="#E6E6E6"/>
<path d="M389.998 305.221L0 305.96L0.00173636 306.878L390 306.14L389.998 305.221Z" fill="#3F3D56"/>
<path d="M131.602 286.524C131.695 286.161 131.708 285.782 131.639 285.414C131.57 285.045 131.421 284.696 131.202 284.392C130.984 284.087 130.702 283.834 130.375 283.651C130.049 283.467 129.686 283.358 129.313 283.33L114.741 265.09L111.136 268.455L126.529 285.878C126.523 286.509 126.749 287.12 127.164 287.595C127.579 288.071 128.153 288.377 128.779 288.457C129.404 288.537 130.037 288.384 130.557 288.028C131.078 287.672 131.45 287.137 131.602 286.524V286.524Z" fill="#FFB8B8"/>
<path d="M117.536 267.988L112.931 271.519C112.8 271.619 112.649 271.69 112.488 271.727C112.327 271.763 112.16 271.765 111.999 271.731C111.837 271.698 111.685 271.629 111.552 271.531C111.419 271.433 111.309 271.308 111.229 271.163L108.423 266.101C107.914 265.427 107.692 264.578 107.807 263.74C107.922 262.903 108.363 262.145 109.035 261.633C109.707 261.121 110.554 260.897 111.391 261.009C112.228 261.122 112.986 261.561 113.499 262.233L117.637 266.25C117.756 266.365 117.848 266.504 117.908 266.658C117.968 266.812 117.994 266.977 117.984 267.142C117.975 267.307 117.93 267.468 117.852 267.614C117.775 267.76 117.667 267.887 117.536 267.988H117.536Z" fill="#3F3D56"/>
<path d="M109.803 256.977C113.037 256.977 115.659 254.352 115.659 251.114C115.659 247.876 113.037 245.251 109.803 245.251C106.569 245.251 103.947 247.876 103.947 251.114C103.947 254.352 106.569 256.977 109.803 256.977Z" fill="#FFB8B8"/>
<path d="M122.303 327.163H125.226L124.947 321.686H120.633L122.303 327.163Z" fill="#FFB8B8"/>
<path d="M121.557 326.208L127.314 326.208H127.314C127.796 326.208 128.273 326.303 128.718 326.487C129.163 326.672 129.567 326.942 129.908 327.283C130.248 327.624 130.519 328.029 130.703 328.475C130.887 328.92 130.982 329.398 130.982 329.88V330L121.557 330L121.557 326.208Z" fill="#2F2E41"/>
<path d="M91.1377 323.02L93.6246 324.558L96.263 319.751L93.2539 317.867L91.1377 323.02Z" fill="#FFB8B8"/>
<path d="M91.0052 321.815L95.9026 324.843L95.9028 324.844C96.3127 325.097 96.6687 325.429 96.9505 325.82C97.2322 326.211 97.4343 326.654 97.5451 327.124C97.6558 327.593 97.6732 328.08 97.5961 328.556C97.519 329.032 97.349 329.488 97.0958 329.898L97.0332 330L89.0146 325.041L91.0052 321.815Z" fill="#2F2E41"/>
<path d="M122.092 325.557C121.875 325.557 121.662 325.491 121.484 325.367C121.305 325.243 121.168 325.068 121.091 324.865L110.518 299.556C110.495 299.494 110.456 299.44 110.404 299.399C110.353 299.358 110.291 299.332 110.225 299.324C110.16 299.316 110.094 299.326 110.034 299.354C109.974 299.381 109.923 299.424 109.886 299.479L95.3604 322.388C95.2183 322.601 95.0044 322.756 94.7577 322.825C94.511 322.894 94.2478 322.871 94.016 322.762L92.0285 321.834C91.7739 321.713 91.5764 321.498 91.4783 321.234C91.3801 320.97 91.3891 320.678 91.5033 320.421L103.404 293.863C103.144 293.23 100.609 286.731 104.503 283.52L104.531 283.503L115.09 278.788L115.357 286.897L125.882 323.459C125.921 323.596 125.933 323.74 125.916 323.883C125.899 324.025 125.854 324.162 125.784 324.287C125.713 324.411 125.618 324.52 125.505 324.608C125.392 324.695 125.262 324.759 125.124 324.795L122.367 325.521C122.277 325.545 122.185 325.557 122.092 325.557V325.557Z" fill="#2F2E41"/>
<path d="M115.25 266.925C114.847 265.309 114.277 263.68 113.514 262.929C113.233 262.654 112.969 262.363 112.723 262.057C112.21 261.409 111.563 260.879 110.828 260.502C111.097 260.352 111.255 260.173 111.255 259.981C111.255 259.453 110.08 259.026 108.632 259.026C107.183 259.026 106.009 259.453 106.009 259.981C106.013 260.042 106.028 260.102 106.055 260.157C106.082 260.212 106.119 260.262 106.165 260.302C105.219 260.688 104.397 261.327 103.789 262.148C103.181 262.97 102.809 263.943 102.715 264.961C102.376 268.593 102.277 273.236 103.464 276.172C104.46 278.601 104.539 281.309 103.687 283.791C103.629 283.964 103.622 284.15 103.667 284.327C103.711 284.504 103.805 284.664 103.938 284.789C104.071 284.914 104.236 284.998 104.415 285.031C104.594 285.065 104.779 285.046 104.948 284.978L115.426 280.75C115.602 280.679 115.753 280.557 115.86 280.399C115.966 280.241 116.023 280.055 116.023 279.865V273.444C116.031 271.248 115.772 269.058 115.25 266.925Z" fill="#3F3D56"/>
<path d="M95.2018 293.368C95.5665 293.284 95.9082 293.12 96.2029 292.888C96.4975 292.657 96.738 292.364 96.9072 292.03C97.0764 291.695 97.1703 291.328 97.1823 290.953C97.1944 290.578 97.1242 290.205 96.9767 289.861L105.175 268.216L101.017 267.141L93.4346 288.563C92.8728 288.85 92.4354 289.332 92.2054 289.92C91.9754 290.508 91.9686 291.159 92.1864 291.752C92.4043 292.344 92.8315 292.836 93.3873 293.134C93.943 293.432 94.5886 293.515 95.2018 293.368L95.2018 293.368Z" fill="#FFB8B8"/>
<path d="M105.141 272.323L99.8876 269.861C99.7382 269.791 99.6055 269.69 99.4988 269.564C99.392 269.438 99.3136 269.29 99.2689 269.131C99.2243 268.972 99.2144 268.805 99.2399 268.642C99.2654 268.479 99.3258 268.323 99.4169 268.185L102.61 263.358C102.973 262.595 103.622 262.008 104.417 261.724C105.212 261.44 106.086 261.483 106.849 261.844C107.612 262.204 108.202 262.852 108.488 263.647C108.775 264.441 108.736 265.317 108.379 266.082L106.728 271.611C106.681 271.77 106.6 271.916 106.491 272.04C106.382 272.164 106.248 272.264 106.097 272.331C105.947 272.399 105.783 272.433 105.618 272.432C105.453 272.43 105.29 272.393 105.141 272.323V272.323Z" fill="#3F3D56"/>
<path d="M115.182 249.671C115.446 249.702 115.713 249.654 115.95 249.532C116.382 249.249 116.339 248.606 116.193 248.11C115.829 246.922 115.172 245.844 114.282 244.978C113.392 244.111 112.299 243.482 111.102 243.15C110.269 242.928 109.214 242.937 108.737 243.656C107.538 242.857 106.093 242.514 104.664 242.69C103.235 242.866 101.916 243.548 100.946 244.614C99.9983 245.728 99.3666 247.075 99.1167 248.516C98.6164 250.97 96.4734 256.033 97.6605 258.239C98.4504 259.706 102.086 258.563 103.623 259.202C104.389 259.535 105.226 259.675 106.058 259.607C106.891 259.54 107.694 259.268 108.396 258.816C109.084 258.341 109.6 257.657 109.87 256.866C110.14 256.074 110.148 255.217 109.894 254.42C109.625 253.835 109.314 253.269 108.965 252.728C108.614 252.18 108.471 251.524 108.562 250.879C108.777 249.899 113.399 249.634 115.182 249.671Z" fill="#2F2E41"/>
</g>
<defs>
<clipPath id="clip0">
<rect width="390" height="330" fill="white"/>
</clipPath>
</defs>
</svg>
