<svg width="463" height="229" viewBox="0 0 463 229" fill="none" xmlns="http://www.w3.org/2000/svg">
<g clip-path="url(#clip0)">
<path d="M51.2672 227.874L50.4727 227.684C59.3319 185.973 81.5959 148.095 113.163 121.028C137.03 100.596 165.415 86.9311 195.646 81.3198C225.877 75.7085 256.96 78.3353 285.968 88.953C314.975 99.5706 340.953 117.83 361.456 142.011C381.958 166.192 396.311 195.5 403.161 227.175L402.368 227.366C383.614 140.189 311.448 79.3032 226.872 79.3032C143.404 79.3032 69.5516 141.786 51.2672 227.874Z" fill="#3F3D56"/>
<path d="M428.183 208.018L429.405 217.503L420.854 218.365L422.075 206.725L428.183 208.018Z" fill="#A0616A"/>
<path d="M387.869 77.8181C387.869 77.8181 388.684 89.4585 388.684 89.8896C388.684 90.3207 382.983 120.068 382.983 120.068C382.983 120.068 374.839 136.451 382.983 136.02C391.127 135.589 388.684 120.5 388.684 120.5L397.235 95.4942L393.57 77.8181H387.869Z" fill="#A0616A"/>
<path d="M401.308 208.018L400.086 217.503L408.637 218.365L407.416 206.725L401.308 208.018Z" fill="#A0616A"/>
<path d="M391.941 119.206L389.905 122.224C389.905 122.224 388.684 135.158 389.905 139.469C391.127 143.78 393.57 163.612 393.57 164.905C393.57 166.199 393.977 167.061 393.57 167.492C393.163 167.923 391.941 167.923 392.756 168.786C393.57 169.648 393.57 172.235 393.57 172.235V174.39L398.864 206.293C398.864 206.293 395.606 210.174 398.049 210.174C400.493 210.174 409.451 210.174 409.044 205.862L408.23 205.431C408.23 205.431 407.008 176.977 407.415 175.684C407.823 174.39 407.415 171.803 407.415 171.803C407.415 171.803 406.601 170.51 407.415 170.079C408.23 169.648 408.23 166.199 408.23 166.199L411.895 139.9C411.895 139.9 415.152 157.576 417.188 159.301C419.225 161.025 418.817 165.337 418.817 165.337L420.446 203.276C420.446 203.276 418.817 207.587 420.446 208.449C422.075 209.311 428.998 212.329 429.405 208.018C429.812 203.707 431.848 166.199 431.848 164.474C431.848 162.75 431.441 161.888 431.848 160.594C432.255 159.301 431.441 159.301 431.848 159.301C432.255 159.301 431.034 158.007 431.034 157.145V136.02C431.034 136.02 431.441 131.709 431.848 130.847C432.255 129.984 431.441 129.122 431.848 127.829C432.255 126.535 431.034 122.224 431.034 122.224L412.709 117.05L391.941 119.206Z" fill="#2F2E41"/>
<path d="M406.194 215.778C406.194 215.778 408.23 213.623 405.38 213.623C403.55 213.662 401.747 214.102 400.086 214.916L398.05 222.676C398.05 222.676 389.702 229.79 399.068 228.928C408.434 228.065 407.009 228.712 407.009 228.712C407.009 228.712 409.859 227.85 410.266 226.987C410.674 226.125 409.452 213.623 409.452 213.623C409.452 213.623 408.23 217.072 406.194 215.778Z" fill="#2F2E41"/>
<path d="M423.704 215.778C423.704 215.778 421.668 213.623 424.518 213.623C426.348 213.662 428.151 214.102 429.812 214.916L431.848 222.676C431.848 222.676 440.196 229.79 430.83 228.928C421.464 228.065 421.668 228.712 421.668 228.712C421.668 228.712 418.817 227.85 418.41 226.987C418.003 226.125 420.446 213.623 420.446 213.623C420.446 213.623 421.668 217.072 423.704 215.778Z" fill="#2F2E41"/>
<path d="M120.145 76.4953H116.52V228.102H120.145V76.4953Z" fill="#3F3D56"/>
<path d="M153.602 95.8158C153.833 148.829 118.604 191.977 118.604 191.977C118.604 191.977 83.0014 149.175 82.7707 96.1615C82.5399 43.1484 117.769 -1.52588e-05 117.769 -1.52588e-05C117.769 -1.52588e-05 153.371 42.8028 153.602 95.8158Z" fill="#4D4DFF"/>
<path d="M372.395 165.337H91.8262V228.281H372.395V165.337Z" fill="#F2F2F2"/>
<path d="M82.8677 172.235L113.409 104.548H357.329L380.132 172.235H82.8677Z" fill="#3F3D56"/>
<path d="M272.221 108.859H159.016V148.523H272.221V108.859Z" fill="#F2F2F2"/>
<path d="M166.346 76.5247L148.429 116.188H282.809L272.221 76.5247H166.346Z" fill="#3F3D56"/>
<path d="M258.376 177.839H168.993V228.281H258.376V177.839Z" fill="#CCCCCC"/>
<path d="M150.465 179.564H102.821V228.281H150.465V179.564Z" fill="#CCCCCC"/>
<path d="M298.486 182.582H273.85V228.281H298.486V182.582Z" fill="#3F3D56"/>
<path d="M463 228.065H0V228.928H463V228.065Z" fill="#3F3D56"/>
<path d="M75.6516 128.07H73.2593V228.114H75.6516V128.07Z" fill="#3F3D56"/>
<path d="M97.7298 140.819C97.8821 175.802 74.6349 204.275 74.6349 204.275C74.6349 204.275 51.1408 176.03 50.9885 141.047C50.8363 106.064 74.0834 77.5909 74.0834 77.5909C74.0834 77.5909 97.5775 105.836 97.7298 140.819Z" fill="#4D4DFF"/>
<path opacity="0.1" d="M97.7298 140.819C97.8821 175.802 74.6349 204.275 74.6349 204.275C74.6349 204.275 51.1408 176.03 50.9885 141.047C50.8363 106.064 74.0834 77.5909 74.0834 77.5909C74.0834 77.5909 97.5775 105.836 97.7298 140.819Z" fill="black"/>
<path d="M44.5519 128.07H42.1597V228.114H44.5519V128.07Z" fill="#3F3D56"/>
<path d="M66.6302 140.819C66.7825 175.802 43.5353 204.275 43.5353 204.275C43.5353 204.275 20.0412 176.03 19.8889 141.047C19.7367 106.064 42.9838 77.5909 42.9838 77.5909C42.9838 77.5909 66.4779 105.836 66.6302 140.819Z" fill="#4D4DFF"/>
<path d="M337.172 185.168H325.159V197.024H337.172V185.168Z" fill="#3F3D56"/>
<path d="M353.257 185.168H341.244V197.024H353.257V185.168Z" fill="#3F3D56"/>
<path d="M337.172 201.335H325.159V213.623H337.172V201.335Z" fill="#3F3D56"/>
<path d="M353.257 201.335H341.244V213.623H353.257V201.335Z" fill="#3F3D56"/>
<path d="M178.802 119.712H169.4V128.991H178.802V119.712Z" fill="#3F3D56"/>
<path d="M191.39 119.712H181.988V128.991H191.39V119.712Z" fill="#3F3D56"/>
<path d="M178.802 132.365H169.4V141.981H178.802V132.365Z" fill="#3F3D56"/>
<path d="M191.39 132.365H181.988V141.981H191.39V132.365Z" fill="#3F3D56"/>
<path d="M249.249 119.712H239.848V128.991H249.249V119.712Z" fill="#3F3D56"/>
<path d="M261.837 119.712H252.436V128.991H261.837V119.712Z" fill="#3F3D56"/>
<path d="M249.249 132.365H239.848V141.981H249.249V132.365Z" fill="#3F3D56"/>
<path d="M261.837 132.365H252.436V141.981H261.837V132.365Z" fill="#3F3D56"/>
<path d="M214.229 119.712H204.828V128.991H214.229V119.712Z" fill="#3F3D56"/>
<path d="M226.817 119.712H217.416V128.991H226.817V119.712Z" fill="#3F3D56"/>
<path d="M214.229 132.365H204.828V141.981H214.229V132.365Z" fill="#3F3D56"/>
<path d="M226.817 132.365H217.416V141.981H226.817V132.365Z" fill="#3F3D56"/>
<path d="M285.267 187.211H279.348V193.053H285.267V187.211Z" fill="#F2F2F2"/>
<path d="M293.193 187.211H287.273V193.053H293.193V187.211Z" fill="#F2F2F2"/>
<path d="M285.267 195.178H279.348V201.232H285.267V195.178Z" fill="#F2F2F2"/>
<path d="M293.193 195.178H287.273V201.232H293.193V195.178Z" fill="#F2F2F2"/>
<path d="M295.228 210.389C296.128 210.389 296.857 209.617 296.857 208.665C296.857 207.712 296.128 206.94 295.228 206.94C294.329 206.94 293.6 207.712 293.6 208.665C293.6 209.617 294.329 210.389 295.228 210.389Z" fill="#F2F2F2"/>
<path d="M258.58 183.228H168.993V184.09H258.58V183.228Z" fill="#F2F2F2"/>
<path d="M258.58 187.108H168.993V187.971H258.58V187.108Z" fill="#F2F2F2"/>
<path d="M258.58 190.988H168.993V191.851H258.58V190.988Z" fill="#F2F2F2"/>
<path d="M258.58 194.869H168.993V195.731H258.58V194.869Z" fill="#F2F2F2"/>
<path d="M258.58 198.749H168.993V199.611H258.58V198.749Z" fill="#F2F2F2"/>
<path d="M258.58 202.629H168.993V203.491H258.58V202.629Z" fill="#F2F2F2"/>
<path d="M258.58 206.509H168.993V207.371H258.58V206.509Z" fill="#F2F2F2"/>
<path d="M258.58 210.389H168.993V211.251H258.58V210.389Z" fill="#F2F2F2"/>
<path d="M258.58 214.269H168.993V215.132H258.58V214.269Z" fill="#F2F2F2"/>
<path d="M258.58 218.149H168.993V219.012H258.58V218.149Z" fill="#F2F2F2"/>
<path d="M258.58 222.03H168.993V222.892H258.58V222.03Z" fill="#F2F2F2"/>
<path d="M150.465 183.228H102.821V184.09H150.465V183.228Z" fill="#F2F2F2"/>
<path d="M150.465 187.108H102.821V187.971H150.465V187.108Z" fill="#F2F2F2"/>
<path d="M150.465 190.988H102.821V191.851H150.465V190.988Z" fill="#F2F2F2"/>
<path d="M150.465 194.869H102.821V195.731H150.465V194.869Z" fill="#F2F2F2"/>
<path d="M150.465 198.749H102.821V199.611H150.465V198.749Z" fill="#F2F2F2"/>
<path d="M150.465 202.629H102.821V203.491H150.465V202.629Z" fill="#F2F2F2"/>
<path d="M150.465 206.509H102.821V207.371H150.465V206.509Z" fill="#F2F2F2"/>
<path d="M150.465 210.389H102.821V211.251H150.465V210.389Z" fill="#F2F2F2"/>
<path d="M150.465 214.269H102.821V215.132H150.465V214.269Z" fill="#F2F2F2"/>
<path d="M150.465 218.149H102.821V219.012H150.465V218.149Z" fill="#F2F2F2"/>
<path d="M150.465 222.03H102.821V222.892H150.465V222.03Z" fill="#F2F2F2"/>
<path d="M357.125 139.253C375.341 139.253 390.109 123.619 390.109 104.332C390.109 85.0459 375.341 69.4112 357.125 69.4112C338.908 69.4112 324.141 85.0459 324.141 104.332C324.141 123.619 338.908 139.253 357.125 139.253Z" fill="#4D4DFF"/>
<path d="M377.893 100.883H360.383V82.3449H353.868V100.883H336.357V107.781H353.868V126.32H360.383V107.781H377.893V100.883Z" fill="white"/>
<path d="M397.235 43.7592C403.082 43.7592 407.822 38.7407 407.822 32.55C407.822 26.3593 403.082 21.3407 397.235 21.3407C391.388 21.3407 386.647 26.3593 386.647 32.55C386.647 38.7407 391.388 43.7592 397.235 43.7592Z" fill="#A0616A"/>
<path d="M393.57 40.7413C393.57 40.7413 395.199 49.3638 395.199 50.6572C395.199 51.9506 402.122 55.8307 402.122 55.8307L409.859 45.4837C409.859 45.4837 404.972 38.1546 404.972 36.4301L393.57 40.7413Z" fill="#A0616A"/>
<path d="M399.678 51.9506C399.678 51.9506 396.129 50.9505 395.053 49.2949C395.053 49.2949 383.797 61.0042 383.797 63.1598L392.756 79.9737C392.756 79.9737 392.756 86.0095 393.57 86.4406C394.384 86.8717 393.57 86.4406 393.57 88.1651C393.57 89.8896 391.127 101.099 391.941 102.823C392.756 104.548 393.57 103.254 392.756 105.841C391.941 108.428 389.905 122.224 389.905 122.224C389.905 122.224 397.235 119.637 407.822 123.948C418.41 128.26 431.034 122.224 431.034 122.224C431.034 122.224 427.776 114.464 428.59 111.877C429.405 109.29 426.554 104.548 426.554 104.548L424.518 64.8843C424.518 64.8843 427.369 47.2082 425.333 46.346L421.26 44.6215L408.22 42.9246C408.22 42.9246 404.972 51.5195 399.678 51.9506Z" fill="#D0CDE1"/>
<path d="M387.87 60.142L383.797 63.1598C383.797 63.1598 381.761 69.6267 383.797 72.6446C385.834 75.6625 386.648 79.9737 386.648 79.9737L394.792 79.1115L387.87 60.142Z" fill="#D0CDE1"/>
<path d="M418.003 64.0221C418.003 64.0221 415.645 70.4419 416.138 76.7936C416.228 77.9309 416.589 79.0252 417.189 79.9737V79.9737L388.299 94.4945C388.299 94.4945 375.246 95.9254 378.504 101.961C381.761 107.997 393.57 98.9432 393.57 98.9432C393.57 98.9432 424.518 94.2009 426.962 89.4585C429.405 84.7161 431.034 64.8844 431.034 64.8844L418.003 64.0221Z" fill="#A0616A"/>
<path d="M389.151 20.7037L387.315 19.9253C387.315 19.9253 391.155 15.4494 396.497 15.8386L394.995 14.0871C394.995 14.0871 398.668 12.5303 402.007 16.617C403.762 18.7653 405.793 21.2904 407.059 24.135H409.026L408.205 26.0486L411.078 27.9622L408.129 27.6185C408.409 29.2706 408.313 30.9693 407.85 32.5745L407.93 34.0871C407.93 34.0871 404.511 28.4878 404.511 27.7094V29.6555C404.511 29.6555 402.675 27.904 402.675 26.7364L401.673 28.0987L401.172 25.958L394.995 28.0987L395.997 26.3472L392.157 26.931L393.659 24.7904C393.659 24.7904 389.318 27.3202 389.151 29.4609C388.984 31.6016 386.814 34.326 386.814 34.326L385.812 32.3799C385.812 32.3799 384.31 23.6228 389.151 20.7037Z" fill="#2F2E41"/>
<path d="M419.224 46.346H425.333C425.333 46.346 429.812 47.2082 431.034 55.8307C432.255 64.4532 433.477 66.6088 432.255 66.6088C431.034 66.6088 416.374 66.1777 416.374 65.7466C416.374 65.3155 419.224 46.346 419.224 46.346Z" fill="#D0CDE1"/>
</g>
<defs>
<clipPath id="clip0">
<rect width="463" height="229" fill="white"/>
</clipPath>
</defs>
</svg>
