<svg width="489" height="356" viewBox="0 0 489 356" fill="none" xmlns="http://www.w3.org/2000/svg">
<g clip-path="url(#clip0)">
<path d="M480.763 250.266C472.211 267.916 457.405 281.42 440.466 291.695C433.518 295.875 426.293 299.575 418.842 302.77C413.967 304.881 409.025 306.808 404.017 308.55C379.175 317.227 352.89 321.468 326.559 321.482C322.256 321.486 317.953 321.376 313.65 321.15C312.415 321.087 311.181 321.014 309.946 320.932C303.442 320.501 296.958 319.809 290.496 318.857C290.369 318.839 290.238 318.821 290.111 318.798C276.594 316.802 263.268 313.677 250.272 309.458C247.753 308.641 245.249 307.783 242.76 306.884C242.088 306.648 241.416 306.398 240.749 306.153C237.944 305.113 235.16 304.022 232.397 302.879C230.073 301.921 227.763 300.926 225.466 299.896C223.205 298.874 220.96 297.819 218.73 296.731C215.081 294.942 211.471 293.066 207.9 291.105C205.145 289.579 202.426 287.996 199.743 286.355C193.091 282.29 186.653 277.883 180.457 273.151C178.269 271.48 176.112 269.767 173.984 268.011C172.509 266.794 171.048 265.55 169.563 264.342C166.431 261.795 163.209 259.375 159.614 257.563C158.529 257.016 157.417 256.525 156.282 256.092C152.04 254.522 147.572 253.652 143.051 253.517C135.339 253.213 127.378 254.648 119.92 256.773C116.375 257.776 112.871 258.93 109.367 260.11C107.928 260.596 106.491 261.084 105.055 261.572C102.086 262.585 99.1178 263.575 96.122 264.478C95.1233 264.778 94.1249 265.073 93.1216 265.35C89.1166 266.504 85.0349 267.372 80.9072 267.948C71.6892 269.12 62.327 268.304 53.4506 265.555L52.6926 265.318C51.4218 264.919 50.1644 264.483 48.9116 264.006L48.1536 263.716C46.9463 263.248 45.7616 262.747 44.5995 262.213L43.8415 261.868C42.7249 261.345 41.6309 260.801 40.5554 260.224C40.4645 260.178 40.3783 260.133 40.2874 260.083C39.8699 259.865 39.457 259.629 39.0483 259.407C32.458 255.717 26.4651 251.049 21.2736 245.562C21.1238 245.412 20.9831 245.258 20.8197 245.108C20.0979 244.327 19.3897 243.532 18.7045 242.72C18.4502 242.42 18.196 242.12 17.9465 241.811C17.134 240.817 16.3487 239.801 15.5908 238.765C15.4773 238.615 15.3682 238.46 15.2594 238.311C12.1597 234.019 9.58868 229.369 7.60203 224.462C7.53842 224.312 7.47947 224.157 7.42494 224.008C6.82122 222.45 6.26899 220.865 5.76825 219.253C5.56391 218.581 5.36887 217.891 5.19622 217.219C5.13726 217.019 5.08274 216.815 5.03287 216.615C2.55015 206.753 2.28223 196.496 2.28223 186.297V182.733C2.35492 166.237 2.60913 149.459 5.04198 133.19C5.05164 133.077 5.0683 132.965 5.09185 132.854C5.90892 127.377 7.0165 121.948 8.4099 116.589C9.87315 110.968 11.7405 105.459 13.9974 100.107C19.5941 86.9386 27.7326 74.9559 36.7697 63.8494C59.5102 35.9198 89.3633 12.44 124.305 3.68111C161.956 -5.77709 203.801 3.28607 234.172 27.4742C243.127 34.603 251.202 43.0032 261.129 48.6609C261.465 48.8561 261.805 49.0468 262.15 49.233C263.462 49.9459 264.802 50.5937 266.172 51.1764C267.986 51.9517 269.853 52.5966 271.759 53.1062C277.792 54.7272 284.096 54.8725 290.111 52.861C290.601 52.693 291.091 52.5159 291.577 52.3207C292.607 51.912 293.592 51.5306 294.54 51.1764C301.013 48.7653 305.997 47.5938 313.863 48.0161C332.544 49.0689 350.96 52.9246 368.495 59.454C369.203 59.7129 369.911 59.9808 370.615 60.2486C416.327 77.7529 455.63 112.512 476.047 157.178C476.592 158.359 477.116 159.548 477.622 160.747C489.8 189.181 494.194 222.541 480.763 250.266Z" fill="#F2F2F2"/>
<path d="M28.8715 232.762V232.943L28.8037 233.025L28.8715 232.762Z" fill="#CACACA"/>
<path d="M109.367 260.11C107.928 260.596 106.491 261.084 105.055 261.572V260.11H109.367Z" fill="white"/>
<path d="M271.76 26.6844H261.128V53.2721H271.76V26.6844Z" fill="#E4E4E4"/>
<path d="M290.11 51.1764V318.798C276.594 316.802 263.268 313.677 250.271 309.458C247.752 308.641 245.248 307.783 242.759 306.884C242.088 306.648 241.416 306.398 240.749 306.153C237.943 305.113 235.159 304.021 232.397 302.879C230.073 301.921 227.762 300.926 225.466 299.896C223.205 298.874 220.96 297.819 218.73 296.731C215.081 294.942 211.47 293.066 207.9 291.105C205.145 289.579 202.426 287.996 199.743 286.355V51.1764H290.11Z" fill="#E4E4E4"/>
<path d="M326.559 51.1764V321.482C322.256 321.486 317.953 321.376 313.65 321.15C312.416 321.087 311.181 321.014 309.946 320.932C303.442 320.501 296.959 319.809 290.497 318.857C290.369 318.839 290.238 318.821 290.111 318.798V51.1764H326.559Z" fill="#CACACA"/>
<path d="M229.739 77.7633H216.07V91.437H229.739V77.7633Z" fill="white"/>
<path d="M251.761 77.7633H238.092V91.437H251.761V77.7633Z" fill="white"/>
<path d="M273.783 77.7633H260.114V91.437H273.783V77.7633Z" fill="white"/>
<path d="M230.119 108.909H216.45V122.583H230.119V108.909Z" fill="white"/>
<path d="M252.141 108.909H238.472V122.583H252.141V108.909Z" fill="white"/>
<path d="M274.163 108.909H260.494V122.583H274.163V108.909Z" fill="white"/>
<path d="M230.498 140.055H216.83V153.728H230.498V140.055Z" fill="white"/>
<path d="M252.52 140.055H238.852V153.728H252.52V140.055Z" fill="white"/>
<path d="M274.542 140.055H260.874V153.728H274.542V140.055Z" fill="white"/>
<path d="M230.878 171.2H217.209V184.874H230.878V171.2Z" fill="white"/>
<path d="M252.9 171.2H239.231V184.874H252.9V171.2Z" fill="white"/>
<path d="M274.922 171.2H261.253V184.874H274.922V171.2Z" fill="white"/>
<path d="M231.258 202.346H217.589V216.019H231.258V202.346Z" fill="white"/>
<path d="M253.28 202.346H239.611V216.019H253.28V202.346Z" fill="white"/>
<path d="M275.302 202.346H261.633V216.019H275.302V202.346Z" fill="white"/>
<path d="M231.637 233.491H217.969V247.165H231.637V233.491Z" fill="white"/>
<path d="M253.66 233.491H239.991V247.165H253.66V233.491Z" fill="white"/>
<path d="M275.681 233.491H262.013V247.165H275.681V233.491Z" fill="white"/>
<path d="M232.017 264.637H218.349V278.311H232.017V264.637Z" fill="white"/>
<path d="M254.039 264.637H240.37V278.311H254.039V264.637Z" fill="white"/>
<path d="M276.061 264.637H262.392V278.311H276.061V264.637Z" fill="white"/>
<path d="M232.397 295.782V302.879C230.073 301.921 227.763 300.926 225.466 299.896C223.205 298.874 220.96 297.819 218.73 296.731V295.782H232.397Z" fill="white"/>
<path d="M254.42 295.782V309.458H250.271C247.752 308.641 245.248 307.783 242.759 306.884C242.088 306.648 241.416 306.398 240.749 306.153V295.782L254.42 295.782Z" fill="white"/>
<path d="M276.441 295.783H262.772V309.456H276.441V295.783Z" fill="white"/>
<path d="M395.662 162.084H385.031V177.842H395.662V162.084Z" fill="#E4E4E4"/>
<path d="M404.017 176.49V308.55C379.175 317.227 352.89 321.468 326.559 321.482C322.256 321.486 317.953 321.376 313.65 321.15V176.49H404.017Z" fill="#E4E4E4"/>
<path d="M440.465 176.49V291.695C433.518 295.875 426.293 299.575 418.841 302.77C413.967 304.881 409.025 306.808 404.017 308.55V176.49H440.465Z" fill="#CACACA"/>
<path d="M345.164 202.346H331.496V216.019H345.164V202.346Z" fill="white"/>
<path d="M367.186 202.346H353.517V216.019H367.186V202.346Z" fill="white"/>
<path d="M389.208 202.346H375.539V216.019H389.208V202.346Z" fill="white"/>
<path d="M345.544 233.491H331.875V247.165H345.544V233.491Z" fill="white"/>
<path d="M367.566 233.491H353.897V247.165H367.566V233.491Z" fill="white"/>
<path d="M389.588 233.491H375.919V247.165H389.588V233.491Z" fill="white"/>
<path d="M345.924 264.637H332.255V278.311H345.924V264.637Z" fill="white"/>
<path d="M367.945 264.637H354.276V278.311H367.945V264.637Z" fill="white"/>
<path d="M389.967 264.637H376.298V278.311H389.967V264.637Z" fill="white"/>
<path d="M346.303 295.783H332.634V309.456H346.303V295.783Z" fill="white"/>
<path d="M368.325 295.783H354.656V309.456H368.325V295.783Z" fill="white"/>
<path d="M390.347 295.783H376.678V309.456H390.347V295.783Z" fill="white"/>
<path d="M324.347 325.647C324.347 325.647 329.209 342.947 349.573 342.16C369.938 341.374 378.742 325.333 378.742 325.333L324.347 325.647Z" fill="#3F3D56"/>
<path d="M43.7249 258.179L37.9067 268.839L38.8513 288.846L178.27 330.288L238.981 337.757L227.112 265.328L185.579 257.971L123.273 259.752L70.4506 250.001L43.7249 258.179Z" fill="#2F2E41"/>
<path d="M63.133 328.321H59.5339C56.0547 328.333 52.6446 327.349 49.7068 325.484C46.7689 323.619 44.4262 320.952 42.9555 317.798C37.407 305.681 39.0506 288.926 39.0749 288.687C40.3322 274.204 48.2666 264.755 58.82 265.184C70.4705 265.654 80.4051 305.966 80.8223 307.682C81.5146 310.575 81.3325 313.609 80.299 316.399C79.0132 319.913 76.6743 322.944 73.6018 325.077C70.5294 327.211 66.8732 328.344 63.133 328.321V328.321Z" fill="#3F3D56"/>
<path d="M209.897 356C209.281 355.986 208.667 355.926 208.06 355.822C203.403 355.089 199.002 353.209 195.25 350.352C191.499 347.496 188.516 343.752 186.569 339.456C185.11 336.282 183.706 333.032 182.397 329.795C177.138 316.799 181.546 294.081 188.709 285.287C195.031 277.526 201.393 277.587 211.025 277.678C212.014 277.688 213.038 277.697 214.102 277.699C224.796 277.717 236.102 317.071 239.817 330.003C240.113 331.032 240.358 331.884 240.547 332.523C241.129 334.488 241.06 336.838 240.341 339.508C238.074 347.931 230.603 354.179 221.751 355.054C215.392 355.681 211.404 356 209.897 356Z" fill="#3F3D56"/>
<path d="M38.8513 288.847C38.8513 288.847 34.7638 270.604 40.895 258.179L47.0745 243.239L70.426 264.942L75.7582 298.902L167.136 312.751C167.136 312.751 161.476 257.078 197.006 254.877C232.535 252.675 249.394 312.751 249.394 312.751L267.122 325.647L390.69 316.526C390.69 316.526 392.871 322.502 389.737 325.647C386.602 328.793 236.623 338.543 236.623 338.543C236.623 338.543 229.077 263.998 199.207 270.918C169.336 277.838 178.27 330.288 178.27 330.288L71.5512 311.493C71.5512 311.493 68.0925 260.853 50.4849 260.853C32.8773 260.853 38.8513 288.847 38.8513 288.847Z" fill="#3F3D56"/>
<path d="M59.9086 225.425L80.0405 193.857L165.878 188.824L261.148 190.082L305.481 231.287L168.393 239.15L58.0308 233.174L59.9086 225.425Z" fill="#3F3D56"/>
<path d="M59.9089 225.425C59.9089 225.425 42.7816 225.782 40.895 258.179C40.895 258.179 59.1315 225.153 74.8526 298.754L168.708 314.009C168.708 314.009 165.249 252.675 200.779 257.393C236.308 262.111 244.798 318.413 244.798 318.413C244.798 318.413 251.715 332.253 289.76 330.051C327.805 327.849 384.716 324.389 390.69 316.526C390.69 316.526 404.524 269.66 361.448 239.464L305.481 231.287L178.769 233.803L59.9089 225.425Z" fill="#4D4DFF"/>
<path d="M102.836 247.485H92.1459C91.8561 247.486 91.569 247.43 91.301 247.32C91.033 247.21 90.7894 247.048 90.5841 246.843C90.3789 246.639 90.216 246.396 90.1049 246.128C89.9937 245.86 89.9365 245.573 89.9365 245.283C89.9365 244.993 89.9937 244.707 90.1049 244.439C90.216 244.171 90.3789 243.928 90.5841 243.724C90.7894 243.519 91.033 243.357 91.301 243.247C91.569 243.137 91.8561 243.081 92.1459 243.082H102.836C103.418 243.084 103.976 243.317 104.387 243.729C104.798 244.142 105.029 244.701 105.029 245.283C105.029 245.866 104.798 246.425 104.387 246.837C103.976 247.25 103.418 247.483 102.836 247.485V247.485Z" fill="#CACACA"/>
<path d="M265.55 315.897C269.37 315.897 272.467 312.799 272.467 308.977C272.467 305.155 269.37 302.057 265.55 302.057C261.729 302.057 258.632 305.155 258.632 308.977C258.632 312.799 261.729 315.897 265.55 315.897Z" fill="white"/>
<path d="M262.123 275.023C257.387 275.023 251.733 273 246.672 269.101C237.742 262.219 233.99 252.057 238.309 246.449C242.627 240.841 253.406 241.878 262.336 248.759C266.652 252.085 269.901 256.265 271.485 260.529C273.079 264.818 272.8 268.683 270.699 271.41C268.828 273.84 265.744 275.023 262.123 275.023Z" fill="white"/>
<path d="M385.045 266.237C381.56 266.237 375.302 262.707 369.106 256.98C365.391 253.547 362.314 249.867 360.441 246.618C358.539 243.318 358.105 240.835 359.221 239.628C360.337 238.42 362.845 238.656 366.284 240.293C369.669 241.904 373.579 244.682 377.293 248.115C385.132 255.36 389.473 262.982 387.178 265.468C386.896 265.738 386.561 265.947 386.193 266.079C385.826 266.212 385.434 266.265 385.045 266.237V266.237Z" fill="white"/>
<path d="M92.8346 225.418C92.7598 225.418 92.6847 225.415 92.6092 225.408L69.8736 223.293C69.4587 223.255 69.0606 223.111 68.717 222.875C68.3733 222.639 68.0956 222.32 67.9101 221.946C67.7246 221.573 67.6375 221.159 67.657 220.742C67.6765 220.326 67.802 219.922 68.0216 219.567L80.8423 198.89C81.052 198.552 81.3411 198.269 81.6845 198.068C82.0279 197.867 82.4152 197.753 82.8128 197.735L99.7702 196.987C100.16 196.97 100.548 197.046 100.903 197.21C101.257 197.373 101.567 197.619 101.807 197.927C102.047 198.235 102.21 198.596 102.282 198.98C102.354 199.363 102.333 199.759 102.221 200.133L95.1786 223.673C95.0264 224.177 94.7165 224.618 94.2945 224.933C93.8725 225.247 93.3607 225.417 92.8346 225.418Z" fill="white"/>
<path d="M152.747 230.263C152.522 230.263 152.296 230.252 152.069 230.23L112.764 226.359C111.77 226.261 110.81 225.948 109.95 225.441C109.09 224.933 108.351 224.245 107.785 223.422C107.219 222.6 106.839 221.664 106.671 220.68C106.504 219.695 106.553 218.686 106.815 217.723L112.47 196.967C112.85 195.551 113.676 194.295 114.825 193.385C115.974 192.474 117.386 191.958 118.851 191.912L150.572 190.804C152.293 190.752 153.971 191.347 155.277 192.47C156.582 193.593 157.421 195.164 157.628 196.874L160.245 219.462C160.333 220.216 160.295 220.979 160.133 221.72L159.445 224.865C159.11 226.394 158.264 227.762 157.046 228.744C155.827 229.725 154.311 230.261 152.747 230.263Z" fill="white"/>
<path d="M183.423 231.355C182.272 231.352 181.157 230.96 180.256 230.244C179.356 229.528 178.723 228.529 178.46 227.409L171.526 197.426C171.353 196.679 171.351 195.903 171.52 195.155C171.689 194.408 172.025 193.707 172.501 193.107C172.978 192.507 173.585 192.023 174.275 191.689C174.965 191.356 175.722 191.183 176.488 191.183H258.714C259.395 191.185 260.07 191.322 260.698 191.588C261.326 191.854 261.894 192.242 262.37 192.731L289.227 220.431C289.917 221.143 290.384 222.041 290.572 223.014C290.76 223.988 290.659 224.995 290.283 225.912C289.907 226.829 289.272 227.617 288.455 228.178C287.638 228.739 286.676 229.05 285.685 229.072L183.536 231.354C183.498 231.355 183.46 231.355 183.423 231.355Z" fill="white"/>
<path d="M79.3389 194.957L80.0407 193.857C80.0407 193.857 84.1282 182.533 140.41 180.646C196.691 178.759 249.2 179.703 261.148 190.082L163.991 189.768L81.9273 195.429L79.3389 194.957Z" fill="#4D4DFF"/>
<path d="M52.686 275.636C46.7818 275.636 41.9956 285.494 41.9956 297.654C41.9956 309.814 46.7818 319.671 52.686 319.671C58.5901 319.671 63.3763 309.814 63.3763 297.654C63.3763 285.494 58.5901 275.636 52.686 275.636ZM53.1576 280.354C54.46 280.354 55.5158 282.889 55.5158 286.016C55.5158 289.143 54.46 291.677 53.1576 291.677C51.8552 291.677 50.7994 289.143 50.7994 286.016C50.7994 282.889 51.8552 280.354 53.1576 280.354ZM54.5725 297.654C54.5725 298.696 53.8686 299.541 53.0004 299.541C52.1322 299.541 51.4283 298.696 51.4283 297.654C51.4283 296.611 52.1322 295.766 53.0004 295.766C53.8686 295.766 54.5725 296.611 54.5725 297.654V297.654ZM46.3582 298.865C44.3364 299.021 42.6449 298.465 42.5798 297.622C42.5147 296.779 44.1008 295.969 46.1226 295.813C48.1442 295.657 49.8358 296.213 49.9008 297.056C49.9659 297.899 48.3798 298.709 46.3582 298.865L46.3582 298.865ZM53.1576 314.953C51.8552 314.953 50.7994 312.418 50.7994 309.291C50.7994 306.165 51.8552 303.63 53.1576 303.63C54.46 303.63 55.5158 306.165 55.5158 309.291C55.5158 312.418 54.46 314.953 53.1576 314.953H53.1576ZM59.2495 298.865C57.2278 299.021 55.5362 298.465 55.4711 297.622C55.406 296.779 56.9921 295.969 59.0139 295.813C61.0355 295.657 62.7271 296.213 62.7922 297.056C62.8572 297.899 61.2712 298.709 59.2495 298.865L59.2495 298.865Z" fill="#E4E4E4"/>
<path d="M202.036 290.419C192.659 290.419 185.058 303.023 185.058 318.57C185.058 334.118 192.659 346.721 202.036 346.721C211.414 346.721 219.015 334.118 219.015 318.57C219.015 303.023 211.414 290.419 202.036 290.419ZM191.893 320.683C189.155 320.894 186.863 320.141 186.775 318.999C186.687 317.858 188.835 316.761 191.574 316.549C194.312 316.338 196.604 317.091 196.692 318.233C196.78 319.374 194.631 320.471 191.893 320.683ZM202.046 342.16C200.282 342.16 198.852 338.727 198.852 334.491C198.852 330.256 200.282 326.822 202.046 326.822C203.811 326.822 205.241 330.256 205.241 334.491C205.241 338.727 203.811 342.16 202.046 342.16V342.16ZM199.521 318.727C199.521 317.06 200.647 315.708 202.036 315.708C203.426 315.708 204.552 317.06 204.552 318.727C204.552 320.395 203.426 321.747 202.036 321.747C200.647 321.747 199.521 320.395 199.521 318.727ZM202.046 310.632C200.282 310.632 198.852 307.199 198.852 302.963C198.852 298.728 200.282 295.295 202.046 295.295C203.811 295.295 205.241 298.728 205.241 302.963C205.241 307.199 203.811 310.632 202.046 310.632V310.632ZM212.814 320.054C210.075 320.265 207.784 319.511 207.695 318.37C207.607 317.229 209.756 316.132 212.494 315.92C215.233 315.709 217.524 316.462 217.612 317.604C217.7 318.745 215.552 319.842 212.814 320.054Z" fill="#E4E4E4"/>
<path d="M142.61 234.117L146.383 242.924C146.383 242.924 152.672 245.441 156.759 236.948L148.477 228.662L142.61 234.117Z" fill="#CACACA"/>
<path d="M137.423 236.162C130.661 236.162 125.16 232.493 125.16 227.984C125.16 223.475 130.661 219.806 137.423 219.806C144.184 219.806 149.685 223.475 149.685 227.984C149.685 232.493 144.184 236.162 137.423 236.162Z" fill="#CACACA"/>
<path d="M373.869 264.942L303.57 266.998C303.57 266.998 288.186 271.315 286.616 283.649C286.616 283.649 288.814 293.722 294.465 293.722C300.117 293.722 386.773 289.199 386.773 289.199C386.773 289.199 392.425 280.565 387.715 274.398C383.005 268.231 373.869 264.942 373.869 264.942Z" fill="#3F3D56"/>
<path d="M379.955 268.872L297.515 271.598L297.546 272.541L379.987 269.815L379.955 268.872Z" fill="#E4E4E4"/>
<path d="M382.954 271.862L293.292 275.925L293.335 276.868L382.997 272.804L382.954 271.862Z" fill="#E4E4E4"/>
<path d="M386.093 275.922L289.939 281.087L289.99 282.03L386.143 276.865L386.093 275.922Z" fill="#E4E4E4"/>
<path d="M52.186 255.018C51.802 254.525 51.5308 253.953 51.3916 253.343C51.2524 252.733 51.2484 252.101 51.3801 251.489C51.5118 250.878 51.7759 250.303 52.1538 249.805C52.5317 249.306 53.0142 248.897 53.5673 248.605L52.6742 238.87L58.4559 236.884L59.5243 250.65C59.9526 251.613 60.0131 252.699 59.6943 253.702C59.3755 254.706 58.6997 255.558 57.7949 256.097C56.8901 256.635 55.8192 256.823 54.7852 256.624C53.7513 256.425 52.8261 255.854 52.1852 255.019L52.186 255.018Z" fill="#FFB8B8"/>
<path d="M58.3928 199.14C58.3928 199.14 62.3604 190.81 65.8862 193.739C69.412 196.667 61.0524 221.299 61.0524 221.299L59.7813 245.211L53.0807 244.541L51.186 221.246L58.3928 199.14Z" fill="#E6E6E6"/>
<path d="M5.17188 322.378L10.1458 326.405L28.043 309.128L20.7021 303.185L5.17188 322.378Z" fill="#FFB8B8"/>
<path d="M5.21732 319.725L15.013 327.657C16.6684 328.998 17.7237 330.941 17.9466 333.06C18.1696 335.179 17.542 337.3 16.2018 338.956L16.0377 339.159L0 326.173L5.21732 319.725Z" fill="#2F2E41"/>
<path d="M74.2996 333.559H80.6989L83.7417 308.864H74.2983L74.2996 333.559Z" fill="#FFB8B8"/>
<path d="M72.667 331.468H85.2702C87.4002 331.468 89.4429 332.315 90.9491 333.821C92.4553 335.328 93.3016 337.371 93.3019 339.502V339.764H72.6674L72.667 331.468Z" fill="#2F2E41"/>
<path d="M85.5284 217.797C85.5284 217.797 97.5341 232.417 94.9242 247.039C92.3142 261.662 90.2263 272.627 90.2263 272.627L86.0525 305.523C86.0525 305.523 87.6185 314.483 85.5305 316.791C85.5305 316.791 88.6624 322.233 82.9206 324.321C77.1787 326.41 74.0784 323.601 74.0784 323.601C74.0784 323.601 69.8687 317.534 72.4786 315.97L73.5783 251.405L31.7638 306.045C31.7638 306.045 30.9954 312.69 25.6375 312.762L19.2361 317.533L11.9282 313.355L15.5821 308.655C15.5821 308.655 13.4942 303.433 18.1921 302.389L45.3356 266.882L52.1214 248.605C52.1214 248.605 55.7753 234.507 65.6932 228.763V222.651L85.5284 217.797Z" fill="#2F2E41"/>
<path d="M64.9099 192.472C66.4904 190.603 68.7027 189.382 71.1254 189.039C73.5482 188.697 76.0121 189.258 78.0479 190.616L78.4816 190.906C83.1149 196.155 86.2289 202.568 87.4883 209.457L89.443 220.148L64.9095 225.464L59.1581 205.621C58.4282 203.102 58.6039 200.407 59.6547 198.005C60.7055 195.603 62.5649 193.645 64.9095 192.472L64.9099 192.472Z" fill="#E6E6E6"/>
<path d="M105.217 257.291C104.537 257.069 103.914 256.7 103.392 256.211C102.869 255.721 102.461 255.123 102.195 254.459C101.928 253.794 101.811 253.08 101.851 252.365C101.891 251.65 102.087 250.953 102.425 250.322L95.3477 241.658L99.5621 236.071L109.385 248.448C110.406 249.087 111.158 250.078 111.497 251.234C111.837 252.39 111.74 253.631 111.227 254.721C110.713 255.811 109.818 256.675 108.71 257.148C107.602 257.622 106.36 257.673 105.217 257.291H105.217Z" fill="#FFB8B8"/>
<path d="M75.3496 200.304C75.3496 200.304 73.7836 189.861 79.0035 190.383C84.2234 190.905 92.0533 219.625 92.0533 219.625L106.147 243.123L99.3611 246.778L82.6575 225.891L75.3496 200.304Z" fill="#E6E6E6"/>
<path d="M84.9087 185.036H60.0521C59.5408 185.036 59.0506 184.832 58.689 184.471C58.3275 184.109 58.1241 183.619 58.1235 183.107V172.389C58.1235 168.58 59.6361 164.927 62.3286 162.234C65.021 159.54 68.6727 158.027 72.4804 158.027C76.2881 158.027 79.9398 159.54 82.6322 162.234C85.3247 164.927 86.8373 168.58 86.8373 172.389V172.389V183.107C86.8367 183.619 86.6333 184.109 86.2718 184.471C85.9102 184.832 85.42 185.036 84.9087 185.036V185.036Z" fill="#2F2E41"/>
<path d="M75.4307 184.787C81.244 184.787 85.9567 180.073 85.9567 174.257C85.9567 168.442 81.244 163.727 75.4307 163.727C69.6174 163.727 64.9048 168.442 64.9048 174.257C64.9048 180.073 69.6174 184.787 75.4307 184.787Z" fill="#FFB8B8"/>
<path d="M90.2332 173.461H76.9863L76.8505 171.278L76.1712 173.461H74.1317L73.8626 169.134L72.5165 173.461H68.5698V173.247C68.5698 166.982 73.0102 161.886 78.4696 161.886H80.3373C85.7951 161.886 90.2371 166.982 90.2371 173.247L90.2332 173.461Z" fill="#2F2E41"/>
<path d="M77.5353 187.037C77.3735 187.037 77.2119 187.025 77.0519 187L61.2847 184.57V168.142C61.2847 166.464 61.9511 164.854 63.1374 163.667C64.3237 162.481 65.9326 161.814 67.6103 161.814H78.6415L78.2129 162.252C72.2344 168.34 76.7386 178.214 79.9554 183.559C80.1915 183.943 80.2981 184.393 80.2595 184.842C80.2209 185.291 80.0392 185.716 79.7412 186.055C79.4674 186.369 79.1282 186.62 78.7474 186.79C78.3665 186.96 77.9532 187.045 77.5362 187.039L77.5353 187.037Z" fill="#2F2E41"/>
</g>
<defs>
<clipPath id="clip0">
<rect width="489" height="356" fill="white"/>
</clipPath>
</defs>
</svg>
