<svg width="448" height="317" viewBox="0 0 448 317" fill="none" xmlns="http://www.w3.org/2000/svg">
<g clip-path="url(#clip0)">
<path opacity="0.1" d="M148.942 316.822C170.759 316.822 188.445 313.984 188.445 310.484C188.445 306.983 170.759 304.146 148.942 304.146C127.124 304.146 109.438 306.983 109.438 310.484C109.438 313.984 127.124 316.822 148.942 316.822Z" fill="#4D4DFF"/>
<path opacity="0.1" d="M363.678 317C390.902 317 412.972 314.162 412.972 310.662C412.972 307.162 390.902 304.324 363.678 304.324C336.453 304.324 314.383 307.162 314.383 310.662C314.383 314.162 336.453 317 363.678 317Z" fill="#4D4DFF"/>
<path opacity="0.1" d="M5.61084 136.967H46.7564V192.989H8.62308C8.52172 193.564 8.42442 194.143 8.31902 194.722H46.7564V239.903C46.6875 239.882 46.6267 239.858 46.5618 239.834C45.4753 239.404 44.3969 238.951 43.3185 238.465L42.6293 238.153C41.5482 237.643 40.4671 237.103 39.386 236.533C39.0089 236.335 38.6319 236.128 38.2589 235.917C32.2571 232.559 26.8047 228.303 22.091 223.298C21.9531 223.164 21.8234 223.023 21.6856 222.893C21.0288 222.18 20.3842 221.459 19.7598 220.722L19.0706 219.912C18.3328 219.009 17.6192 218.082 16.926 217.142C16.8246 217.005 16.7273 216.867 16.6219 216.737C13.8024 212.832 11.4614 208.604 9.64878 204.142C9.59202 204.008 9.54337 203.863 9.49067 203.737C8.9339 202.306 8.44064 200.862 8.0109 199.404C7.82441 198.792 7.64603 198.189 7.49197 197.553C7.43521 197.367 7.38656 197.184 7.34196 197.002C5.03921 188.024 4.76758 178.697 4.76758 169.435C4.76758 168.353 4.76758 167.268 4.76758 166.195C4.76758 162.449 4.81217 158.678 4.87704 154.912C4.87704 153.936 4.91758 152.964 4.93785 151.984C4.99461 149.497 5.07569 147.01 5.1811 144.524C5.20543 143.831 5.23786 143.143 5.27435 142.454C5.27435 142.057 5.29462 141.661 5.33516 141.264C5.43246 139.822 5.51354 138.392 5.61084 136.967Z" fill="#4D4DFF"/>
<path opacity="0.1" d="M46.7565 74.5906H24.187C27.8558 68.8543 31.8644 63.342 36.1914 58.0833C39.5441 53.9687 43.0834 49.9593 46.7565 46.0957V74.5906Z" fill="#4D4DFF"/>
<path opacity="0.1" d="M46.7566 76.324V135.233H5.74072C5.74072 135.063 5.7691 134.889 5.78126 134.719C5.81775 134.253 5.85424 133.788 5.89478 133.326C5.93937 132.783 5.98803 132.237 6.04073 131.706C6.09343 131.175 6.15019 130.528 6.211 129.94C6.27182 129.353 6.32857 128.758 6.39749 128.17C6.46642 127.583 6.52723 126.996 6.6002 126.413C6.67318 125.83 6.73804 125.238 6.81507 124.655C6.87589 124.169 6.94075 123.687 7.00562 123.201C7.09886 122.517 7.19616 121.828 7.30157 121.148C7.30157 121.047 7.32995 120.941 7.34617 120.844C8.08613 115.864 9.09437 110.926 10.3665 106.054C11.6981 100.943 13.3986 95.9352 15.4545 91.0696C17.6395 85.9796 20.1979 81.0577 23.1087 76.3442L46.7566 76.324Z" fill="#4D4DFF"/>
<path opacity="0.1" d="M56.5796 136.963V192.989H144.461V136.963H56.5796ZM56.5796 194.718V242.831C57.0823 242.936 57.581 243.037 58.0756 243.122C58.7486 243.252 59.4175 243.369 60.1026 243.47C60.2324 243.491 60.3662 243.511 60.5081 243.523C60.7756 243.568 61.0513 243.604 61.3189 243.641C61.9959 243.734 62.6689 243.811 63.346 243.871C63.6662 243.904 63.9906 243.932 64.3149 243.956L65.0974 244.017C65.523 244.05 65.9447 244.074 66.3623 244.086C66.6217 244.086 66.8812 244.11 67.1488 244.118C67.3515 244.118 67.5542 244.118 67.765 244.118C67.9758 244.118 68.2758 244.118 68.5312 244.118C68.8799 244.118 69.2285 244.118 69.5732 244.118H70.0394C70.388 244.118 70.7367 244.118 71.0813 244.086H71.1056C71.3448 244.086 71.5881 244.086 71.8313 244.054C71.8988 244.058 71.9665 244.058 72.034 244.054C72.2367 244.054 72.4394 244.054 72.634 244.025H72.7759L74.1341 243.92C74.58 243.879 75.03 243.827 75.4841 243.778L76.4085 243.669C80.169 243.143 83.8877 242.352 87.5371 241.304C95.7346 239.02 103.754 235.824 111.947 233.483C122.541 230.466 134.245 228.984 144.482 232.673V194.718H56.5796ZM144.461 74.5906V0.00404437C134.84 -0.100088 125.244 1.02408 115.908 3.34924C93.6548 8.93402 73.6881 21.0472 56.5796 36.5177V74.5866H60.9905V76.3159H56.5796V135.233H144.461V76.3199H79.1004V74.5906H144.461ZM257.341 49.3963C251.836 49.2019 246.363 47.4605 241.412 44.7714C231.946 39.628 224.385 31.6862 215.936 24.9837C198.382 11.0238 176.611 2.60001 154.277 0.510279V74.5906H279.732L280.044 74.2626L257.341 49.3963ZM268.77 47.3714L280.888 60.655V43.8885C276.83 44.3907 273.274 45.5854 268.786 47.3552L268.77 47.3714ZM280.888 254.778V194.718H255.067C254.998 194.463 254.929 194.204 254.848 193.945C254.925 194.204 254.99 194.463 255.063 194.718H154.293V238.153C155.25 238.862 156.194 239.607 157.131 240.364C158.14 241.174 159.137 242.029 160.139 242.867L161.148 243.701C161.631 244.106 162.117 244.511 162.608 244.892C163.581 245.68 164.563 246.458 165.555 247.225C166.046 247.63 166.548 247.994 167.047 248.375C174.964 254.421 183.315 259.878 192.033 264.7C193.987 265.78 195.959 266.834 197.948 267.863C199.274 268.539 200.607 269.211 201.945 269.863C203.956 270.844 205.983 271.789 208.027 272.698C226.865 281.146 246.785 286.942 267.217 289.923C271.755 290.592 276.311 291.119 280.884 291.502V254.774H281.289L280.888 254.778ZM154.293 76.3199V135.233H280.904V76.3199H154.293ZM154.293 136.963V192.989H280.904V136.963H154.293ZM290.731 43.8156V62.5179L306.198 45.5652C301.073 44.739 295.918 44.149 290.731 43.7954V43.8156ZM290.731 136.983V192.989H413.876V136.963L290.731 136.983ZM413.426 259.224L413.86 194.718H290.731V292.146C298.663 292.479 306.607 292.384 314.529 291.862V291.862H314.667C318.451 291.625 322.217 291.279 325.966 290.826H326.051C346.05 288.501 365.606 283.288 384.106 275.351L413.426 259.224ZM437.621 146.188C437.159 145.099 436.677 144.018 436.186 142.948C435.27 140.924 434.301 138.955 433.304 136.987H423.695V192.989H447.988C447.976 177.129 443.958 160.93 437.633 146.168L437.621 146.188ZM423.695 194.738V250.222C430.539 243.669 436.32 236.173 440.484 227.603C445.49 217.284 447.781 206.11 447.967 194.73L423.695 194.738ZM423.695 120.658V135.237H432.404C429.769 130.219 426.866 125.345 423.707 120.638L423.695 120.658ZM340.18 54.807C339.539 54.564 338.899 54.3169 338.254 54.078C331.456 51.57 324.508 49.4844 317.452 47.8331L293.784 73.7806L293.33 74.2626L293.634 74.5947H377.871C366.139 66.5275 353.491 59.8784 340.192 54.7867L340.18 54.807ZM380.34 76.3402H292.458L290.731 77.9196V135.233H305.869H305.894H413.892V107.472C404.123 95.6685 392.847 85.1954 380.352 76.3199L380.34 76.3402Z" fill="#4D4DFF"/>
<path opacity="0.1" d="M46.7566 106.038V135.233H5.74072C5.74072 135.063 5.7691 134.889 5.78126 134.719C5.81775 134.253 5.85424 133.788 5.89478 133.326C5.93937 132.783 5.98803 132.237 6.04073 131.706C6.09343 131.175 6.15019 130.528 6.211 129.94C6.27182 129.353 6.32857 128.758 6.39749 128.17C6.46642 127.583 6.52723 126.996 6.6002 126.413C6.67318 125.83 6.73804 125.238 6.81507 124.655C6.87589 124.169 6.94075 123.687 7.00562 123.201C7.09886 122.517 7.19616 121.828 7.30157 121.148C7.30157 121.047 7.32995 120.941 7.34617 120.844C8.08613 115.864 9.09437 110.926 10.3665 106.054L46.7566 106.038Z" fill="#4D4DFF"/>
<path opacity="0.1" d="M5.61084 136.967H46.7564V192.989H8.62308C8.52172 193.564 8.42442 194.143 8.31902 194.722H46.7564V239.903C46.6875 239.882 46.6267 239.858 46.5618 239.834C45.4753 239.404 44.3969 238.951 43.3185 238.465L42.6293 238.153C41.5482 237.643 40.4671 237.103 39.386 236.533C39.0089 236.335 38.6319 236.128 38.2589 235.917C32.2571 232.559 26.8047 228.303 22.091 223.298C21.9531 223.164 21.8234 223.023 21.6856 222.893C21.0288 222.18 20.3842 221.459 19.7598 220.722L19.0706 219.912C18.3328 219.009 17.6192 218.082 16.926 217.142C16.8246 217.005 16.7273 216.867 16.6219 216.737C13.8024 212.832 11.4614 208.604 9.64878 204.142C9.59202 204.008 9.54337 203.863 9.49067 203.737C8.9339 202.306 8.44064 200.862 8.0109 199.404C7.82441 198.792 7.64603 198.189 7.49197 197.553C7.43521 197.367 7.38656 197.184 7.34196 197.002C5.03921 188.024 4.76758 178.697 4.76758 169.435C4.76758 168.353 4.76758 167.268 4.76758 166.195C4.76758 162.449 4.81217 158.678 4.87704 154.912C4.87704 153.936 4.91758 152.964 4.93785 151.984C4.99461 149.497 5.07569 147.01 5.1811 144.524C5.20543 143.831 5.23786 143.143 5.27435 142.454C5.27435 142.057 5.29462 141.661 5.33516 141.264C5.43246 139.822 5.51354 138.392 5.61084 136.967Z" fill="#4D4DFF"/>
<path opacity="0.1" d="M87.5168 84.7558V135.233H56.5796V84.7558H60.9905V67.6653H79.0964V84.7558H87.5168Z" fill="#4D4DFF"/>
<path opacity="0.1" d="M87.5172 136.963H56.584V192.985H87.5172V136.963Z" fill="#4D4DFF"/>
<path opacity="0.1" d="M56.5796 194.722H87.5168V241.296C83.8675 242.343 80.1487 243.132 76.3882 243.657L75.4638 243.77C75.0098 243.823 74.5598 243.867 74.1138 243.912C73.6678 243.956 73.2057 243.989 72.7557 244.017H72.6138C72.4192 244.017 72.2083 244.041 72.0178 244.046H71.811C71.5678 244.046 71.3245 244.07 71.0813 244.078C70.7367 244.098 70.3921 244.102 70.0394 244.106C69.8894 244.106 69.7475 244.106 69.5975 244.106C69.2488 244.106 68.9042 244.106 68.5555 244.106H67.7893C67.5826 244.106 67.3839 244.106 67.169 244.106L66.3866 244.078C65.9812 244.078 65.5433 244.033 65.1217 244.005L64.3433 243.948L63.3743 243.859C62.6932 243.798 62.0162 243.722 61.3473 243.628L60.5364 243.515L60.131 243.458C59.454 243.353 58.785 243.24 58.1039 243.11C57.6053 243.025 57.1107 242.92 56.608 242.818L56.5796 194.722Z" fill="#4D4DFF"/>
<path opacity="0.1" d="M280.904 78.7944H255.396V135.229H280.904V78.7944Z" fill="#4D4DFF"/>
<path opacity="0.1" d="M280.908 136.963V192.989H154.293V168.823H221.734V183.079H255.395V136.963H280.908Z" fill="#4D4DFF"/>
<path opacity="0.1" d="M281.31 254.79H280.904V291.543C276.336 291.156 271.782 290.631 267.242 289.967C246.799 286.977 226.871 281.168 208.027 272.707C202.586 270.26 197.256 267.59 192.037 264.696C183.319 259.871 174.967 254.415 167.047 248.371C165.058 246.848 163.095 245.29 161.157 243.697C159.815 242.592 158.481 241.458 157.131 240.356C156.194 239.599 155.25 238.854 154.293 238.141V194.722H255.059C254.99 194.463 254.921 194.204 254.848 193.949C254.925 194.204 254.998 194.463 255.067 194.722H280.904V254.766C281.042 254.77 281.176 254.782 281.31 254.79Z" fill="#4D4DFF"/>
<path opacity="0.1" d="M347.433 74.5906H330.811V69.4311H338.262V54.0618C338.908 54.2967 339.551 54.5383 340.192 54.7867V69.4311H347.433V74.5906Z" fill="#4D4DFF"/>
<path opacity="0.1" d="M387.48 135.233H305.878C305.878 135.233 305.878 135.233 305.906 135.254L305.87 135.233H290.731V78.7984H295.021V120.512H314.623V95.8079H330.815V76.324H347.437V95.8241H363.629V120.528H387.48V135.233Z" fill="#4D4DFF"/>
<path opacity="0.1" d="M290.731 136.963V192.989H387.48V136.963H290.731ZM413.743 258.937L413.876 214.591H387.48V194.746H290.731V292.146C298.663 292.479 306.608 292.384 314.529 291.862V291.862H314.667C318.451 291.625 322.217 291.279 325.966 290.826H326.051C346.051 288.501 365.606 283.288 384.107 275.351" fill="#4D4DFF"/>
<path opacity="0.1" d="M425.414 194.722H447.984C447.785 206.098 445.498 217.272 440.496 227.591C436.332 236.164 430.547 243.661 423.711 250.209V214.571H425.414V194.722Z" fill="#4D4DFF"/>
<path opacity="0.1" d="M447.996 192.989H425.414V146.168H437.633C443.958 160.93 447.975 177.129 447.996 192.989Z" fill="#4D4DFF"/>
<path opacity="0.1" d="M280.908 94.4836H267.242V112.178H280.908V94.4836Z" fill="#4D4DFF"/>
<path opacity="0.1" d="M280.908 131.159H267.242V135.233H280.908V131.159Z" fill="#4D4DFF"/>
<path opacity="0.1" d="M280.908 136.963H267.242V148.849H280.908V136.963Z" fill="#4D4DFF"/>
<path opacity="0.1" d="M280.908 167.835H267.242V185.529H280.908V167.835Z" fill="#4D4DFF"/>
<path opacity="0.1" d="M280.908 204.511H267.242V222.205H280.908V204.511Z" fill="#4D4DFF"/>
<path opacity="0.1" d="M280.904 254.766C281.042 254.766 281.176 254.766 281.31 254.79H280.904V258.9H267.242V241.186H280.904V254.766Z" fill="#4D4DFF"/>
<path opacity="0.1" d="M280.904 277.854V291.522C276.337 291.136 271.782 290.611 267.242 289.947V277.854H280.904Z" fill="#4D4DFF"/>
<path opacity="0.1" d="M212.863 191.689H154.293V192.989H212.863V191.689Z" fill="#4D4DFF"/>
<path opacity="0.1" d="M212.863 194.718H154.293V199.699H212.863V194.718Z" fill="#4D4DFF"/>
<path opacity="0.1" d="M212.863 216.028H154.293V224.039H212.863V216.028Z" fill="#4D4DFF"/>
<path opacity="0.1" d="M212.859 240.368V248.379H167.047C165.058 246.862 163.093 245.304 161.153 243.705C159.811 242.6 158.481 241.466 157.127 240.368H212.859Z" fill="#4D4DFF"/>
<path opacity="0.1" d="M212.859 264.704V272.706H208.023C202.587 270.258 197.259 267.586 192.037 264.692L212.859 264.704Z" fill="#4D4DFF"/>
<path opacity="0.1" d="M326.063 142.394H314.533V153.911H326.063V142.394Z" fill="#4D4DFF"/>
<path opacity="0.1" d="M76.4167 88.7287H64.8867V100.247H76.4167V88.7287Z" fill="#4D4DFF"/>
<path opacity="0.1" d="M76.4167 115.482H64.8867V127H76.4167V115.482Z" fill="#4D4DFF"/>
<path opacity="0.1" d="M76.4167 142.236H64.8867V153.754H76.4167V142.236Z" fill="#4D4DFF"/>
<path opacity="0.1" d="M76.4167 168.985H64.8867V180.503H76.4167V168.985Z" fill="#4D4DFF"/>
<path opacity="0.1" d="M76.4167 195.739H64.8867V207.256H76.4167V195.739Z" fill="#4D4DFF"/>
<path opacity="0.1" d="M76.4167 222.492H64.8867V234.01H76.4167V222.492Z" fill="#4D4DFF"/>
<path opacity="0.1" d="M370.079 142.394H358.549V153.911H370.079V142.394Z" fill="#4D4DFF"/>
<path opacity="0.1" d="M326.063 170.804H314.533V182.321H326.063V170.804Z" fill="#4D4DFF"/>
<path opacity="0.1" d="M370.079 170.804H358.549V182.321H370.079V170.804Z" fill="#4D4DFF"/>
<path opacity="0.1" d="M326.063 199.209H314.533V210.727H326.063V199.209Z" fill="#4D4DFF"/>
<path opacity="0.1" d="M370.079 199.209H358.549V210.727H370.079V199.209Z" fill="#4D4DFF"/>
<path opacity="0.1" d="M326.063 227.619H314.533V239.137H326.063V227.619Z" fill="#4D4DFF"/>
<path opacity="0.1" d="M370.079 227.619H358.549V239.137H370.079V227.619Z" fill="#4D4DFF"/>
<path opacity="0.1" d="M326.063 256.029H314.533V267.547H326.063V256.029Z" fill="#4D4DFF"/>
<path opacity="0.1" d="M370.079 256.029H358.549V267.547H370.079V256.029Z" fill="#4D4DFF"/>
<path opacity="0.1" d="M314.533 291.862V284.435H326.059V290.805L314.533 291.862Z" fill="#4D4DFF"/>
<path opacity="0.1" d="M7.29736 120.836V127.425H46.7564V120.836H7.29736ZM11.2299 127.012H8.01089V121.241H11.2542L11.2299 127.012ZM15.1584 127.012H11.915V121.241H15.1584V127.012ZM19.0787 127.012H15.8354V121.241H19.0787V127.012ZM23.0072 127.012H19.7679V121.241H23.0113L23.0072 127.012ZM26.9316 127.012H23.6883V121.241H26.9316V127.012ZM30.8601 127.012H27.6168V121.241H30.8601V127.012ZM34.7886 127.012H31.5452V121.241H34.7886V127.012ZM38.713 127.012H35.4697V121.241H38.713V127.012ZM42.6374 127.012H39.3941V121.241H42.6374V127.012ZM46.5618 127.012H43.3185V121.241H46.5618V127.012Z" fill="#4D4DFF"/>
<path opacity="0.1" d="M7.29736 140.008V146.597H46.7564V140.008H7.29736ZM11.2299 146.18H8.01089V140.425H11.2542L11.2299 146.18ZM15.1584 146.18H11.915V140.425H15.1584V146.18ZM19.0787 146.18H15.8354V140.425H19.0787V146.18ZM23.0072 146.18H19.7679V140.425H23.0113L23.0072 146.18ZM26.9316 146.18H23.6883V140.425H26.9316V146.18ZM30.8601 146.18H27.6168V140.425H30.8601V146.18ZM34.7886 146.18H31.5452V140.425H34.7886V146.18ZM38.713 146.18H35.4697V140.425H38.713V146.18ZM42.6374 146.18H39.3941V140.425H42.6374V146.18ZM46.5618 146.18H43.3185V140.425H46.5618V146.18Z" fill="#4D4DFF"/>
<path opacity="0.1" d="M7.29736 159.188V165.79H46.7564V159.188H7.29736ZM11.2299 165.36H8.01089V159.602H11.2542L11.2299 165.36ZM15.1584 165.36H11.915V159.602H15.1584V165.36ZM19.0787 165.36H15.8354V159.602H19.0787V165.36ZM23.0072 165.36H19.7679V159.602H23.0113L23.0072 165.36ZM26.9316 165.36H23.6883V159.602H26.9316V165.36ZM30.8601 165.36H27.6168V159.602H30.8601V165.36ZM34.7886 165.36H31.5452V159.602H34.7886V165.36ZM38.713 165.36H35.4697V159.602H38.713V165.36ZM42.6374 165.36H39.3941V159.602H42.6374V165.36ZM46.5618 165.36H43.3185V159.602H46.5618V165.36Z" fill="#4D4DFF"/>
<path opacity="0.1" d="M7.29736 178.369V184.95H46.7564V178.369H7.29736ZM11.2299 184.541H8.01089V178.778H11.2542L11.2299 184.541ZM15.1584 184.541H11.915V178.778H15.1584V184.541ZM19.0787 184.541H15.8354V178.778H19.0787V184.541ZM23.0072 184.541H19.7679V178.778H23.0113L23.0072 184.541ZM26.9316 184.541H23.6883V178.778H26.9316V184.541ZM30.8601 184.541H27.6168V178.778H30.8601V184.541ZM34.7886 184.541H31.5452V178.778H34.7886V184.541ZM38.713 184.541H35.4697V178.778H38.713V184.541ZM42.6374 184.541H39.3941V178.778H42.6374V184.541ZM46.5618 184.541H43.3185V178.778H46.5618V184.541Z" fill="#4D4DFF"/>
<path opacity="0.1" d="M7.46777 197.545C7.62589 198.164 7.80427 198.784 7.99076 199.396V197.958H11.2341V203.717H9.4989C9.55161 203.851 9.60431 203.996 9.65701 204.122H46.7566V197.545H7.46777ZM15.1707 203.717H11.9273V197.958H15.1707V203.717ZM19.091 203.717H15.8477V197.958H19.091V203.717ZM23.0195 203.717H19.7681V197.958H23.0114L23.0195 203.717ZM26.9439 203.717H23.7006V197.958H26.9439V203.717ZM30.8724 203.717H27.6291V197.958H30.8724V203.717ZM34.8009 203.717H31.5575V197.958H34.8009V203.717ZM38.7253 203.717H35.482V197.958H38.7253V203.717ZM42.6497 203.717H39.4064V197.958H42.6497V203.717ZM46.5741 203.717H43.3308V197.958H46.5741V203.717Z" fill="#4D4DFF"/>
<path opacity="0.1" d="M16.6299 216.725C16.7312 216.855 16.8285 217 16.9339 217.13H19.0786V219.896C19.3097 220.172 19.5367 220.447 19.7719 220.706V217.114H23.0152V222.893H21.7016C21.8314 223.027 21.957 223.168 22.107 223.298H46.7684V216.725H16.6299ZM26.9315 222.893H23.6882V217.138H26.9315V222.893ZM30.86 222.893H27.6166V217.138H30.86V222.893ZM34.7884 222.893H31.5451V217.138H34.7884V222.893ZM38.7128 222.893H35.4695V217.138H38.7128V222.893ZM42.6373 222.893H39.3939V217.138H42.6373V222.893ZM46.5617 222.893H43.3184V217.138H46.5617V222.893Z" fill="#4D4DFF"/>
<path opacity="0.1" d="M38.2754 235.901C38.6443 236.112 39.0214 236.306 39.4024 236.517V236.314H42.6458V238.137L43.335 238.457V236.314H46.5783V239.817C46.6405 239.848 46.7057 239.873 46.7729 239.89V235.901H38.2754Z" fill="#4D4DFF"/>
<path opacity="0.1" d="M305.878 135.233H305.902H305.878ZM280.904 254.761H281.309H280.904ZM254.848 193.945C254.925 194.204 254.99 194.463 255.063 194.718C254.998 194.463 254.929 194.204 254.848 193.945ZM305.878 135.221H305.902H305.878ZM61.0068 74.5785V76.3078H79.1167V74.5785H61.0068ZM280.904 254.761H281.309H280.904ZM254.848 193.945C254.925 194.204 254.99 194.463 255.063 194.718C254.998 194.463 254.929 194.204 254.848 193.945ZM305.878 135.221H305.902H305.878ZM280.904 254.749H281.309H280.904ZM254.848 193.945C254.925 194.204 254.99 194.463 255.063 194.718C254.998 194.463 254.929 194.204 254.848 193.945Z" fill="#4D4DFF"/>
<path d="M187.14 153.762C187.14 153.762 185.543 153.539 185.543 151.214C185.543 148.89 184.399 144.548 184.399 144.548C184.399 144.528 183.41 136.987 182.044 135.788C180.678 134.59 178.922 127.551 178.922 127.551C178.922 127.551 178.622 123.732 178.01 122.91C177.398 122.088 176.571 120.075 175.35 117.203C174.13 114.332 169.042 112.344 169.042 112.344C169.042 112.344 159.843 107.014 157.236 105.277C157 105.134 156.778 104.967 156.576 104.778C156.122 104.183 154.143 104.171 154.143 104.171C153.936 102.867 153.738 101.368 153.673 100.012C153.673 99.8659 153.673 99.7201 153.653 99.5743C156.559 97.8579 158.749 95.1516 159.819 91.9524C159.868 91.7985 159.908 91.6365 159.953 91.4827C160.127 91.4253 160.287 91.3323 160.423 91.2096C160.559 91.0869 160.668 90.9371 160.743 90.7699C160.978 90.2474 160.983 89.6359 161.274 89.1499C161.615 88.5748 162.264 88.2671 162.774 87.8337C164.064 86.7403 164.396 84.8976 164.335 83.2209C164.295 81.8642 164.076 80.4953 164.161 79.1467L164.185 78.8065C164.21 78.604 164.238 78.4016 164.274 78.2072C164.473 77.2028 164.907 76.2551 165.15 75.2589C165.393 74.2626 165.418 73.1408 164.85 72.2822C164.019 71.0227 162.288 70.7716 160.768 70.642C159.045 70.4962 157.504 70.6865 156.401 69.2569C155.885 68.5097 155.305 67.8091 154.666 67.1631C154.439 66.9526 152.234 65.608 152.234 65.5189C150.081 64.523 147.641 64.3361 145.362 64.9924C144.219 65.3245 143.14 65.8672 141.981 66.1385C139.479 66.7298 136.601 66.0899 134.476 67.5195C133.293 68.3295 132.583 69.6174 131.918 70.8728C131.378 71.9069 130.829 72.9396 130.272 73.971C129.376 75.6679 128.464 77.3931 128.087 79.2723C128.008 79.6812 127.959 80.0954 127.941 80.5115V80.5318C127.941 80.6816 127.941 80.8315 127.941 80.9813V81.1717C127.941 81.3134 127.941 81.4511 127.966 81.5767C127.99 81.7022 127.986 81.7427 127.998 81.8277C128.01 81.9128 128.03 82.1031 128.055 82.2327C128.079 82.3623 128.128 82.5891 128.176 82.7673C128.197 82.8443 128.225 82.9172 128.249 82.9901C128.29 83.1278 128.338 83.2614 128.391 83.395C128.42 83.4639 128.448 83.5368 128.48 83.6056C128.541 83.7474 128.614 83.8851 128.687 84.0106C128.72 84.0673 128.744 84.12 128.776 84.1726C128.889 84.361 129.014 84.5422 129.149 84.7153C130.017 85.7966 131.294 86.4851 132.239 87.4976C132.239 87.5381 132.239 87.5786 132.239 87.615C132.239 87.7284 132.239 87.8378 132.239 87.9512C132.289 90.2092 132.89 92.4208 133.991 94.3936C135.092 96.3663 136.659 98.0406 138.555 99.2706C138.555 99.4245 138.575 99.5824 138.583 99.7363C138.662 100.938 138.647 102.145 138.539 103.345C138.374 103.151 138.167 102.996 137.934 102.892C137.701 102.788 137.448 102.738 137.193 102.745C137.019 102.737 136.844 102.752 136.674 102.79L136.637 102.762V102.798C135.745 103.017 134.647 103.944 133.597 106.581C133.597 106.581 130.402 110.177 127.97 110.027C125.537 109.877 119.379 113.769 119.379 113.769C119.379 113.769 113.371 117.665 112.081 121.634C111.361 123.885 110.497 126.087 109.495 128.227L102.068 143.515L100.697 155.645C100.697 155.645 101.455 161.039 101.305 161.861C101.155 162.684 104.423 170.099 104.423 170.099C104.423 170.099 115.219 189.048 119.63 190.02L119.946 189.797C120.135 189.896 120.335 189.971 120.542 190.02L121.45 189.38C121.505 190.093 121.482 190.81 121.382 191.519C120.773 193.39 121.609 205.6 122.671 207.994C123.733 210.387 123.356 241.77 123.356 241.77L123.206 244.54C123.206 244.54 123.206 244.629 123.242 244.783L123.206 245.439L123.315 245.495C123.429 246.374 123.392 247.266 123.206 248.132C122.825 249.347 122.671 252.781 122.671 252.781C122.671 252.781 119.634 272.172 121.073 276.068C122.513 279.964 123.737 284.233 123.737 284.233C123.737 284.233 125.257 289.092 123.81 289.923C122.363 290.753 118.248 292.146 119.095 294.171C119.865 296.042 122.788 301.056 123.222 301.789L123.186 302.173L122.59 308.625C122.686 309.477 122.917 310.308 123.275 311.087C123.928 312.493 125.197 313.951 127.609 313.793C128.014 313.764 128.484 313.716 128.938 313.655C133.353 313.064 138.79 311.095 138.79 311.095C138.508 310.916 138.249 310.703 138.02 310.459V310.459C137.803 310.25 137.631 309.998 137.514 309.719C137.398 309.441 137.34 309.141 137.343 308.84C137.408 307.665 135.206 302.068 134.659 300.691C134.574 300.493 134.529 300.379 134.529 300.379C134.529 300.379 139.548 295.139 138.713 290.494C138.713 290.494 133.159 287.254 134.987 285.476C136.816 283.698 140.083 278.591 140.083 278.591C140.083 278.591 140.233 259.496 140.083 256.645C139.927 254.666 140.021 252.675 140.363 250.72C140.424 250.424 140.497 250.137 140.574 249.853C143.103 250.23 145.655 250.424 148.212 250.432C149.144 250.432 150.093 250.432 151.05 250.376C151.05 250.646 151.062 250.937 151.086 251.25C151.297 255.981 151.69 264.275 152.011 267.357C152.465 271.775 154.974 283.682 154.974 283.682C154.974 283.682 150.186 286.752 155.809 294.317C155.809 294.317 155.809 297.058 155.436 297.455C155.038 298.753 154.717 300.073 154.476 301.408C154.24 302.834 154.143 304.275 154.524 305.025C155.436 306.815 160.91 306.669 160.91 306.669L161.043 306.645C162.077 306.538 163.121 306.637 164.115 306.937C165.11 307.236 166.035 307.73 166.837 308.39C168.916 310.059 176.81 309.326 181.083 308.795C182.757 308.584 183.876 308.39 183.876 308.39C183.931 308.201 183.95 308.003 183.933 307.807C183.888 306.758 183.065 304.458 177.487 302.404C177.487 302.404 172.241 298.881 172.314 295.811H172.204H171.596C172.038 295.787 172.322 295.811 172.322 295.811C172.322 295.811 170.267 288.319 171.106 287.711C171.945 287.104 169.431 278.802 169.431 278.802C169.431 278.802 167.992 264.87 167.915 263.894C167.918 263.056 168.045 262.224 168.292 261.424L167.915 253.786C167.915 253.786 167.842 251.246 167.915 250.42C167.903 249.703 167.845 248.987 167.741 248.278C167.704 247.994 167.668 247.699 167.627 247.407C169.594 246.909 170.871 246.447 170.871 246.447L170.644 219.86C172.314 216.62 172.622 209.512 172.614 204.47C172.614 201.23 172.468 198.833 172.468 198.833L174.75 195.111C174.75 195.111 175.277 190.656 174.442 189.68C174.073 189.239 174.24 188.781 174.544 188.404C174.702 188.279 174.868 188.166 175.042 188.064C175.042 188.064 175.018 188.028 174.99 187.975C175.149 187.842 175.318 187.722 175.496 187.615C175.496 187.615 174.686 186.359 175.411 185.829C176.092 186.29 176.7 186.639 177.163 186.922C177.13 187.218 177.098 187.388 177.098 187.388L177.292 186.983C177.738 187.234 178.01 187.388 178.01 187.388C178.01 187.388 181.586 180.272 181.509 179.223C181.432 178.174 183.941 173.756 183.941 173.756C183.941 173.756 184.245 171.435 185.616 170.463C186.986 169.491 186.678 162.449 186.678 162.449C186.678 162.449 187.059 158.779 187.971 157.281C188.883 155.783 187.14 153.762 187.14 153.762ZM118.722 150.639L118.791 152.336C118.386 151.684 118.094 151.214 118.094 151.214L118.722 150.639Z" fill="url(#paint0_linear)"/>
<path d="M178.204 184.314L177.328 188.04C177.328 188.04 170.315 184.464 169.05 179.92C167.785 175.376 171.166 173.651 171.166 173.651L177.701 176.417L178.204 184.314Z" fill="white"/>
<path opacity="0.1" d="M178.204 184.314L177.328 188.04C177.328 188.04 170.315 184.464 169.05 179.92C167.785 175.376 171.166 173.651 171.166 173.651L177.701 176.417L178.204 184.314Z" fill="black"/>
<path d="M138.843 311.12C138.843 311.12 132.356 313.501 127.896 313.801C125.529 313.959 124.284 312.509 123.644 311.111C123.294 310.335 123.068 309.508 122.975 308.661L123.554 302.242L123.862 298.824L133.337 296.366L134.679 300.464L134.805 300.776C135.344 302.145 137.505 307.714 137.44 308.876C137.437 309.174 137.495 309.469 137.609 309.744C137.723 310.018 137.892 310.267 138.105 310.476C138.322 310.721 138.57 310.937 138.843 311.12V311.12Z" fill="white"/>
<path d="M183.151 307.855C183.167 308.05 183.148 308.246 183.094 308.435C183.094 308.435 169.221 310.747 166.383 308.435C165.582 307.759 164.65 307.258 163.644 306.964C162.639 306.669 161.583 306.588 160.545 306.725C160.545 306.725 155.177 306.871 154.281 305.106C153.908 304.364 154.005 302.927 154.236 301.509C154.472 300.181 154.786 298.868 155.177 297.577L155.392 297.407L156.669 296.382L171.621 295.941H171.734C171.661 298.994 176.81 302.497 176.81 302.497C182.279 304.522 183.086 306.811 183.151 307.855Z" fill="white"/>
<path opacity="0.1" d="M183.15 307.855C183.165 308.05 183.144 308.247 183.09 308.435C183.09 308.435 169.22 310.747 166.382 308.435C165.583 307.759 164.651 307.259 163.646 306.964C162.642 306.67 161.586 306.589 160.549 306.725C160.549 306.725 155.177 306.871 154.285 305.106C153.912 304.36 154.005 302.927 154.236 301.509C156.304 301.716 159.567 302.23 160.849 303.457C162.786 305.324 166.07 307.187 168.085 307.333C169.662 307.434 179.096 307.734 183.15 307.855Z" fill="black"/>
<path opacity="0.1" d="M138.842 311.12C138.842 311.12 132.356 313.501 127.896 313.801C125.529 313.959 124.284 312.509 123.647 311.107C125.297 311.662 127.588 312.245 128.792 311.711C130.219 311.079 135.279 310.67 138.117 310.496C138.333 310.732 138.576 310.942 138.842 311.12V311.12Z" fill="black"/>
<path d="M148.467 119.216C143.115 117.139 136.231 110.274 137.95 107.067C138.332 106.257 138.559 105.384 138.619 104.491C138.73 103.279 138.746 102.06 138.668 100.846C138.547 98.8571 138.308 96.8772 137.95 94.9169C137.95 94.9169 154.658 95.2936 153.685 97.7519C153.401 98.4727 153.356 99.7241 153.433 101.125C153.51 102.527 153.713 104.11 153.924 105.451C154.216 107.289 154.508 108.691 154.508 108.691C154.508 108.691 153.486 110.12 152.886 110.197C152.286 110.274 156.145 122.177 148.467 119.216Z" fill="#CF6F80"/>
<path opacity="0.1" d="M134.792 300.776L134.667 300.914C129.672 294.88 123.631 302.4 123.631 302.4L123.542 302.242L123.85 298.824L133.325 296.366L134.667 300.464L134.792 300.776Z" fill="black"/>
<path opacity="0.1" d="M171.738 296.366C171.738 296.366 168.089 296.289 166.143 298.006C164.197 299.723 154.791 298.379 155.197 298.006C155.317 297.821 155.389 297.61 155.408 297.391L156.685 296.366L171.636 295.924C171.693 296.196 171.738 296.366 171.738 296.366Z" fill="black"/>
<path d="M141.007 248.978C140.736 249.649 140.529 250.345 140.391 251.056C140.053 253.002 139.959 254.983 140.111 256.952C140.261 259.787 140.111 278.785 140.111 278.785C140.111 278.785 136.905 283.852 135.117 285.638C133.329 287.424 138.765 290.631 138.765 290.631C139.576 295.248 134.663 300.464 134.663 300.464C129.668 294.43 123.627 301.955 123.627 301.955C123.627 301.955 120.343 296.285 119.524 294.26C118.705 292.235 122.731 290.834 124.146 290.012C125.561 289.19 124.077 284.342 124.077 284.342C124.077 284.342 122.881 280.093 121.462 276.218C120.043 272.342 123.027 253.048 123.027 253.048C123.027 253.048 123.181 249.622 123.55 248.427C123.736 247.565 123.773 246.678 123.66 245.803C123.635 245.508 123.607 245.261 123.587 245.094C123.566 244.928 123.55 244.851 123.55 244.851L123.607 244.754L125.634 240.98C125.634 240.98 141.98 246.601 141.007 248.978Z" fill="#4D4DFF"/>
<path d="M171.738 295.92C171.738 295.92 168.089 295.843 166.143 297.54C164.197 299.237 154.792 297.913 155.197 297.54C155.602 297.168 155.57 294.41 155.57 294.41C150.052 286.885 154.759 283.832 154.759 283.832C154.759 283.832 152.294 271.986 151.848 267.592C151.536 264.522 151.151 256.272 150.944 251.562C150.855 249.537 150.802 248.144 150.802 248.144L155.31 247.237L155.89 247.119L166.763 244.941C166.763 244.941 167.063 246.966 167.266 248.622C167.367 249.329 167.424 250.042 167.436 250.756C167.363 251.566 167.436 254.101 167.436 254.101L167.805 261.703C167.564 262.5 167.44 263.328 167.436 264.161C167.509 265.129 168.924 278.988 168.924 278.988C168.924 278.988 171.385 287.258 170.546 287.853C169.707 288.448 171.738 295.92 171.738 295.92Z" fill="#4D4DFF"/>
<path opacity="0.1" d="M153.685 97.7519C153.401 98.4727 153.356 99.7241 153.434 101.125C151.196 102.472 148.623 103.16 146.011 103.111C143.399 103.062 140.854 102.279 138.668 100.85C138.548 98.8598 138.308 96.8785 137.951 94.9169C137.951 94.9169 154.658 95.2855 153.685 97.7519Z" fill="black"/>
<path d="M160.143 88.8016C160.146 90.261 159.916 91.7116 159.462 93.0986C158.446 96.2063 156.363 98.8553 153.581 100.577C150.8 102.299 147.498 102.984 144.26 102.509C141.022 102.035 138.056 100.432 135.887 97.9845C133.717 95.5369 132.484 92.4019 132.404 89.1337C132.404 89.0203 132.404 88.915 132.404 88.8016C132.373 86.962 132.708 85.1346 133.391 83.4258C134.074 81.7171 135.091 80.1614 136.382 78.8493C137.673 77.5372 139.213 76.4951 140.912 75.7838C142.61 75.0724 144.434 74.7061 146.276 74.7061C148.117 74.7061 149.941 75.0724 151.639 75.7838C153.338 76.4951 154.878 77.5372 156.169 78.8493C157.46 80.1614 158.477 81.7171 159.16 83.4258C159.843 85.1346 160.178 86.962 160.147 88.8016H160.143Z" fill="#CF6F80"/>
<path opacity="0.1" d="M148.467 119.216C143.115 117.139 136.231 110.274 137.95 107.067C138.332 106.257 138.559 105.384 138.619 104.491L145.945 110.505L150.478 114.219L153.924 105.455C154.216 107.293 154.508 108.695 154.508 108.695C154.508 108.695 153.486 110.124 152.886 110.201C152.286 110.278 156.145 122.177 148.467 119.216Z" fill="black"/>
<path d="M167.412 145.796L161.294 248.46L153.316 248.982L132.656 189.453L136.045 118.779L136.759 103.847L145.945 111.384L150.482 115.097L154.029 106.078L160.625 111.821L167.412 145.796Z" fill="#4D4DFF"/>
<path opacity="0.1" d="M141.008 248.978C140.736 249.649 140.53 250.345 140.392 251.056C134.586 250.16 128.948 248.401 123.664 245.836L123.555 245.779L123.591 245.127L123.611 244.787L125.639 241.012C125.639 241.012 141.981 246.601 141.008 248.978Z" fill="black"/>
<path opacity="0.1" d="M155.404 251.072C153.919 251.324 152.423 251.495 150.92 251.582C150.831 249.557 150.778 248.164 150.778 248.164L155.286 247.257L155.404 251.072Z" fill="black"/>
<path opacity="0.1" d="M167.242 248.642C164.36 249.391 159.908 250.234 155.923 249.707L155.866 247.14L166.739 244.961C166.739 244.961 167.039 246.966 167.242 248.642Z" fill="black"/>
<path opacity="0.1" d="M155.85 250.177C139.228 253.012 124.004 244.884 124.004 244.884L124.15 242.13C124.15 242.13 124.527 210.909 123.481 208.516C122.436 206.122 121.621 193.985 122.213 192.122C122.804 190.259 120.052 162.323 120.052 162.323L119.606 150.983L103.284 144.378L110.581 129.183C111.567 127.053 112.415 124.861 113.119 122.622C114.388 118.678 120.279 114.802 120.279 114.802C120.279 114.802 126.319 110.93 128.707 111.076C131.095 111.222 134.225 107.65 134.225 107.65C136.536 101.765 138.628 104.43 138.628 104.43C138.628 104.71 138.628 104.43 138.514 105.301C137.703 111.76 151.625 132.172 151.824 132.532L153.15 164.794L154.492 205.62L155.85 250.177Z" fill="black"/>
<path d="M155.404 250.177C138.782 253.012 123.555 244.884 123.555 244.884L123.705 242.13C123.705 242.13 124.082 210.909 123.032 208.516C121.982 206.122 121.171 193.985 121.767 192.122C122.363 190.259 119.606 162.323 119.606 162.323L119.156 150.983L102.826 144.354L110.123 129.159C111.107 127.027 111.954 124.836 112.661 122.598C113.926 118.653 119.821 114.778 119.821 114.778C119.821 114.778 125.861 110.906 128.245 111.052C130.629 111.197 133.763 107.625 133.763 107.625C136.078 101.741 138.628 104.406 138.628 104.406C138.628 104.685 138.385 104.811 138.514 105.277C140.298 111.542 151.18 132.147 151.378 132.508L152.72 164.769L154.062 205.596L155.404 250.177Z" fill="white"/>
<path opacity="0.1" d="M150.924 133.427C149.136 132.682 139.665 121.881 139.665 121.881V119.423C139.321 118.613 137.274 119.107 135.611 119.674L136.325 104.742L137.136 105.414C138.911 111.675 150.717 133.067 150.924 133.427Z" fill="black"/>
<path d="M151.374 132.532C149.582 131.787 140.111 120.986 140.111 120.986V118.528C139.767 117.718 137.719 118.212 136.057 118.779L136.775 103.847L137.586 104.519C139.365 110.78 151.175 132.176 151.374 132.532Z" fill="white"/>
<path opacity="0.1" d="M124.004 186.4C124.227 186.4 135.563 185.209 135.563 185.209C135.563 185.209 142.427 198.691 141.977 201.971C141.527 205.252 140.712 208.156 137.951 207.641C135.19 207.127 123.092 208.046 123.092 208.046L124.004 186.4Z" fill="black"/>
<path d="M123.554 185.505C123.777 185.505 135.113 184.314 135.113 184.314C135.113 184.314 141.972 197.8 141.526 201.076C141.08 204.353 140.257 207.261 137.501 206.746C134.744 206.232 122.642 207.151 122.642 207.151L123.554 185.505Z" fill="white"/>
<path d="M132.096 179.175C132.096 179.175 142.499 184.759 142.722 186.464C142.945 188.169 137.427 185.719 136.236 185.424C135.451 185.235 134.652 185.11 133.848 185.051L125.897 185.266L132.096 179.175Z" fill="#CF6F80"/>
<path opacity="0.1" d="M148.021 134.124C148.625 134.124 149.116 133.634 149.116 133.03C149.116 132.426 148.625 131.937 148.021 131.937C147.416 131.937 146.926 132.426 146.926 133.03C146.926 133.634 147.416 134.124 148.021 134.124Z" fill="black"/>
<path d="M148.021 133.678C148.625 133.678 149.116 133.189 149.116 132.585C149.116 131.981 148.625 131.491 148.021 131.491C147.416 131.491 146.926 131.981 146.926 132.585C146.926 133.189 147.416 133.678 148.021 133.678Z" fill="#3F3D56"/>
<path opacity="0.1" d="M150.036 181.459C150.641 181.459 151.131 180.969 151.131 180.365C151.131 179.761 150.641 179.272 150.036 179.272C149.431 179.272 148.941 179.761 148.941 180.365C148.941 180.969 149.431 181.459 150.036 181.459Z" fill="black"/>
<path d="M150.036 181.009C150.641 181.009 151.131 180.52 151.131 179.916C151.131 179.312 150.641 178.822 150.036 178.822C149.431 178.822 148.941 179.312 148.941 179.916C148.941 180.52 149.431 181.009 150.036 181.009Z" fill="#3F3D56"/>
<path opacity="0.1" d="M149.112 157.791C149.716 157.791 150.206 157.302 150.206 156.698C150.206 156.094 149.716 155.604 149.112 155.604C148.507 155.604 148.017 156.094 148.017 156.698C148.017 157.302 148.507 157.791 149.112 157.791Z" fill="black"/>
<path d="M149.112 157.346C149.716 157.346 150.206 156.856 150.206 156.252C150.206 155.648 149.716 155.159 149.112 155.159C148.507 155.159 148.017 155.648 148.017 156.252C148.017 156.856 148.507 157.346 149.112 157.346Z" fill="#3F3D56"/>
<path d="M174.345 184.824C174.345 184.824 175.091 185.942 174.345 186.464C173.599 186.987 174.418 188.25 174.418 188.25C174.418 188.25 172.557 189.34 173.376 190.32C174.195 191.3 173.676 195.726 173.676 195.726L171.438 199.428C171.438 199.428 171.572 201.813 171.58 205.037C171.58 210.067 171.284 217.138 169.646 220.362L169.873 246.812C169.873 246.812 162.036 249.671 155.477 248.8L154.504 206.357C154.504 206.357 155.923 182.289 156.446 177.672C156.752 175.275 156.876 172.859 156.819 170.443C156.819 170.443 156.596 163.218 155.846 159.865C155.846 159.865 155.035 145.338 154.954 141.316C154.917 139.393 155.019 133.78 155.132 128.442C155.258 122.606 155.4 117.102 155.4 117.102L153.92 105.406C153.92 105.406 155.4 105.256 155.846 105.852C156.045 106.038 156.263 106.205 156.494 106.35V106.35C159.048 108.075 168.073 113.38 168.073 113.38C168.073 113.38 173.068 115.365 174.264 118.208C175.46 121.051 176.291 123.068 176.87 123.878C177.45 124.688 177.766 128.494 177.766 128.494C177.766 128.494 179.485 135.501 180.827 136.687C182.169 137.874 183.15 145.423 183.15 145.423L171.292 154.738C171.292 154.738 170.25 170.233 170.027 170.832C169.804 171.431 174.345 184.824 174.345 184.824Z" fill="white"/>
<path d="M174.795 184.824C174.795 184.824 175.537 185.942 174.795 186.464C174.053 186.987 174.864 188.25 174.864 188.25C174.864 188.25 173.015 189.352 173.826 190.332C174.637 191.312 174.126 195.739 174.126 195.739L171.888 199.44C171.888 199.44 172.022 201.826 172.034 205.049C172.034 210.079 171.738 217.15 170.1 220.374L170.323 246.824C170.323 246.824 162.474 249.683 155.923 248.812L154.954 206.37C154.954 206.37 156.373 182.301 156.896 177.684C157.202 175.287 157.325 172.871 157.265 170.455C157.265 170.455 157.042 163.23 156.296 159.877C156.296 159.877 155.485 145.35 155.4 141.329C155.363 139.405 155.469 133.792 155.578 128.454C155.704 122.618 155.846 117.114 155.846 117.114L153.892 105.26C153.892 105.26 155.846 105.26 156.296 105.864C156.494 106.052 156.711 106.219 156.944 106.362C159.498 108.087 168.527 113.392 168.527 113.392C168.527 113.392 173.518 115.377 174.714 118.22C175.91 121.063 176.741 123.08 177.325 123.89C177.908 124.7 178.217 128.507 178.217 128.507C178.217 128.507 179.935 135.513 181.277 136.7C182.619 137.886 183.588 145.419 183.588 145.419L171.73 154.734C171.73 154.734 170.688 170.228 170.461 170.828C170.234 171.427 174.795 184.824 174.795 184.824Z" fill="white"/>
<path opacity="0.1" d="M160.593 120.553L161.663 123.671L156.028 129.341C156.154 123.509 156.295 118.001 156.295 118.001L154.341 106.147C154.341 106.147 156.295 106.147 156.745 106.751C156.943 106.939 157.16 107.104 157.394 107.245L162.186 121.055L160.593 120.553Z" fill="black"/>
<path d="M160.143 119.658L161.217 122.776L155.582 128.446C155.708 122.61 155.85 117.106 155.85 117.106L153.892 105.252C153.892 105.252 155.85 105.252 156.296 105.856C156.495 106.043 156.712 106.21 156.944 106.354L161.74 120.16L160.143 119.658Z" fill="white"/>
<path opacity="0.1" d="M160.143 88.8016C160.146 90.261 159.916 91.7116 159.462 93.0986C159.385 93.1105 159.307 93.107 159.232 93.0882C159.157 93.0694 159.086 93.0358 159.024 92.9892C158.919 89.3443 157.123 85.9222 154.913 83.0103C154.293 82.1311 153.541 81.3526 152.683 80.7019C151.816 80.0515 150.738 79.7469 149.659 79.8474C148.443 80.0134 147.368 80.8396 146.14 80.9449C144.518 81.0785 143.067 79.9567 141.457 79.9C140.803 79.9062 140.158 80.0518 139.564 80.3269C138.97 80.6021 138.442 81.0005 138.015 81.4957C137.17 82.4949 136.542 83.6589 136.171 84.9138C135.533 86.8166 135.186 88.8044 135.141 90.8104C135.121 91.9443 135.011 93.3659 133.957 93.7789C134.036 92.945 133.942 92.1036 133.678 91.3082C133.415 90.5128 132.99 89.7806 132.429 89.158L132.404 89.1337C132.404 89.0203 132.404 88.915 132.404 88.8016C132.373 86.962 132.708 85.1346 133.391 83.4258C134.074 81.7171 135.091 80.1614 136.382 78.8493C137.673 77.5372 139.213 76.4951 140.912 75.7838C142.61 75.0724 144.434 74.7061 146.276 74.7061C148.117 74.7061 149.941 75.0724 151.639 75.7838C153.338 76.4951 154.878 77.5372 156.169 78.8493C157.46 80.1614 158.477 81.7171 159.16 83.4258C159.843 85.1346 160.178 86.962 160.147 88.8016H160.143Z" fill="black"/>
<path d="M152.019 66.7987C149.912 65.8087 147.516 65.6215 145.281 66.2722C144.158 66.6043 143.1 67.1429 141.96 67.4142C139.528 68.0015 136.69 67.3656 134.602 68.7871C133.443 69.5971 132.745 70.8769 132.097 72.1202L130.475 75.2062C129.591 76.895 128.699 78.6121 128.33 80.471C127.961 82.3299 128.184 84.4116 129.364 85.906C130.224 86.9954 131.492 87.6798 132.425 88.7044C132.984 89.3277 133.407 90.0594 133.67 90.8539C133.932 91.6483 134.027 92.4884 133.949 93.3213C135.007 92.9163 135.109 91.4907 135.133 90.3568C135.178 88.3508 135.525 86.363 136.163 84.4602C136.533 83.205 137.161 82.0407 138.007 81.0421C138.435 80.5473 138.963 80.1492 139.556 79.874C140.15 79.5989 140.795 79.4531 141.449 79.4464C143.071 79.5031 144.527 80.6209 146.132 80.4872C147.348 80.386 148.427 79.5558 149.651 79.3938C150.731 79.2917 151.809 79.5965 152.675 80.2483C153.533 80.898 154.283 81.6767 154.901 82.5567C157.115 85.4686 158.911 88.8826 159.016 92.5356C159.474 92.8718 160.135 92.4344 160.362 91.916C160.589 91.3976 160.597 90.7901 160.885 90.296C161.218 89.725 161.854 89.4213 162.353 88.992C163.618 87.9026 163.934 86.068 163.885 84.4035C163.837 82.739 163.512 81.0502 163.828 79.414C164.019 78.4096 164.449 77.4701 164.684 76.4779C164.919 75.4856 164.947 74.3719 164.392 73.5174C163.581 72.2619 161.874 72.0149 160.386 71.8974C158.696 71.7516 157.184 71.9379 156.105 70.5164C155.599 69.7746 155.029 69.0781 154.402 68.4348C154.188 68.2242 152.019 66.8877 152.019 66.7987Z" fill="#512E4E"/>
<path opacity="0.1" d="M107.954 152.202L103.717 144.378L102.375 156.451C102.375 156.451 103.121 161.813 102.971 162.635C102.821 163.457 106.028 170.828 106.028 170.828C106.028 170.828 116.622 189.676 120.948 190.648L135.563 180.215L131.687 175.299C131.687 175.299 130.345 174.776 130.009 175.299C130.009 175.299 122.812 162.931 122.066 162.036C121.321 161.141 121.466 159.355 121.466 159.355C121.466 159.355 120.348 158.164 120.721 157.046C121.094 155.928 118.56 152.053 118.56 152.053L120.871 149.894L107.954 152.202Z" fill="black"/>
<path d="M103.94 143.487L102.821 144.378L101.479 156.451C101.479 156.451 102.225 161.813 102.075 162.635C101.925 163.457 105.136 170.828 105.136 170.828C105.136 170.828 115.726 189.676 120.052 190.648L134.671 180.215L130.791 175.299C130.791 175.299 129.449 174.776 129.113 175.299C129.113 175.299 121.916 162.931 121.171 162.036C120.425 161.141 120.575 159.355 120.575 159.355C120.575 159.355 119.456 158.164 119.829 157.046C120.202 155.928 117.664 152.053 117.664 152.053L119.975 149.894L103.94 143.487Z" fill="white"/>
<path opacity="0.1" d="M173.376 190.782C174.187 191.766 173.676 196.184 173.676 196.184L171.438 199.886C171.438 199.886 171.572 202.275 171.58 205.495L167.818 206.669C167.478 206.775 167.117 206.799 166.766 206.737C166.416 206.676 166.084 206.532 165.801 206.316C165.517 206.101 165.289 205.821 165.136 205.5C164.982 205.179 164.908 204.826 164.919 204.47L165.568 183.569L174.345 186.922C173.599 187.44 174.418 188.712 174.418 188.712C174.418 188.712 172.557 189.797 173.376 190.782Z" fill="black"/>
<path d="M173.826 190.332C174.637 191.316 174.126 195.739 174.126 195.739L171.888 199.44C171.888 199.44 172.022 201.826 172.034 205.049L168.203 206.244C167.87 206.347 167.517 206.37 167.173 206.309C166.83 206.249 166.506 206.108 166.228 205.897C165.951 205.686 165.728 205.412 165.577 205.098C165.427 204.783 165.354 204.438 165.365 204.089L166.017 183.123L174.799 186.477C174.049 186.995 174.868 188.263 174.868 188.263C174.868 188.263 173.015 189.352 173.826 190.332Z" fill="white"/>
<path d="M176.733 180.369C176.733 180.369 176.137 184.172 174.645 184.395C173.153 184.618 172.484 190.547 170.996 190.336C169.508 190.125 170.493 184.824 170.546 183.796C170.599 182.767 168.924 178.506 170.177 177.538C171.43 176.571 175.395 177.538 175.395 177.538L176.733 180.369Z" fill="#CF6F80"/>
<path opacity="0.1" d="M179.907 151.085L182.721 145.415C182.721 145.415 183.84 149.736 183.84 152.045C183.84 154.353 185.404 154.58 185.404 154.58C185.404 154.58 187.119 156.605 186.215 158.079C185.311 159.553 184.946 163.222 184.946 163.222C184.946 163.222 185.242 170.224 183.9 171.192C182.558 172.16 182.279 174.473 182.279 174.473C182.279 174.473 179.814 178.867 179.891 179.912C179.968 180.957 176.461 188.032 176.461 188.032C176.461 188.032 178.176 179.239 168.182 175.441C168.182 175.441 168.105 172.456 168.851 171.638C169.597 170.82 170.761 170.447 170.031 166.312C169.301 162.177 169.82 157.236 169.82 156.244C169.82 155.252 172.058 149.064 172.058 149.064L179.907 151.085Z" fill="black"/>
<path d="M181.123 144.605L183.58 145.415C183.58 145.415 184.703 149.736 184.703 152.044C184.703 154.353 186.268 154.58 186.268 154.58C186.268 154.58 187.983 156.605 187.079 158.079C186.175 159.553 185.814 163.222 185.814 163.222C185.814 163.222 186.11 170.224 184.768 171.192C183.426 172.16 183.126 174.473 183.126 174.473C183.126 174.473 180.665 178.867 180.742 179.912C180.819 180.957 177.308 188.032 177.308 188.032C177.308 188.032 179.027 179.239 169.03 175.441C169.03 175.441 168.957 172.456 169.703 171.638C170.449 170.82 171.612 170.447 170.883 166.312C170.153 162.177 170.672 157.236 170.672 156.244C170.672 155.252 172.91 149.064 172.91 149.064L181.123 144.605Z" fill="white"/>
<path opacity="0.1" d="M126.858 291.563C126.858 291.563 130.775 289.104 133.345 290.89C135.915 292.677 126.858 291.563 126.858 291.563Z" fill="black"/>
<path opacity="0.1" d="M157.289 283.961C157.289 283.961 160.755 283.516 163.666 286.646C166.577 289.777 157.289 283.961 157.289 283.961Z" fill="black"/>
<g opacity="0.1">
<path opacity="0.1" d="M162.361 88.105C161.862 88.5343 161.221 88.8421 160.889 89.4132C160.605 89.9032 160.597 90.5066 160.37 91.0331C160.143 91.5596 159.482 91.9889 159.024 91.6568C158.919 88.0119 157.119 84.5898 154.909 81.6738C154.291 80.7939 153.54 80.0151 152.683 79.3654C151.816 78.7137 150.736 78.409 149.655 78.5109C148.439 78.6769 147.368 79.5031 146.14 79.6044C144.518 79.7421 143.063 78.6202 141.453 78.5635C140.799 78.57 140.154 78.7161 139.561 78.992C138.968 79.2679 138.441 79.6673 138.015 80.1632C137.169 81.1604 136.541 82.3233 136.171 83.5773C135.534 85.4802 135.187 87.4679 135.141 89.4739C135.117 90.6038 135.011 92.0132 133.965 92.4344C133.99 92.7336 133.99 93.0342 133.965 93.3334C135.019 92.9285 135.125 91.5029 135.149 90.3689C135.194 88.3629 135.541 86.3751 136.179 84.4723C136.549 83.2171 137.177 82.0529 138.024 81.0542C138.45 80.5596 138.978 80.1614 139.57 79.8863C140.163 79.6112 140.808 79.4653 141.461 79.4586C143.083 79.5153 144.543 80.633 146.148 80.4994C147.364 80.3981 148.443 79.5679 149.663 79.4059C150.744 79.304 151.824 79.6088 152.691 80.2604C153.549 80.9101 154.299 81.6889 154.917 82.5689C157.127 85.4807 158.927 88.8948 159.032 92.5478C159.49 92.8839 160.151 92.4465 160.378 91.9281C160.605 91.4098 160.613 90.8023 160.897 90.3082C161.23 89.7372 161.87 89.4334 162.369 89.0041C163.634 87.9147 163.95 86.0801 163.901 84.4156C163.901 84.363 163.901 84.3103 163.901 84.2617C163.824 85.7035 163.439 87.1736 162.361 88.105Z" fill="black"/>
<path opacity="0.1" d="M132.433 87.8175C131.501 86.7929 130.228 86.1085 129.372 85.0231C128.652 84.0623 128.24 82.9057 128.192 81.7063C128.065 83.2051 128.484 84.6995 129.372 85.9141C130.228 87.0035 131.501 87.6879 132.433 88.7125C133.328 89.7148 133.866 90.9852 133.961 92.325C134.024 91.5096 133.92 90.6901 133.657 89.9155C133.395 89.141 132.978 88.4274 132.433 87.8175V87.8175Z" fill="black"/>
<path opacity="0.1" d="M164.692 75.5909C164.452 76.5832 164.027 77.5268 163.832 78.5271C163.717 79.1955 163.675 79.8745 163.707 80.552C163.72 80.1661 163.762 79.7817 163.832 79.4019C164.027 78.3975 164.452 77.4579 164.692 76.4657C164.831 75.9184 164.876 75.3515 164.825 74.7891C164.8 75.0592 164.756 75.3272 164.692 75.5909V75.5909Z" fill="black"/>
</g>
<path opacity="0.1" d="M53.8108 308.03C75.628 308.03 93.3144 305.192 93.3144 301.691C93.3144 298.191 75.628 295.353 53.8108 295.353C31.9935 295.353 14.3071 298.191 14.3071 301.691C14.3071 305.192 31.9935 308.03 53.8108 308.03Z" fill="#4D4DFF"/>
<path d="M55.0839 180.276H52.542V237.448H55.0839V180.276Z" fill="#535461"/>
<path d="M71.0572 237.274L70.8991 239.85L70.6721 243.495L70.5788 245.009L70.3558 248.654L70.2585 250.169L70.0315 253.814L67.4693 295.151C67.3579 296.929 66.5723 298.599 65.2723 299.819C63.9724 301.039 62.2557 301.719 60.4718 301.72H47.1499C45.3664 301.719 43.6502 301.039 42.3509 299.819C41.0516 298.598 40.2668 296.929 40.1565 295.151L37.6064 253.785L37.3794 250.141L37.2861 248.626L37.0591 244.981L36.9659 243.466L36.7388 239.822L36.5767 237.246C36.5485 236.75 36.622 236.254 36.7927 235.787C36.9634 235.321 37.2277 234.895 37.5694 234.534C37.9111 234.173 38.3229 233.886 38.7796 233.69C39.2363 233.494 39.7283 233.394 40.2254 233.394H67.4733C67.9685 233.399 68.4576 233.504 68.9103 233.705C69.3631 233.905 69.7699 234.196 70.1058 234.56C70.4416 234.923 70.6993 235.352 70.8629 235.818C71.0266 236.285 71.0927 236.781 71.0572 237.274V237.274Z" fill="#3F3D56"/>
<path d="M70.8992 239.85L70.6721 243.483H36.9497L36.7227 239.85H70.8992Z" fill="#9D9CB5"/>
<path d="M70.5784 244.997L70.3555 248.634H37.2695L37.0425 244.997H70.5784Z" fill="#9D9CB5"/>
<path d="M70.2582 250.153L70.0352 253.785H37.5898L37.3628 250.153H70.2582Z" fill="#9D9CB5"/>
<path d="M32.843 201.704C47.6447 212.404 53.8232 229.138 53.8232 229.138C53.8232 229.138 35.9849 228.526 21.1792 217.827C6.3734 207.127 0.207031 190.397 0.207031 190.397C0.207031 190.397 18.0372 191.004 32.843 201.704Z" fill="#4D4DFF"/>
<path d="M0.194824 190.397C0.194824 190.397 18.7142 200.663 24.6535 209.164C30.5929 217.665 53.8231 229.138 53.8231 229.138" stroke="#535461" stroke-width="2" stroke-miterlimit="10"/>
<path d="M42.3986 180.151C50.4542 185.97 53.8232 195.078 53.8232 195.078C53.8232 195.078 44.1135 194.746 36.0538 188.927C27.9942 183.107 24.6333 173.995 24.6333 173.995C24.6333 173.995 34.3389 174.327 42.3986 180.151Z" fill="#4D4DFF"/>
<path d="M24.6333 173.995C24.6333 173.995 34.7119 179.584 37.9431 184.209C41.1742 188.834 53.8232 195.078 53.8232 195.078" stroke="#535461" stroke-width="2" stroke-miterlimit="10"/>
<path d="M65.519 194.617C56.2633 204.778 54.3052 218.057 54.3052 218.057C54.3052 218.057 67.3555 214.858 76.603 204.693C85.8505 194.528 87.8168 181.252 87.8168 181.252C87.8168 181.252 74.7746 184.456 65.519 194.617Z" fill="#4D4DFF"/>
<path d="M87.8249 181.256C87.8249 181.256 75.7679 191.673 72.7029 198.849C69.638 206.025 54.3052 218.057 54.3052 218.057" stroke="#535461" stroke-width="2" stroke-miterlimit="10"/>
<path d="M405.281 191.041C405.281 191.041 398.588 157.775 401.15 153.636C401.15 153.636 401.243 149.789 401.089 144.884C401.089 144.698 401.089 144.512 401.089 144.321C401.54 144.622 402.01 144.892 402.496 145.131C404.857 146.343 407.567 146.692 410.159 146.12L408.131 143.864C407.645 143.325 407.138 142.742 407.033 142.029C406.927 141.316 407.219 140.681 407.471 140.045C409.396 135.185 409.498 129.074 405.788 125.364C402.654 122.246 401.892 118.22 398.491 115.373C396.006 113.287 394.639 110.23 393.35 107.273C392.26 104.774 391.161 102.255 390.536 99.6067C390.05 97.5372 389.855 95.3948 389.186 93.3739C388.518 91.3531 387.265 89.3889 385.307 88.4857C384.609 88.1658 383.835 87.9836 383.198 87.5583C382.363 86.9954 381.861 86.0801 381.257 85.2782C378.188 81.2284 367.91 83.6137 363.045 85.258C361.723 85.6721 360.498 86.3499 359.445 87.2505L359.49 87.1776C359.526 87.1169 359.571 87.0561 359.611 86.9954C359.079 87.4255 358.619 87.9383 358.249 88.5141C357.54 89.6359 357.244 90.944 356.652 92.159C355.938 93.5967 351.969 97.6101 353.676 99.226C353.796 99.3345 353.933 99.4222 354.082 99.4852C354.722 99.7516 355.428 99.8221 356.109 99.6877L356.036 99.8618C355.453 101.288 355.154 102.813 355.156 104.353C355.156 111.007 360.649 116.402 367.432 116.402C368.707 116.403 369.975 116.207 371.19 115.822C371.218 115.976 371.243 116.13 371.271 116.284C371.271 116.345 371.291 116.406 371.3 116.466L371.085 116.766C371.074 116.748 371.062 116.73 371.048 116.713L364.683 125.599C363.71 126.283 358.107 130.333 357.791 133.371C357.459 136.695 357.126 140.587 357.126 140.587L357.082 141.422C356.803 141.654 356.478 141.823 356.128 141.917C355.778 142.012 355.412 142.029 355.055 141.968C353.068 141.644 353.068 149.258 353.068 149.258C353.068 149.258 351.746 150.473 350.838 149.42C349.93 148.367 347.53 151.935 347.53 151.935L332.489 152.583L332.145 152.603L331.334 150.097C331.246 149.832 331.058 149.613 330.81 149.486C330.562 149.359 330.274 149.336 330.008 149.42C329.945 149.441 329.884 149.467 329.826 149.497L329.769 149.53L329.663 149.602L329.611 149.651C329.582 149.677 329.555 149.706 329.53 149.736L329.481 149.793L329.457 149.817C329.363 149.946 329.301 150.096 329.276 150.253C329.25 150.411 329.262 150.572 329.311 150.724L330.008 152.875C327.105 153.458 324.138 155.102 326.558 159.63L314.29 157.366L318.259 160.695L338.749 164.919C338.477 165.405 338.655 166.11 339.503 167.102C343.152 171.383 349.8 172.545 352.476 172.845C353.183 174.424 354.065 175.918 355.107 177.3L354.876 181.564C354.876 181.564 348.102 214.068 346.861 215.717C347.487 215.008 348.061 214.254 348.576 213.461C346.61 220.139 343.861 229.28 343.139 230.649C341.98 232.835 340.906 241.684 342.227 242.251C342.633 242.426 343.792 242.341 345.446 242.215V242.948L345.373 270.726C345.373 270.726 345.706 287.764 344.794 289.388C343.881 291.012 343.638 294.418 343.638 294.418C343.638 294.418 339.989 301.137 337.099 303.838C337.079 303.859 337.057 303.878 337.034 303.895L336.945 303.263C336.945 303.263 333.47 307.645 325.784 307.398C325.784 307.398 321.158 310.403 328.017 310.565C334.877 310.727 343.638 310.322 343.638 310.322C343.638 310.322 349.756 301.007 354.88 302.222V309.281H356.449V302.109C357.177 301.63 357.8 301.009 358.28 300.283C358.76 299.557 359.087 298.741 359.242 297.885C359.377 297.002 359.278 296.1 358.957 295.267C358.636 294.433 358.102 293.698 357.41 293.134C357.099 292.853 356.849 292.511 356.677 292.129C356.505 291.747 356.413 291.334 356.409 290.915L356.352 290.963C356.352 290.822 356.315 290.676 356.299 290.526C355.849 286.881 355.286 279.36 357.276 273.796C360.005 266.166 360.832 255.539 358.845 249.213C358.204 247.191 357.678 245.135 357.268 243.053C357.219 242.79 357.175 242.539 357.134 242.304C358.492 242.488 359.837 242.758 361.16 243.114C365.762 244.382 375.828 244.617 384.423 244.548C384.443 244.783 384.467 245.03 384.496 245.277C384.649 246.994 384.969 248.692 385.453 250.347C386.531 253.587 387.026 267.871 387.026 267.871C387.026 267.871 388.416 279.616 387.658 284.394C387.253 287.051 386.847 289.72 386.616 292.401V292.454C386.616 292.454 384.338 298.933 382.671 302.453C382.631 302.542 382.586 302.631 382.546 302.716C382.102 302.757 381.664 302.853 381.244 303.004C381.244 303.004 379.011 307.458 376.785 308.196C374.559 308.933 375.297 311.358 380.336 310.468C385.376 309.577 392.985 308.848 392.985 308.848L393.314 304.304L394.862 302.368L394.457 306.9L396.107 306.576L395.888 301.064L398.422 297.897C398.422 297.897 401.483 295.175 396.934 289.821V289.939C396.885 289.862 396.841 289.781 396.788 289.704V289.68C396.034 288.513 395.434 286.338 396.533 282.479C398.519 275.505 399.675 269.175 399.675 269.175C399.675 269.175 404.11 252.218 398.779 244.195H399.014C398.467 243.066 398.081 241.867 397.866 240.631C397.839 240.486 397.815 240.336 397.793 240.182C401.738 239.955 405.61 239.242 408.768 237.703C408.756 237.687 406.854 197.448 405.281 191.041ZM355.201 162.975V163.056L354.39 163.097L355.201 162.975ZM352.419 163.36C352.286 163.389 352.161 163.449 352.054 163.534C351.706 164.027 351.487 164.599 351.418 165.198L350.153 164.915C350.153 164.915 349.265 164.725 347.988 164.51L347.384 163.903C349.046 163.765 350.773 163.562 352.419 163.36V163.36Z" fill="url(#paint1_linear)"/>
<path d="M394.271 301.12L393.788 306.859L395.406 306.535L395.162 300.31L394.271 301.12Z" fill="#1D2366"/>
<path d="M357.365 273.873C355.415 279.421 355.967 286.909 356.405 290.546C356.567 291.891 356.717 292.709 356.717 292.709C356.717 292.709 353.802 299.343 353.559 299.594C353.315 299.845 344.98 304.927 344.98 304.927L339.154 308.325C339.154 308.325 333.243 305.737 336.077 304.846C336.656 304.614 337.178 304.259 337.605 303.805C340.443 301.112 344.007 294.418 344.007 294.418C344.007 294.418 344.25 291.02 345.142 289.404C346.034 287.788 345.71 270.807 345.71 270.807L345.779 243.126V239.518L356.867 239.599C356.937 240.824 357.097 242.042 357.345 243.244C357.743 245.318 358.259 247.368 358.89 249.383C360.844 255.697 360.033 266.271 357.365 273.873Z" fill="#FFB0B1"/>
<path opacity="0.1" d="M356.717 292.709C356.717 292.709 353.802 299.343 353.559 299.594C353.315 299.845 344.98 304.927 344.98 304.927L339.154 308.325C339.154 308.325 333.243 305.737 336.077 304.846C336.656 304.614 337.178 304.259 337.605 303.805L337.857 305.575L339.799 305.494L356.421 290.554C356.567 291.891 356.717 292.709 356.717 292.709Z" fill="black"/>
<path d="M356.514 290.931L339.799 305.972L337.857 306.053L337.451 303.218C337.451 303.218 334.054 307.584 326.505 307.341C326.505 307.341 321.972 310.334 328.69 310.496C335.408 310.658 343.987 310.253 343.987 310.253C343.987 310.253 349.979 300.938 354.994 302.153V309.188H356.534V302.088C357.25 301.607 357.862 300.985 358.331 300.261C358.801 299.538 359.119 298.726 359.267 297.877C359.4 297.001 359.306 296.106 358.993 295.278C358.679 294.449 358.158 293.715 357.479 293.146C357.175 292.862 356.933 292.519 356.767 292.138C356.601 291.757 356.515 291.346 356.514 290.931V290.931Z" fill="#1D2366"/>
<path d="M395.811 282.523C394.732 286.371 395.32 288.537 396.058 289.7V289.724C397.005 291.159 397.663 292.764 397.996 294.45L398.061 294.815L390.455 305.891L386.328 307.511C386.328 307.511 379.692 305.247 380.904 304.599C381.208 304.441 381.682 303.599 382.225 302.437C383.847 298.933 386.085 292.47 386.085 292.47V292.417C386.32 289.748 386.693 287.088 387.107 284.439C387.849 279.672 386.486 267.972 386.486 267.972C386.486 267.972 386 253.745 384.946 250.509C384.47 248.864 384.154 247.177 384.001 245.471C383.782 243.446 383.734 241.778 383.734 241.778C383.734 241.778 388.104 235.703 396.115 242.264C396.756 242.787 397.319 243.398 397.789 244.078C403.323 251.943 398.868 269.268 398.868 269.268C398.868 269.268 397.753 275.57 395.811 282.523Z" fill="#FFB0B1"/>
<path opacity="0.1" d="M398.073 294.815L390.468 305.891L386.34 307.511C386.34 307.511 379.704 305.247 380.916 304.599C381.22 304.441 381.694 303.599 382.238 302.437C385.047 302.412 386.503 305.085 386.503 305.085L390.062 304.518C390.062 304.518 394.757 295.301 395.811 294.738C396.865 294.175 395.973 290.53 395.973 290.53V289.603C396.001 289.635 396.026 289.671 396.058 289.704V289.728C397.005 291.163 397.663 292.768 397.996 294.454L398.073 294.815Z" fill="black"/>
<path d="M386.746 305.324C386.746 305.324 384.719 301.606 380.835 302.979C380.835 302.979 378.65 307.434 376.465 308.155C374.279 308.876 375.009 311.306 379.947 310.419C384.885 309.532 392.329 308.799 392.329 308.799L392.653 304.267L397.672 297.881C397.672 297.881 400.664 295.171 396.213 289.837V290.765C396.213 290.765 397.104 294.41 396.05 294.973C394.996 295.536 390.318 304.757 390.318 304.757L386.746 305.324Z" fill="#1D2366"/>
<path opacity="0.1" d="M356.879 239.591C356.949 240.816 357.109 242.034 357.357 243.236C352.793 242.567 348.556 242.899 345.779 243.118V239.51L356.879 239.591Z" fill="black"/>
<path opacity="0.1" d="M398.24 245.086C398.24 245.086 391.753 245.402 384.018 245.467C383.799 243.442 383.75 241.774 383.75 241.774C383.75 241.774 388.12 235.699 396.131 242.26C396.772 242.783 397.336 243.394 397.806 244.074C397.931 244.419 398.076 244.757 398.24 245.086V245.086Z" fill="black"/>
<path d="M398.239 244.357C398.239 244.357 369.828 245.73 361.168 243.304C352.508 240.879 343.926 242.98 342.633 242.417C341.339 241.855 342.389 233.038 343.525 230.855C344.66 228.672 350.887 206.596 350.887 206.596L356.879 175.388L363.191 173.651L363.637 173.525L374.636 170.496L382.696 168.272C382.696 168.272 398.722 230.774 397.347 235.383C396.848 237.148 396.768 239.004 397.112 240.806C397.322 242.036 397.702 243.231 398.239 244.357V244.357Z" fill="#1D2366"/>
<path d="M335.992 154.045C335.992 154.045 330.316 160.12 334.614 163.506C338.911 166.891 341.737 163.83 341.737 163.83L335.992 154.045Z" fill="#C7DAF5"/>
<path opacity="0.1" d="M335.992 154.045C335.992 154.045 330.316 160.12 334.614 163.506C338.911 166.891 341.737 163.83 341.737 163.83L335.992 154.045Z" fill="black"/>
<path d="M381.848 114.105C381.848 114.105 381.183 114.737 380.182 115.669C378.755 117.001 376.643 118.949 374.77 120.581C372.175 122.837 370.034 124.493 370.801 123.08C371.567 121.666 371.421 119.204 371.04 116.9C371.012 116.746 370.987 116.592 370.959 116.442C370.643 114.75 370.225 113.078 369.706 111.436C369.706 111.436 373.898 106.026 376.217 103.891C377.081 103.082 377.685 102.749 377.721 103.312C377.762 104.07 378.329 105.742 379.035 107.516C379.055 107.573 379.075 107.625 379.1 107.682C379.57 108.897 380.101 110.144 380.567 111.222C381.281 112.874 381.848 114.105 381.848 114.105Z" fill="#FFB0B1"/>
<path opacity="0.1" d="M379.1 107.682C378.706 109.799 377.75 111.771 376.332 113.392C374.914 115.014 373.087 116.225 371.04 116.9C370.718 115.051 370.272 113.226 369.706 111.436C369.706 111.436 377.599 101.251 377.721 103.312C377.749 104.094 378.366 105.827 379.1 107.682Z" fill="black"/>
<path opacity="0.1" d="M370.253 119.621L371.275 118.183C371.275 118.183 371.952 122.306 374.441 120.488C376.931 118.669 377.052 134.172 377.052 134.172L374.381 174.076L355.075 172.922L355.622 153.64L357.807 143.92L363.211 129.79L366.426 125.121L370.253 119.621Z" fill="black"/>
<path d="M377.052 134.419L374.62 170.5L374.364 174.323L363.601 173.679L363.195 173.655L355.087 173.169L355.634 153.883L357.819 144.163L363.224 130.033L366.439 125.364L370.266 119.844L371.287 118.41C371.287 118.41 371.964 122.533 374.454 120.715L374.506 120.678C376.939 119.139 377.052 134.419 377.052 134.419Z" fill="#1D2366"/>
<path d="M358.091 140.786C358.091 140.786 357.122 142.811 355.176 142.483C353.23 142.155 353.234 149.773 353.234 149.773C353.234 149.773 351.941 150.987 351.049 149.935C350.157 148.882 347.806 152.441 347.806 152.441L333.073 153.089C333.073 153.089 339.628 156.082 338.343 165.138C338.343 165.138 360.6 163.761 361.33 161.659C362.06 159.557 358.091 140.786 358.091 140.786Z" fill="white"/>
<path opacity="0.03" d="M358.091 140.786C358.091 140.786 357.122 142.811 355.176 142.483C353.23 142.155 353.234 149.773 353.234 149.773C353.234 149.773 351.941 150.987 351.049 149.935C350.157 148.882 347.806 152.441 347.806 152.441L333.073 153.089C333.073 153.089 339.628 156.082 338.343 165.138C338.343 165.138 360.6 163.761 361.33 161.659C362.06 159.557 358.091 140.786 358.091 140.786Z" fill="black"/>
<path d="M315.275 157.848L319.159 161.161L351.13 167.871L347.165 163.83L315.275 157.848Z" fill="white"/>
<path d="M370.314 120.897C369.783 121.707 368.263 125.854 366.994 129.475C365.936 132.492 365.052 135.144 365.052 135.144C365.052 135.144 362.988 148.566 361.934 150.992C360.88 153.417 361.452 162.878 361.452 162.878L357.523 186.242C357.523 186.242 355.743 198.29 352.995 205.487C350.283 212.57 347.262 215.891 347.169 215.996C348.385 214.352 355.014 181.977 355.014 181.977L357.203 141.146C357.203 141.146 357.523 137.266 357.848 133.95C358.172 130.633 364.74 126.105 364.74 126.105L371.072 117.11C371.709 117.961 371.283 119.443 370.314 120.897Z" fill="white"/>
<path d="M353.802 173.371C353.802 173.371 344.477 172.966 339.961 167.547C335.445 162.129 350.401 165.385 350.401 165.385L354.289 166.276L353.802 173.371Z" fill="#FFB0B1"/>
<path opacity="0.1" d="M397.348 235.387C396.849 237.152 396.768 239.008 397.112 240.81C386.941 241.531 376.059 238.785 376.059 238.785C374.032 240.648 368.693 243.393 368.693 243.393L365.782 207.35C363.921 202.49 363.191 177.028 363.191 177.028C363.191 177.028 363.358 175.696 363.597 173.699C363.597 173.651 363.597 173.598 363.617 173.549C364.343 167.973 365.782 157.504 366.487 156.09C367.46 154.146 363.495 148.975 363.495 148.975L365.3 133.605L365.518 131.751C369.321 130.054 372.236 124.635 372.236 124.635L374.474 120.719C376.907 119.159 377.032 134.44 377.032 134.44L374.6 170.52L382.659 168.297C382.659 168.297 398.722 230.778 397.348 235.387Z" fill="black"/>
<path d="M407.787 237.878C396.699 243.377 376.546 238.283 376.546 238.283C374.519 240.146 369.179 242.891 369.179 242.891L366.264 206.847C364.407 201.988 363.678 176.526 363.678 176.526C363.678 176.526 366.021 157.528 366.994 155.588C367.278 155.021 367.14 154.179 366.804 153.272C365.149 148.954 364.541 144.306 365.028 139.709L365.806 133.103L366.021 131.252C369.828 129.551 372.743 124.133 372.743 124.133L374.77 120.585L378.5 114.049L380.267 110.954L380.567 111.226L382.858 113.299C382.858 113.299 383.831 114.109 385.29 115.324C388.465 117.997 393.95 122.703 396.78 125.583C399.269 128.118 400.056 137.979 400.283 145.403C400.433 150.291 400.344 154.122 400.344 154.122C397.834 158.249 404.398 191.381 404.398 191.381C405.926 197.784 407.787 237.878 407.787 237.878Z" fill="white"/>
<path opacity="0.03" d="M386.502 124.052C386.502 124.052 378.893 138.522 379.777 144.022C380.66 149.521 383.174 155.746 381.962 157.2C381.545 157.751 381.007 158.198 380.389 158.506C379.77 158.815 379.089 158.976 378.398 158.978C377.182 159.059 373.939 161.323 373.939 161.566C373.939 161.809 370.943 161.809 368.263 162.943C365.583 164.077 361.626 164.721 361.626 164.721C361.626 164.721 353.923 164.478 353.206 165.207C352.488 165.936 351.75 170.297 353.287 173.776C354.823 177.255 356.53 179.851 357.819 180.325C359.109 180.799 367.29 178.061 373.926 177.413C380.563 176.765 387.767 171.512 387.767 171.512C387.767 171.512 395.701 168.677 397.092 163.911C398.482 159.144 395.393 132.945 395.393 132.945C395.393 132.945 393.058 120.735 386.502 124.052Z" fill="black"/>
<path opacity="0.03" d="M385.53 122.837C385.53 122.837 377.92 137.311 378.812 142.807C379.704 148.302 382.209 154.531 380.993 155.989C380.578 156.541 380.041 156.988 379.423 157.297C378.805 157.605 378.124 157.766 377.434 157.767C376.217 157.848 372.974 160.112 372.974 160.355C372.974 160.598 369.978 160.598 367.298 161.728C364.618 162.858 360.662 163.506 360.662 163.506C360.662 163.506 352.959 163.263 352.245 163.992C351.532 164.721 350.786 169.086 352.326 172.561C353.867 176.036 355.57 178.636 356.859 179.11C358.148 179.584 366.329 176.846 372.966 176.202C379.603 175.558 386.807 170.297 386.807 170.297C386.807 170.297 394.737 167.462 396.111 162.7C397.485 157.937 394.412 131.73 394.412 131.73C394.412 131.73 392.085 119.524 385.53 122.837Z" fill="black"/>
<path d="M386.263 123.323C386.263 123.323 378.654 137.797 379.546 143.293C380.438 148.788 382.943 155.017 381.731 156.471C381.316 157.024 380.778 157.472 380.159 157.782C379.541 158.091 378.859 158.252 378.167 158.253C376.951 158.334 373.708 160.598 373.708 160.837C373.708 161.076 370.716 161.08 368.032 162.214C365.348 163.348 361.395 163.992 361.395 163.992C361.395 163.992 353.692 163.749 352.975 164.478C352.257 165.207 351.519 169.572 353.056 173.047C354.592 176.522 356.299 179.122 357.588 179.596C358.878 180.07 367.059 177.332 373.695 176.684C380.332 176.036 387.536 170.783 387.536 170.783C387.536 170.783 395.47 167.948 396.861 163.182C398.251 158.415 395.182 132.216 395.182 132.216C395.182 132.216 392.815 120.026 386.263 123.323Z" fill="white"/>
<path opacity="0.1" d="M386.097 162.145C386.097 162.145 380.016 160.93 382.132 162.955C384.249 164.98 384.236 166.754 386.827 166.673C389.418 166.592 386.097 162.145 386.097 162.145Z" fill="black"/>
<path opacity="0.1" d="M396.374 205.713C396.374 205.713 393.626 207.572 398.884 211.857C404.142 216.142 396.374 205.713 396.374 205.713Z" fill="black"/>
<path opacity="0.1" d="M391.128 220.994C391.128 221.237 390.155 229.903 393.796 232.07C397.437 234.237 391.128 220.994 391.128 220.994Z" fill="black"/>
<path d="M333.324 153.069C330.389 153.17 324.048 154.065 327.336 160.193C330.243 165.616 335.128 161.991 337.877 159.241C337.207 156.677 335.577 154.468 333.324 153.069V153.069Z" fill="#FFB0B1"/>
<path d="M337.914 159.193L338.035 159.067L337.914 159.193Z" fill="#FFB0B1"/>
<path opacity="0.1" d="M385.29 115.571C382.177 117.697 379.566 119.492 379.055 119.864C377.66 120.897 375.001 126.96 373.286 130.054C371.92 132.544 367.481 133.184 365.806 133.342L366.021 131.491C369.828 129.79 372.743 124.372 372.743 124.372L380.267 111.193L382.858 113.546C382.858 113.546 383.831 114.356 385.29 115.571Z" fill="black"/>
<path d="M385.29 115.328C382.177 117.454 379.566 119.249 379.055 119.625C377.66 120.654 375.001 126.717 373.286 129.811C371.92 132.301 367.481 132.941 365.806 133.099L366.021 131.248C369.828 129.547 372.743 124.129 372.743 124.129L380.267 110.95L382.858 113.295C382.858 113.295 383.831 114.097 385.29 115.328Z" fill="#DCE7FF"/>
<path d="M379.298 105.009C379.3 107.44 378.562 109.815 377.182 111.817C375.552 114.185 373.127 115.89 370.346 116.625C367.565 117.359 364.613 117.073 362.025 115.818C359.437 114.564 357.385 112.425 356.241 109.788C355.097 107.152 354.937 104.193 355.79 101.449C356.643 98.7049 358.453 96.3572 360.89 94.8318C363.328 93.3064 366.232 92.7044 369.076 93.1351C371.92 93.5658 374.515 95.0006 376.391 97.1792C378.266 99.3578 379.298 102.136 379.298 105.009V105.009Z" fill="#FFB0B1"/>
<path opacity="0.1" d="M400.282 145.407C398.636 144.395 397.295 142.956 396.403 141.243C395.726 139.907 395.276 138.364 394.12 137.416C393.078 136.566 391.688 136.359 390.39 135.979C386.125 134.719 382.55 130.831 382.416 126.393C382.351 124.303 383.004 122.217 382.708 120.148C382.539 118.976 382.073 117.868 381.354 116.928C380.996 116.479 380.605 116.057 380.182 115.669C379.614 115.134 379.018 114.616 378.499 114.049C378.173 113.697 377.887 113.31 377.648 112.894C377.455 112.554 377.299 112.194 377.182 111.821C376.371 109.343 377.109 106.402 376.217 103.896L376.168 103.758C375.832 102.867 375.147 101.976 374.194 101.907C373.241 101.838 372.426 102.628 371.518 102.98C369.617 103.717 367.565 102.462 365.98 101.182C364.395 99.9023 362.607 98.4403 360.592 98.7238C359.259 98.9142 358.204 99.8213 356.976 100.291C356.699 100.398 356.412 100.481 356.121 100.538C357.16 97.9483 359.07 95.801 361.522 94.465C363.975 93.1291 366.816 92.688 369.559 93.2175C372.301 93.7471 374.774 95.2141 376.551 97.3667C378.328 99.5193 379.3 102.223 379.298 105.013C379.3 105.856 379.211 106.696 379.035 107.52C379.055 107.577 379.075 107.63 379.1 107.686C379.57 108.901 380.101 110.149 380.567 111.226L382.858 113.299C382.858 113.299 383.831 114.109 385.29 115.324C388.465 117.997 393.95 122.703 396.78 125.583C399.269 128.126 400.047 137.983 400.282 145.407Z" fill="black"/>
<path d="M356.834 92.892C357.414 91.7135 357.702 90.3932 358.395 89.2755C359.413 87.6555 361.189 86.6187 363.013 85.991C367.777 84.3508 377.843 81.9695 380.851 85.991C381.443 86.801 381.934 87.7001 382.753 88.259C383.377 88.6842 384.131 88.8664 384.816 89.1864C386.734 90.0854 387.958 92.0456 388.611 94.0462C389.264 96.0469 389.458 98.1933 389.937 100.255C390.549 102.899 391.623 105.406 392.693 107.897C393.954 110.837 395.292 113.887 397.725 115.964C401.045 118.799 401.779 122.812 404.86 125.923C408.509 129.616 408.391 135.711 406.51 140.551C406.263 141.187 405.983 141.851 406.08 142.527C406.177 143.204 406.68 143.819 407.155 144.358L409.149 146.606C404.43 147.744 399.091 145.281 396.893 140.96C396.216 139.624 395.766 138.085 394.607 137.133C393.569 136.282 392.174 136.08 390.881 135.699C386.616 134.436 383.04 130.544 382.907 126.105C382.842 124.019 383.494 121.934 383.199 119.868C383.034 118.689 382.566 117.573 381.84 116.628C380.726 115.174 379.043 114.198 378.135 112.578C376.598 109.869 377.766 106.35 376.659 103.442C376.319 102.551 375.638 101.66 374.685 101.591C373.732 101.522 372.917 102.312 372.005 102.664C370.108 103.401 368.056 102.15 366.471 100.866C364.886 99.5824 363.098 98.1245 361.079 98.412C359.745 98.5983 358.695 99.5055 357.467 99.9793C356.559 100.328 354.718 100.639 353.924 99.874C352.245 98.331 356.133 94.3338 356.834 92.892Z" fill="#591D4B"/>
<path opacity="0.1" d="M398.021 139.624C397.339 138.287 396.893 136.748 395.734 135.8C394.696 134.95 393.301 134.743 392.004 134.363C387.743 133.103 384.167 129.211 384.03 124.773C383.965 122.687 384.618 120.597 384.326 118.532C384.156 117.36 383.688 116.252 382.967 115.312C381.849 113.858 380.166 112.882 379.262 111.262C377.725 108.557 378.893 105.038 377.782 102.126C377.446 101.239 376.761 100.348 375.812 100.275C374.863 100.202 374.04 101 373.132 101.352C371.235 102.089 369.179 100.834 367.598 99.5541C366.017 98.2743 364.221 96.8123 362.206 97.0958C360.872 97.2861 359.818 98.1933 358.594 98.6631C357.686 99.0114 355.841 99.3273 355.047 98.5618C353.376 96.9419 357.264 92.9527 357.961 91.5191C358.541 90.3365 358.829 89.0203 359.526 87.9026C359.563 87.8418 359.603 87.7811 359.644 87.7203C359.122 88.152 358.672 88.6631 358.31 89.235C357.617 90.3527 357.329 91.6649 356.749 92.8515C356.048 94.2852 352.16 98.2864 353.834 99.8942C354.645 100.664 356.47 100.348 357.378 99.9995C358.594 99.5257 359.656 98.6185 360.99 98.4322C363.017 98.1447 364.801 99.6067 366.382 100.886C367.963 102.166 370.031 103.422 371.92 102.685C372.828 102.332 373.623 101.538 374.596 101.611C375.569 101.684 376.217 102.571 376.57 103.462C377.677 106.37 376.509 109.889 378.046 112.599C378.954 114.19 380.636 115.187 381.751 116.649C382.477 117.593 382.945 118.709 383.109 119.888C383.405 121.954 382.753 124.04 382.817 126.125C382.951 130.58 386.527 134.456 390.792 135.719C392.077 136.1 393.48 136.303 394.518 137.153C395.681 138.105 396.139 139.644 396.804 140.98C399.002 145.301 404.341 147.764 409.06 146.626L408.119 145.565C404.029 145.625 399.89 143.301 398.021 139.624Z" fill="black"/>
<path opacity="0.1" d="M370.071 121.14C369.54 121.95 368.02 126.097 366.751 129.718C365.563 129.256 364.484 126.312 364.484 126.312L370.817 117.313C371.466 118.204 371.04 119.682 370.071 121.14Z" fill="black"/>
<path d="M370.314 120.897C369.783 121.707 368.263 125.854 366.994 129.475C365.806 129.017 364.728 126.069 364.728 126.069L371.06 117.074C371.709 117.961 371.283 119.443 370.314 120.897Z" fill="#DCE7FF"/>
<path d="M333.494 162.27L329.983 151.21C329.942 151.081 329.926 150.944 329.938 150.809C329.949 150.673 329.987 150.541 330.05 150.421C330.112 150.3 330.198 150.193 330.302 150.105C330.406 150.017 330.527 149.951 330.656 149.91V149.91C330.918 149.829 331.201 149.854 331.444 149.98C331.687 150.105 331.87 150.322 331.954 150.582L335.465 161.631L335.116 163.943L333.494 162.27Z" fill="#BE8B87"/>
<path opacity="0.1" d="M330.316 150.238C330.578 150.156 330.862 150.18 331.106 150.306C331.35 150.432 331.534 150.649 331.617 150.911L335.128 161.959L334.865 163.692L335.12 163.959L335.469 161.647L331.938 150.599C331.854 150.338 331.67 150.122 331.427 149.996C331.185 149.87 330.902 149.845 330.64 149.926V149.926C330.42 149.998 330.231 150.14 330.101 150.331C330.17 150.294 330.242 150.263 330.316 150.238V150.238Z" fill="white"/>
<path d="M333.495 162.27L335.465 161.647L335.177 163.542L335.116 163.959L334.541 163.36L333.495 162.27Z" fill="#EFC8C4"/>
<path d="M334.541 163.36C334.575 163.317 334.618 163.281 334.666 163.255C334.695 163.237 334.728 163.227 334.761 163.227C334.795 163.227 334.828 163.237 334.857 163.255C334.884 163.288 334.908 163.325 334.926 163.364C334.952 163.409 334.989 163.447 335.032 163.475C335.076 163.504 335.125 163.523 335.177 163.53L335.116 163.935L334.541 163.36Z" fill="#727A9C"/>
<path d="M329.963 155.139C329.963 155.139 337.005 155.098 335.347 158.091C333.689 161.084 331.099 161.444 331.099 161.444L329.963 155.139Z" fill="#FFB0B1"/>
<path d="M286.166 20.8245H285.862C273.765 20.8245 263.066 27.2192 256.912 36.6554C250.757 27.2192 240.058 20.8245 227.961 20.8245H227.657C218.578 20.9109 209.9 24.573 203.509 31.0151C197.118 37.4571 193.53 46.1584 193.525 55.2282C193.525 66.4909 198.463 82.4717 208.091 95.6216C226.436 120.678 256.912 142.6 256.912 142.6C256.912 142.6 287.387 120.682 305.728 95.6216C315.36 82.4717 320.294 66.4909 320.294 55.2282C320.289 46.1591 316.702 37.4584 310.312 31.0165C303.921 24.5746 295.244 20.912 286.166 20.8245V20.8245ZM281.816 97.5494C280.438 97.5441 279.094 97.1228 277.961 96.3408C276.827 95.5588 275.956 94.4526 275.463 93.1674H268.231C267.754 93.1644 267.291 93.013 266.905 92.7342C266.519 92.4554 266.23 92.0631 266.078 91.6122L263.856 84.9259L256.826 109.464C256.69 109.936 256.403 110.352 256.01 110.647C255.616 110.943 255.138 111.104 254.645 111.104H254.503C253.99 111.079 253.5 110.879 253.116 110.537C252.733 110.195 252.478 109.732 252.395 109.225L245.15 65.6971L239.856 91.4543C239.734 91.9436 239.452 92.3782 239.055 92.6887C238.657 92.9992 238.167 93.1677 237.662 93.1674H227.474C227.169 93.1803 226.864 93.1314 226.578 93.0235C226.292 92.9157 226.031 92.7511 225.81 92.5398C225.59 92.3285 225.414 92.0748 225.294 91.794C225.174 91.5131 225.112 91.2109 225.112 90.9055C225.112 90.6002 225.174 90.298 225.294 90.0171C225.414 89.7363 225.59 89.4825 225.81 89.2712C226.031 89.0599 226.292 88.8954 226.578 88.7876C226.864 88.6797 227.169 88.6308 227.474 88.6437H235.879L243.379 54.0132C243.502 53.5012 243.799 53.0478 244.22 52.7306C244.641 52.4133 245.159 52.2519 245.685 52.2739C246.212 52.2959 246.715 52.4999 247.107 52.8512C247.5 53.2024 247.758 53.679 247.838 54.1995L255.237 98.6023L261.537 76.6479C261.669 76.1856 261.946 75.778 262.328 75.486C262.71 75.194 263.177 75.0334 263.658 75.028H263.702C264.179 75.0281 264.643 75.1786 265.029 75.4578C265.415 75.7371 265.702 76.1309 265.851 76.5831L269.869 88.6558H275.374C275.766 87.4679 276.478 86.411 277.433 85.6019C278.387 84.7929 279.547 84.263 280.785 84.0709C282.022 83.8788 283.288 84.0319 284.443 84.5133C285.599 84.9946 286.599 85.7856 287.333 86.7988C288.067 87.812 288.506 89.0081 288.603 90.2551C288.699 91.502 288.449 92.7514 287.88 93.8652C287.31 94.979 286.444 95.914 285.376 96.567C284.308 97.22 283.08 97.5655 281.828 97.5656L281.816 97.5494Z" fill="#4D4DFF"/>
</g>
<defs>
<linearGradient id="paint0_linear" x1="144.462" y1="313.813" x2="144.462" y2="64.6077" gradientUnits="userSpaceOnUse">
<stop stop-color="#808080" stop-opacity="0.25"/>
<stop offset="0.54" stop-color="#808080" stop-opacity="0.12"/>
<stop offset="1" stop-color="#808080" stop-opacity="0.1"/>
</linearGradient>
<linearGradient id="paint1_linear" x1="90494.9" y1="188028" x2="90494.9" y2="60109.4" gradientUnits="userSpaceOnUse">
<stop stop-color="#808080" stop-opacity="0.25"/>
<stop offset="0.54" stop-color="#808080" stop-opacity="0.12"/>
<stop offset="1" stop-color="#808080" stop-opacity="0.1"/>
</linearGradient>
<clipPath id="clip0">
<rect width="448" height="317" fill="white"/>
</clipPath>
</defs>
</svg>
