<svg width="477" height="331" viewBox="0 0 477 331" fill="none" xmlns="http://www.w3.org/2000/svg">
<g clip-path="url(#clip0)">
<path d="M93.7184 83.5464H88.0908V158.841H93.7184V83.5464Z" fill="#6C63FF" stroke="#6C63FF" stroke-miterlimit="10"/>
<path d="M264.336 136.15H208.435V170.057H264.336V136.15Z" fill="#F55F44"/>
<path d="M320.237 136.15H264.336V170.057H320.237V136.15Z" fill="#4D8AF0"/>
<path d="M376.138 136.15H320.237V170.057H376.138V136.15Z" fill="#3AD29F"/>
<path d="M263.928 170.057H208.027V203.965H263.928V170.057Z" fill="#4D8AF0"/>
<path d="M208.435 170.057H152.534V203.965H208.435V170.057Z" fill="#F55F44"/>
<path d="M320.237 170.057H264.336V203.965H320.237V170.057Z" fill="#3AD29F"/>
<path d="M376.138 170.057H320.237V203.965H376.138V170.057Z" fill="#FDD835"/>
<g opacity="0.1">
<path opacity="0.1" d="M225.776 135.945H218.432V169.853H225.776V135.945Z" fill="black"/>
<path opacity="0.1" d="M240.058 135.945H232.713V169.853H240.058V135.945Z" fill="black"/>
<path opacity="0.1" d="M254.339 135.945H246.994V169.853H254.339V135.945Z" fill="black"/>
</g>
<g opacity="0.1">
<path opacity="0.1" d="M281.678 135.945H274.333V169.853H281.678V135.945Z" fill="black"/>
<path opacity="0.1" d="M295.959 135.945H288.614V169.853H295.959V135.945Z" fill="black"/>
<path opacity="0.1" d="M310.24 135.945H302.896V169.853H310.24V135.945Z" fill="black"/>
</g>
<g opacity="0.1">
<path opacity="0.1" d="M337.578 135.945H330.233V169.853H337.578V135.945Z" fill="black"/>
<path opacity="0.1" d="M351.859 135.945H344.515V169.853H351.859V135.945Z" fill="black"/>
<path opacity="0.1" d="M366.141 135.945H358.796V169.853H366.141V135.945Z" fill="black"/>
</g>
<g opacity="0.1">
<path opacity="0.1" d="M225.776 169.853H218.432V203.76H225.776V169.853Z" fill="black"/>
<path opacity="0.1" d="M240.058 169.853H232.713V203.76H240.058V169.853Z" fill="black"/>
<path opacity="0.1" d="M254.339 169.853H246.994V203.76H254.339V169.853Z" fill="black"/>
</g>
<g opacity="0.1">
<path opacity="0.1" d="M169.875 169.853H162.531V203.76H169.875V169.853Z" fill="black"/>
<path opacity="0.1" d="M184.157 169.853H176.812V203.76H184.157V169.853Z" fill="black"/>
<path opacity="0.1" d="M198.438 169.853H191.093V203.76H198.438V169.853Z" fill="black"/>
</g>
<g opacity="0.1">
<path opacity="0.1" d="M281.678 169.853H274.333V203.76H281.678V169.853Z" fill="black"/>
<path opacity="0.1" d="M295.959 169.853H288.614V203.76H295.959V169.853Z" fill="black"/>
<path opacity="0.1" d="M310.24 169.853H302.896V203.76H310.24V169.853Z" fill="black"/>
</g>
<g opacity="0.1">
<path opacity="0.1" d="M337.578 169.853H330.233V203.76H337.578V169.853Z" fill="black"/>
<path opacity="0.1" d="M351.859 169.853H344.515V203.76H351.859V169.853Z" fill="black"/>
<path opacity="0.1" d="M366.141 169.853H358.796V203.76H366.141V169.853Z" fill="black"/>
</g>
<path d="M443.906 243.612H11.0952V256.929H443.906V243.612Z" fill="#6C63FF" stroke="#6C63FF" stroke-miterlimit="10"/>
<path d="M404.513 190.854H149.738C148.111 190.85 146.553 190.201 145.402 189.049C144.252 187.897 143.604 186.337 143.599 184.708V147.151L44.3491 136.048V250.271H410.652V184.708C410.647 186.337 409.999 187.897 408.849 189.049C407.699 190.201 406.14 190.85 404.513 190.854V190.854Z" fill="#6C63FF" stroke="#6C63FF" stroke-miterlimit="10"/>
<path d="M81.6957 148.341H44.3491V169.854H81.6957V148.341Z" fill="white"/>
<path d="M90.9047 94.0467C96.8381 94.0467 101.648 89.2309 101.648 83.2903C101.648 77.3497 96.8381 72.5339 90.9047 72.5339C84.9712 72.5339 80.1611 77.3497 80.1611 83.2903C80.1611 89.2309 84.9712 94.0467 90.9047 94.0467Z" fill="#6C63FF" stroke="#6C63FF" stroke-miterlimit="10"/>
<path d="M48.9175 254.434C52.7218 244.151 64.6843 238.796 75.6287 239.224C86.573 239.653 96.7669 244.604 106.577 249.48C116.388 254.356 126.546 259.354 137.486 259.891C161.796 261.085 182.255 240.363 206.481 238.011C235.281 235.216 260.839 258.697 289.757 259.664C294.843 259.834 300.03 259.271 304.713 257.279C308.789 255.544 312.342 252.796 316.192 250.604C335.622 239.54 359.924 243.718 381.421 249.852C402.917 255.987 425.232 263.846 447.084 259.133" fill="#4D8AF0"/>
<path d="M0 274.268C3.80434 263.985 15.7668 258.629 26.7112 259.058C37.6555 259.486 47.8494 264.437 57.6598 269.313C67.4701 274.189 77.6285 279.188 88.5681 279.725C112.879 280.918 133.338 260.196 157.564 257.844C186.363 255.049 211.921 278.53 240.84 279.497C245.925 279.667 251.112 279.104 255.795 277.112C259.872 275.378 263.424 272.63 267.274 270.437C286.704 259.373 311.007 263.551 332.503 269.686C354 275.82 376.315 283.679 398.166 278.967" fill="#4D8AF0"/>
<path d="M52.1514 299.767C55.9557 289.484 67.9182 284.129 78.8626 284.558C89.8069 284.986 100.001 289.937 109.811 294.813C119.621 299.689 129.78 304.687 140.719 305.224C165.03 306.418 185.489 285.696 209.715 283.344C238.515 280.549 264.073 304.03 292.991 304.997C298.077 305.167 303.263 304.604 307.947 302.612C312.023 300.877 315.575 298.13 319.425 295.937C338.856 284.873 363.158 289.051 384.655 295.185C406.151 301.32 428.466 309.179 450.318 304.466" fill="#4D8AF0"/>
<path d="M78.8335 324.863C82.6378 314.579 94.6003 309.224 105.545 309.653C116.489 310.081 126.683 315.032 136.493 319.908C146.304 324.784 156.462 329.783 167.402 330.32C191.712 331.513 212.171 310.791 236.397 308.439C265.197 305.644 290.755 329.125 319.673 330.092C324.759 330.262 329.946 329.699 334.629 327.707C338.705 325.973 342.258 323.225 346.108 321.032C365.538 309.968 389.84 314.146 411.337 320.281C432.833 326.415 455.148 334.274 477 329.561" fill="#4D8AF0"/>
<g opacity="0.5">
<path opacity="0.5" d="M134.523 58.3518L130.996 57.7268C131.088 56.8538 131.23 55.9868 131.422 55.1301C132.021 47.559 126.777 39.5921 119.405 37.5829L120.349 34.1139C127.065 35.9447 132.246 41.5723 134.211 48.1264C135.948 45.1499 138.285 42.5678 141.072 40.5443C143.86 38.5207 147.037 37.0999 150.403 36.3721L151.113 39.8967C143.386 41.4571 136.818 48.0357 134.981 55.7027C134.894 56.5958 134.741 57.4813 134.523 58.3518V58.3518Z" fill="url(#paint0_linear)"/>
</g>
<path d="M134.63 56.592L131.615 56.0578C131.694 55.3115 131.815 54.5703 131.979 53.8381C132.491 47.3664 128.009 40.5564 121.708 38.839L122.514 35.8737C128.255 37.4386 132.683 42.2491 134.363 47.8514C135.848 45.3071 137.845 43.1 140.228 41.3703C142.611 39.6406 145.327 38.4261 148.204 37.804L148.811 40.8168C142.206 42.1506 136.591 47.7739 135.021 54.3275C134.947 55.091 134.816 55.8479 134.63 56.592V56.592Z" fill="#706A6A"/>
<g opacity="0.5">
<path opacity="0.5" d="M209.989 25.8785L207.714 25.4754C207.773 24.9122 207.865 24.353 207.988 23.8004C208.375 18.9168 204.992 13.7778 200.237 12.4818L200.846 10.2442C205.178 11.4251 208.52 15.0552 209.788 19.2827C210.908 17.3628 212.415 15.6973 214.213 14.392C216.011 13.0867 218.061 12.1702 220.232 11.7008L220.69 13.9743C215.705 14.9808 211.469 19.2242 210.284 24.1697C210.228 24.7458 210.129 25.317 209.989 25.8785V25.8785Z" fill="url(#paint1_linear)"/>
</g>
<g opacity="0.5">
<path opacity="0.5" d="M348.632 15.6343L346.356 15.2312C346.416 14.668 346.507 14.1088 346.631 13.5562C347.017 8.67259 343.635 3.53363 338.88 2.23761L339.488 1.90735e-05C343.821 1.18091 347.162 4.81097 348.43 9.03854C349.551 7.11862 351.058 5.45308 352.856 4.1478C354.654 2.84252 356.703 1.92605 358.874 1.45665L359.332 3.7301C354.348 4.73659 350.111 8.98003 348.926 13.9255C348.87 14.5016 348.772 15.0728 348.632 15.6343V15.6343Z" fill="url(#paint2_linear)"/>
</g>
<path d="M210.156 23.141L208.677 22.879C208.716 22.5131 208.775 22.1497 208.856 21.7906C209.107 18.6172 206.909 15.2778 203.819 14.4357L204.214 12.9817C205.596 13.396 206.852 14.1507 207.867 15.1768C208.882 16.2029 209.624 17.4676 210.025 18.855C210.753 17.6074 211.732 16.5251 212.901 15.677C214.069 14.8288 215.401 14.2333 216.811 13.9282L217.109 15.4055C215.482 15.779 213.989 16.5953 212.796 17.7644C211.603 18.9335 210.755 20.4098 210.347 22.0306C210.311 22.405 210.247 22.7761 210.156 23.141V23.141Z" fill="#706A6A"/>
<path d="M348.798 12.8968L347.32 12.6348C347.358 12.2689 347.418 11.9055 347.498 11.5464C347.749 8.37298 345.551 5.03364 342.461 4.19148L342.857 2.73748C344.239 3.15178 345.495 3.90653 346.51 4.93262C347.525 5.95872 348.267 7.22338 348.667 8.6108C349.395 7.36322 350.375 6.28095 351.543 5.43277C352.712 4.58459 354.043 3.98906 355.454 3.68403L355.752 5.16133C354.124 5.53481 352.632 6.35112 351.439 7.52019C350.245 8.68926 349.398 10.1656 348.99 11.7864C348.953 12.1608 348.889 12.5319 348.798 12.8968V12.8968Z" fill="#706A6A"/>
<g opacity="0.5">
<path opacity="0.5" d="M70.7921 73.596C89.7227 73.596 105.069 58.2312 105.069 39.2779C105.069 20.3246 89.7227 4.95985 70.7921 4.95985C51.8615 4.95985 36.5151 20.3246 36.5151 39.2779C36.5151 58.2312 51.8615 73.596 70.7921 73.596Z" fill="url(#paint3_linear)"/>
</g>
<path d="M70.7922 71.0349C88.3101 71.0349 102.511 56.8168 102.511 39.2779C102.511 21.739 88.3101 7.5209 70.7922 7.5209C53.2743 7.5209 39.0732 21.739 39.0732 39.2779C39.0732 56.8168 53.2743 71.0349 70.7922 71.0349Z" fill="#FDD835"/>
</g>
<defs>
<linearGradient id="paint0_linear" x1="135.259" y1="58.3518" x2="135.259" y2="34.1139" gradientUnits="userSpaceOnUse">
<stop stop-color="#808080" stop-opacity="0.25"/>
<stop offset="0.53514" stop-color="#808080" stop-opacity="0.12"/>
<stop offset="1" stop-color="#808080" stop-opacity="0.1"/>
</linearGradient>
<linearGradient id="paint1_linear" x1="11412.3" y1="2752.71" x2="11412.3" y2="2275.5" gradientUnits="userSpaceOnUse">
<stop stop-color="#808080" stop-opacity="0.25"/>
<stop offset="0.53514" stop-color="#808080" stop-opacity="0.12"/>
<stop offset="1" stop-color="#808080" stop-opacity="0.1"/>
</linearGradient>
<linearGradient id="paint2_linear" x1="17093.6" y1="2429.78" x2="17093.6" y2="1952.57" gradientUnits="userSpaceOnUse">
<stop stop-color="#808080" stop-opacity="0.25"/>
<stop offset="0.53514" stop-color="#808080" stop-opacity="0.12"/>
<stop offset="1" stop-color="#808080" stop-opacity="0.1"/>
</linearGradient>
<linearGradient id="paint3_linear" x1="9522.69" y1="9866.82" x2="9522.69" y2="669.58" gradientUnits="userSpaceOnUse">
<stop stop-color="#808080" stop-opacity="0.25"/>
<stop offset="0.53514" stop-color="#808080" stop-opacity="0.12"/>
<stop offset="1" stop-color="#808080" stop-opacity="0.1"/>
</linearGradient>
<clipPath id="clip0">
<rect width="477" height="331" fill="white"/>
</clipPath>
</defs>
</svg>
