<svg width="496" height="344" viewBox="0 0 496 344" fill="none" xmlns="http://www.w3.org/2000/svg">
<g clip-path="url(#clip0)">
<path d="M97.4513 86.8277H91.5996V165.08H97.4513V86.8277Z" fill="#4D4DFF" stroke="#4D4DFF" stroke-miterlimit="10"/>
<path d="M274.865 141.497H216.737V176.736H274.865V141.497Z" fill="#F55F44"/>
<path d="M332.992 141.497H274.865V176.736H332.992V141.497Z" fill="#4D8AF0"/>
<path d="M391.12 141.497H332.993V176.736H391.12V141.497Z" fill="#3AD29F"/>
<path d="M274.441 176.736H216.313V211.975H274.441V176.736Z" fill="#4D8AF0"/>
<path d="M216.737 176.736H158.609V211.975H216.737V176.736Z" fill="#F55F44"/>
<path d="M332.992 176.736H274.865V211.975H332.992V176.736Z" fill="#3AD29F"/>
<path d="M391.12 176.736H332.993V211.975H391.12V176.736Z" fill="#FDD835"/>
<g opacity="0.1">
<path opacity="0.1" d="M234.77 141.284H227.132V176.524H234.77V141.284Z" fill="black"/>
<path opacity="0.1" d="M249.62 141.284H241.982V176.524H249.62V141.284Z" fill="black"/>
<path opacity="0.1" d="M264.47 141.284H256.833V176.524H264.47V141.284Z" fill="black"/>
</g>
<g opacity="0.1">
<path opacity="0.1" d="M292.897 141.284H285.26V176.524H292.897V141.284Z" fill="black"/>
<path opacity="0.1" d="M307.748 141.284H300.11V176.524H307.748V141.284Z" fill="black"/>
<path opacity="0.1" d="M322.598 141.284H314.96V176.524H322.598V141.284Z" fill="black"/>
</g>
<g opacity="0.1">
<path opacity="0.1" d="M351.025 141.284H343.388V176.524H351.025V141.284Z" fill="black"/>
<path opacity="0.1" d="M365.875 141.284H358.238V176.524H365.875V141.284Z" fill="black"/>
<path opacity="0.1" d="M380.725 141.284H373.088V176.524H380.725V141.284Z" fill="black"/>
</g>
<g opacity="0.1">
<path opacity="0.1" d="M234.77 176.524H227.132V211.763H234.77V176.524Z" fill="black"/>
<path opacity="0.1" d="M249.62 176.524H241.982V211.763H249.62V176.524Z" fill="black"/>
<path opacity="0.1" d="M264.47 176.524H256.833V211.763H264.47V176.524Z" fill="black"/>
</g>
<g opacity="0.1">
<path opacity="0.1" d="M176.642 176.524H169.005V211.763H176.642V176.524Z" fill="black"/>
<path opacity="0.1" d="M191.492 176.524H183.855V211.763H191.492V176.524Z" fill="black"/>
<path opacity="0.1" d="M206.342 176.524H198.705V211.763H206.342V176.524Z" fill="black"/>
</g>
<g opacity="0.1">
<path opacity="0.1" d="M292.897 176.524H285.26V211.763H292.897V176.524Z" fill="black"/>
<path opacity="0.1" d="M307.748 176.524H300.11V211.763H307.748V176.524Z" fill="black"/>
<path opacity="0.1" d="M322.598 176.524H314.96V211.763H322.598V176.524Z" fill="black"/>
</g>
<g opacity="0.1">
<path opacity="0.1" d="M351.025 176.524H343.388V211.763H351.025V176.524Z" fill="black"/>
<path opacity="0.1" d="M365.875 176.524H358.238V211.763H365.875V176.524Z" fill="black"/>
<path opacity="0.1" d="M380.725 176.524H373.088V211.763H380.725V176.524Z" fill="black"/>
</g>
<path d="M461.588 253.18H11.5376V267.02H461.588V253.18Z" fill="#4D4DFF" stroke="#4D4DFF" stroke-miterlimit="10"/>
<path d="M420.626 198.35H155.702C154.011 198.345 152.39 197.671 151.194 196.474C149.998 195.277 149.324 193.655 149.319 191.962V152.93L46.1157 141.391V260.1H427.01V191.962C427.005 193.655 426.33 195.277 425.134 196.474C423.938 197.671 422.317 198.345 420.626 198.35V198.35Z" fill="#4D4DFF" stroke="#4D4DFF" stroke-miterlimit="10"/>
<path d="M84.9499 154.167H46.1157V176.525H84.9499V154.167Z" fill="white"/>
<path d="M94.5255 97.7404C100.695 97.7404 105.697 92.7355 105.697 86.5616C105.697 80.3877 100.695 75.3827 94.5255 75.3827C88.3556 75.3827 83.354 80.3877 83.354 86.5616C83.354 92.7355 88.3556 97.7404 94.5255 97.7404Z" fill="#4D4DFF" stroke="#4D4DFF" stroke-miterlimit="10"/>
<path d="M50.8657 264.427C54.8216 253.74 67.2606 248.174 78.6409 248.62C90.0212 249.066 100.621 254.21 110.822 259.278C121.023 264.346 131.586 269.541 142.962 270.099C168.241 271.339 189.515 249.803 214.706 247.359C244.652 244.454 271.228 268.857 301.299 269.862C306.587 270.039 311.98 269.454 316.85 267.383C321.089 265.581 324.783 262.725 328.786 260.447C348.99 248.948 374.261 253.29 396.613 259.665C418.966 266.041 442.17 274.209 464.892 269.311" fill="#4D8AF0"/>
<path d="M0 285.04C3.95588 274.353 16.3949 268.787 27.7752 269.232C39.1555 269.678 49.7554 274.823 59.9565 279.89C70.1576 284.958 80.7206 290.153 92.096 290.711C117.375 291.951 138.649 270.415 163.84 267.971C193.787 265.066 220.362 289.469 250.433 290.474C255.721 290.651 261.114 290.066 265.984 287.995C270.223 286.193 273.917 283.337 277.92 281.059C298.124 269.56 323.395 273.902 345.748 280.278C368.1 286.653 391.304 294.821 414.026 289.923" fill="#4D8AF0"/>
<path d="M54.229 311.541C58.1849 300.854 70.6239 295.288 82.0042 295.733C93.3845 296.179 103.984 301.324 114.185 306.392C124.387 311.459 134.95 316.654 146.325 317.212C171.604 318.452 192.878 296.917 218.069 294.473C248.016 291.567 274.591 315.971 304.662 316.976C309.95 317.152 315.343 316.567 320.213 314.497C324.452 312.694 328.146 309.839 332.149 307.56C352.353 296.062 377.624 300.403 399.977 306.779C422.329 313.154 445.533 321.322 468.255 316.424" fill="#4D8AF0"/>
<path d="M81.9736 337.622C85.9295 326.935 98.3685 321.369 109.749 321.814C121.129 322.26 131.729 327.405 141.93 332.472C152.131 337.54 162.694 342.735 174.07 343.293C199.348 344.533 220.622 322.997 245.814 320.553C275.76 317.648 302.336 342.051 332.406 343.056C337.695 343.233 343.088 342.648 347.958 340.577C352.197 338.775 355.89 335.919 359.894 333.641C380.098 322.142 405.368 326.484 427.721 332.86C450.074 339.235 473.278 347.403 496 342.505" fill="#4D8AF0"/>
<g opacity="0.5">
<path opacity="0.5" d="M139.882 60.6436L136.214 59.994C136.31 59.0867 136.458 58.1856 136.657 57.2953C137.28 49.4269 131.827 41.1471 124.162 39.0589L125.143 35.4538C132.127 37.3564 137.514 43.2051 139.557 50.0165C141.363 46.9232 143.793 44.2397 146.692 42.1366C149.59 40.0336 152.894 38.557 156.394 37.8007L157.132 41.4636C149.097 43.0853 142.267 49.9223 140.357 57.8904C140.267 58.8186 140.108 59.7389 139.882 60.6436V60.6436Z" fill="url(#paint0_linear)"/>
</g>
<path d="M139.993 58.8146L136.858 58.2594C136.939 57.4838 137.066 56.7136 137.236 55.9526C137.768 49.2268 133.107 42.1493 126.555 40.3643L127.394 37.2827C133.364 38.909 137.968 43.9084 139.715 49.7307C141.259 47.0866 143.336 44.7928 145.814 42.9951C148.291 41.1974 151.115 39.9353 154.107 39.2888L154.738 42.4198C147.87 43.806 142.032 49.6502 140.399 56.4613C140.322 57.2547 140.186 58.0413 139.993 58.8146V58.8146Z" fill="#706A6A"/>
<g opacity="0.5">
<path opacity="0.5" d="M218.354 26.8949L215.988 26.4759C216.049 25.8907 216.145 25.3094 216.273 24.7352C216.675 19.6597 213.158 14.319 208.213 12.972L208.846 10.6466C213.351 11.8738 216.826 15.6465 218.144 20.0401C219.309 18.0447 220.876 16.3138 222.746 14.9572C224.616 13.6007 226.747 12.6482 229.004 12.1604L229.481 14.5231C224.298 15.5692 219.892 19.9793 218.66 25.119C218.602 25.7177 218.499 26.3113 218.354 26.8949V26.8949Z" fill="url(#paint1_linear)"/>
</g>
<g opacity="0.5">
<path opacity="0.5" d="M362.519 16.2483L360.153 15.8294C360.214 15.2441 360.31 14.6629 360.438 14.0886C360.84 9.01322 357.323 3.67243 352.378 2.32551L353.011 3.05176e-05C357.516 1.2273 360.991 4.99993 362.309 9.39354C363.474 7.39821 365.041 5.66726 366.911 4.31072C368.781 2.95418 370.912 2.00171 373.169 1.51387L373.646 3.87661C368.463 4.92263 364.057 9.33273 362.825 14.4725C362.767 15.0712 362.664 15.6648 362.519 16.2483V16.2483Z" fill="url(#paint2_linear)"/>
</g>
<path d="M218.526 24.0498L216.989 23.7776C217.029 23.3973 217.091 23.0196 217.174 22.6464C217.435 19.3484 215.15 15.8779 211.937 15.0026L212.348 13.4915C213.785 13.9221 215.091 14.7065 216.147 15.7729C217.202 16.8393 217.974 18.1536 218.39 19.5955C219.147 18.2989 220.165 17.1742 221.38 16.2927C222.595 15.4112 223.98 14.7923 225.447 14.4753L225.757 16.0106C224.065 16.3987 222.513 17.2471 221.272 18.4621C220.031 19.6771 219.15 21.2114 218.725 22.8959C218.688 23.2849 218.621 23.6706 218.526 24.0498V24.0498Z" fill="#706A6A"/>
<path d="M362.692 13.4033L361.154 13.1311C361.194 12.7507 361.256 12.373 361.34 11.9999C361.601 8.70183 359.315 5.23133 356.103 4.3561L356.514 2.84499C357.951 3.27556 359.257 4.05995 360.312 5.12635C361.368 6.19274 362.139 7.50707 362.556 8.94899C363.313 7.65241 364.331 6.52763 365.546 5.64613C366.761 4.76464 368.146 4.14573 369.613 3.82872L369.922 5.36404C368.23 5.75218 366.678 6.60056 365.437 7.81554C364.197 9.03053 363.315 10.5649 362.891 12.2493C362.853 12.6384 362.787 13.0241 362.692 13.4033V13.4033Z" fill="#706A6A"/>
<g opacity="0.5">
<path opacity="0.5" d="M73.612 76.4864C93.2967 76.4864 109.254 60.5183 109.254 40.8205C109.254 21.1228 93.2967 5.15465 73.612 5.15465C53.9273 5.15465 37.9697 21.1228 37.9697 40.8205C37.9697 60.5183 53.9273 76.4864 73.612 76.4864Z" fill="url(#paint3_linear)"/>
</g>
<path d="M73.6123 73.8248C91.828 73.8248 106.595 59.0483 106.595 40.8205C106.595 22.5928 91.828 7.81628 73.6123 7.81628C55.3966 7.81628 40.6299 22.5928 40.6299 40.8205C40.6299 59.0483 55.3966 73.8248 73.6123 73.8248Z" fill="#FDD835"/>
</g>
<defs>
<linearGradient id="paint0_linear" x1="140.647" y1="60.6436" x2="140.647" y2="35.4538" gradientUnits="userSpaceOnUse">
<stop stop-color="#808080" stop-opacity="0.25"/>
<stop offset="0.53514" stop-color="#808080" stop-opacity="0.12"/>
<stop offset="1" stop-color="#808080" stop-opacity="0.1"/>
</linearGradient>
<linearGradient id="paint1_linear" x1="11866.9" y1="2860.82" x2="11866.9" y2="2364.87" gradientUnits="userSpaceOnUse">
<stop stop-color="#808080" stop-opacity="0.25"/>
<stop offset="0.53514" stop-color="#808080" stop-opacity="0.12"/>
<stop offset="1" stop-color="#808080" stop-opacity="0.1"/>
</linearGradient>
<linearGradient id="paint2_linear" x1="17774.5" y1="2525.2" x2="17774.5" y2="2029.25" gradientUnits="userSpaceOnUse">
<stop stop-color="#808080" stop-opacity="0.25"/>
<stop offset="0.53514" stop-color="#808080" stop-opacity="0.12"/>
<stop offset="1" stop-color="#808080" stop-opacity="0.1"/>
</linearGradient>
<linearGradient id="paint3_linear" x1="9902" y1="10254.3" x2="9902" y2="695.878" gradientUnits="userSpaceOnUse">
<stop stop-color="#808080" stop-opacity="0.25"/>
<stop offset="0.53514" stop-color="#808080" stop-opacity="0.12"/>
<stop offset="1" stop-color="#808080" stop-opacity="0.1"/>
</linearGradient>
<clipPath id="clip0">
<rect width="496" height="344" fill="white"/>
</clipPath>
</defs>
</svg>
